<svg width="890" height="863" viewBox="0 0 890 863" fill="none" xmlns="http://www.w3.org/2000/svg">
<g opacity="0.4" clip-path="url(#clip0_2_21)">
<mask id="mask0_2_21" style="mask-type:alpha" maskUnits="userSpaceOnUse" x="0" y="0" width="890" height="863">
<path d="M842.94 0H47.06C21.0695 0 0 21.0695 0 47.06V815.65C0 841.641 21.0695 862.71 47.06 862.71H842.94C868.931 862.71 890 841.641 890 815.65V47.06C890 21.0695 868.931 0 842.94 0Z" fill="#DC89FF"/>
</mask>
<g mask="url(#mask0_2_21)">
<g style="mix-blend-mode:multiply">
<path d="M909.027 252.689C908.217 252.979 907.357 253.169 906.607 253.579C891.467 261.989 876.357 270.489 861.177 278.819C858.287 280.409 855.137 281.569 852.007 282.559C844.347 284.989 837.857 282.919 832.877 276.299C830.847 273.599 829.037 270.699 827.317 267.759C819.577 254.529 805.667 250.349 792.647 258.049C787.467 261.109 783.297 266.009 778.217 269.299C768.507 275.579 763.487 284.939 759.567 295.809C751.637 317.799 739.337 324.659 718.157 317.369C702.537 311.989 686.827 308.589 670.597 306.579C663.007 305.639 655.577 302.859 648.237 300.369C642.377 298.389 636.887 298.719 630.987 300.249C614.207 304.619 597.337 308.579 580.467 312.529C577.717 313.169 574.777 313.169 571.927 313.079C561.597 312.779 555.867 307.479 555.147 296.579C554.467 286.259 554.777 275.869 554.417 265.519C554.007 253.799 551.467 242.629 545.997 232.289C537.117 215.509 523.147 207.289 505.307 206.739C473.097 205.739 445.557 218.329 421.977 240.689C413.617 248.619 406.577 258.069 398.537 266.409C383.097 282.409 366.707 297.359 346.437 306.189C323.107 316.349 299.567 316.919 276.097 305.589C265.207 300.329 253.957 295.799 242.657 291.589C233.277 288.099 224.437 290.159 216.307 296.319C212.147 299.479 207.547 302.009 203.117 304.759C187.997 314.129 172.957 313.549 157.927 304.409C151.487 300.499 145.167 296.239 138.367 293.149C128.427 288.629 118.127 284.989 107.957 281.029C98.447 277.329 88.737 274.139 79.437 269.939C67.717 264.639 55.3271 262.539 42.9871 259.989C24.2271 256.109 5.33705 254.389 -13.7729 255.449C-15.2929 255.529 -16.8329 255.319 -18.5729 255.239C-18.5729 251.339 -18.5729 247.799 -18.5729 244.119C-7.13295 244.119 4.27705 243.649 15.6371 244.229C31.7571 245.049 47.847 247.589 63.947 247.649C84.257 247.729 102.887 253.389 121.027 262.139C127.917 265.459 135.107 268.089 141.927 271.549C151.677 276.499 161.457 281.479 170.787 287.229C187.427 297.499 203.927 292.699 212.407 274.529C214.357 270.349 216.107 266.059 218.277 262.009C222.587 253.969 229.127 251.239 236.617 255.969C245.367 261.499 253.317 268.439 261.477 274.959C267.857 280.049 273.747 285.839 280.337 290.589C303.657 307.389 327.897 305.639 351.807 292.579C371.447 281.859 387.757 266.279 402.247 248.929C426.147 220.309 456.517 205.159 491.727 199.649C504.297 197.679 516.857 198.889 529.107 202.539C540.627 205.969 549.157 213.749 556.067 223.749C564.937 236.579 568.927 251.429 572.297 266.559C573.107 270.209 574.027 273.869 575.337 277.339C578.437 285.539 581.767 287.549 590.197 286.929C596.317 286.479 602.607 284.979 608.527 285.929C617.967 287.439 626.847 286.819 636.017 284.229C640.197 283.049 645.087 283.919 649.547 284.639C661.267 286.519 672.977 288.539 684.577 291.069C691.507 292.579 698.307 294.919 705.017 297.329C712.427 299.999 719.497 303.899 727.037 305.959C736.657 308.589 743.467 304.819 747.637 295.269C750.307 289.169 751.747 282.479 754.257 276.279C755.907 272.219 758.077 268.219 760.737 264.819C765.797 258.339 771.637 252.519 776.687 246.029C787.597 231.969 796.377 228.929 812.897 234.209C823.927 237.739 834.597 242.079 842.907 250.949C849.977 258.489 858.377 259.099 867.517 256.709C880.847 253.229 894.337 250.239 905.527 241.009C906.407 240.289 907.867 240.339 909.067 240.039C909.067 244.249 909.067 248.459 909.067 252.679L909.027 252.689Z" fill="#E3AECF"/>
<path d="M909.027 557.739C902.797 557.019 896.507 556.619 890.337 555.509C879.767 553.609 871.747 546.849 863.927 539.659C860.847 536.829 857.147 534.729 853.727 532.309C844.357 525.709 834.967 519.159 825.627 512.509C820.537 508.889 815.777 504.689 810.467 501.499C799.777 495.069 790.617 496.629 782.357 506.269C778.567 510.689 774.937 515.529 772.347 520.779C765.217 535.219 753.737 542.849 739.167 546.839C714.557 553.569 690.267 551.049 666.307 544.029C659.667 542.079 653.207 537.719 647.857 532.979C634.117 520.809 618.777 512.829 601.017 510.119C588.157 508.159 578.267 500.259 568.087 492.669C555.847 483.549 543.917 473.659 530.737 466.309C505.437 452.209 478.557 448.909 451.157 459.509C434.457 465.969 421.377 477.779 410.867 492.719C402.537 504.559 394.457 516.589 386.097 528.419C370.897 549.949 350.807 564.809 326.427 571.759C300.187 579.239 279.277 595.129 259.847 613.799C240.947 631.959 219.817 645.769 195.007 652.749C173.637 658.759 151.817 660.269 130.037 656.009C114.267 652.919 107.017 639.669 111.817 623.629C113.927 616.559 117.147 609.609 121.037 603.419C128.347 591.779 132.037 579.569 130.777 565.539C130.027 557.119 130.437 548.399 135.137 541.149C138.387 536.139 142.697 531.799 146.937 527.619C157.657 517.059 157.107 506.399 144.727 498.029C135.117 491.529 124.397 489.479 113.497 493.409C98.587 498.779 83.297 500.639 67.7071 502.119C58.807 502.969 50.1371 506.969 41.4471 509.849C24.0371 515.609 6.70705 521.619 -10.7029 527.359C-13.0729 528.139 -15.7329 527.909 -18.5729 528.179C-18.5729 524.479 -18.5729 521.249 -18.5729 518.019C6.42705 515.259 29.067 503.739 52.967 496.929C59.247 495.139 65.8271 493.979 72.3171 493.669C84.877 493.059 96.8171 489.989 108.747 486.099C128.647 479.609 146.717 484.179 162.267 498.379C175.627 510.589 177.277 527.149 167.217 542.449C161.767 550.739 155.747 558.639 153.367 568.679C152.297 573.199 151.377 577.759 150.267 582.269C147.927 591.739 143.347 599.969 137.857 607.809C133.637 613.839 129.397 619.989 126.177 626.629C120.627 638.049 124.627 647.479 136.527 649.599C146.307 651.349 156.487 651.959 166.387 651.339C193.847 649.619 218.497 639.099 239.627 620.859C250.727 611.279 259.987 599.359 270.407 588.849C278.547 580.649 286.947 572.689 295.727 565.269C299.637 561.959 304.597 559.749 309.377 557.899C324.167 552.189 338.907 546.479 352.377 537.659C371.077 525.409 384.197 507.599 396.317 488.909C406.497 473.219 418.507 459.699 434.927 451.379C471.407 432.889 507.287 435.159 541.787 456.879C553.387 464.179 563.867 473.459 574.737 482.009C585.377 490.389 596.837 496.969 609.657 500.869C622.967 504.929 635.277 511.179 646.577 519.639C656.387 526.989 667.397 530.929 679.377 531.659C690.807 532.349 702.247 533.199 713.687 533.099C736.597 532.899 754.567 523.869 764.957 500.929C768.807 492.429 774.567 484.959 781.887 479.109C791.487 471.439 801.337 470.609 811.277 477.719C816.787 481.659 821.567 486.749 826.527 491.489C836.357 500.879 846.117 510.359 855.847 519.869C859.197 523.139 862.847 526.249 865.497 530.089C876.287 545.769 891.217 551.709 908.997 551.459V557.779L909.027 557.739Z" fill="#E3AECF"/>
<path d="M909.027 125.429C904.687 124.789 900.157 124.779 896.057 123.379C887.507 120.449 879.137 116.879 870.767 113.389C851.367 105.289 831.797 102.739 812.627 113.339C800.647 119.969 788.717 127.079 777.957 135.629C766.037 145.109 754.627 155.649 744.537 167.229C732.397 181.149 718.137 188.849 700.497 190.239C694.237 190.729 688.997 193.519 684.097 197.389C680.097 200.559 676.127 203.789 671.927 206.639C663.817 212.129 655.717 211.659 648.797 204.549C643.927 199.549 640.037 193.509 635.567 188.059C632.867 184.769 630.137 181.429 626.997 178.639C613.667 166.809 600.287 155.009 586.677 143.529C580.897 138.659 574.647 134.339 568.347 130.229C557.537 123.179 545.897 120.699 533.017 122.139C525.367 122.999 517.407 121.479 509.657 120.489C496.747 118.829 483.897 116.689 471.017 114.809C456.997 112.759 442.987 110.469 428.927 108.819C404.407 105.939 382.907 114.549 363.507 129.459C350.977 139.089 347.507 155.609 354.107 170.349C360.357 184.309 356.767 197.139 349.627 209.219C346.247 214.929 340.877 215.009 336.757 209.749C333.607 205.729 331.027 201.139 328.637 196.559C325.487 190.519 321.277 185.889 315.187 183.229C302.127 177.529 289.347 170.929 275.937 166.339C255.667 159.389 235.237 162.079 215.157 168.409C205.447 171.469 195.837 174.909 186.137 178.039C178.057 180.649 170.057 180.409 162.237 176.789C155.687 173.759 149.017 171.019 142.577 167.759C131.677 162.239 120.407 161.089 108.697 163.849C98.647 166.219 88.637 168.719 78.577 171.069C75.2271 171.849 71.8371 172.559 68.437 172.889C57.427 173.969 47.8871 168.809 43.9171 157.989C40.2371 147.989 37.9571 137.389 35.3271 126.989C32.3871 115.339 29.1671 103.879 22.2571 93.969C16.9371 86.349 10.1371 81.969 0.887053 81.819C-6.23295 81.699 -8.17295 79.409 -9.54295 71.949C-11.0829 63.569 -11.3429 54.379 -14.9929 47.109C-20.1629 36.769 -18.1429 26.489 -18.9129 15.129C-17.0029 16.299 -15.5629 16.859 -14.5329 17.879C-10.9029 21.489 -7.09295 24.979 -3.92295 28.999C18.4871 57.399 35.077 88.889 42.2271 125.399C43.1971 130.359 44.8171 135.229 46.5671 139.969C52.0671 154.839 60.9071 160.269 75.8671 157.379C88.937 154.849 101.867 151.489 114.907 148.759C125.337 146.569 135.327 147.939 144.927 153.129C151.407 156.629 158.287 159.289 164.837 162.649C175.467 168.089 186.177 167.979 197.417 164.829C210.507 161.159 223.717 157.869 237.027 155.229C254.457 151.769 271.767 153.689 288.837 158.439C297.827 160.939 306.837 163.339 315.877 165.609C318.637 166.299 321.527 166.569 324.377 166.719C328.407 166.939 330.657 164.909 331.457 160.589C332.407 155.459 333.627 150.349 335.107 145.359C340.627 126.789 354.957 117.159 369.587 107.599C392.327 92.749 417.197 88.369 443.327 90.469C473.597 92.899 503.697 96.869 533.237 104.549C552.127 109.459 569.107 118.659 584.667 130.769C593.867 137.929 602.527 145.859 611.877 152.779C625.307 162.719 639.127 172.089 652.827 181.629C657.917 185.179 663.727 186.149 669.217 183.689C679.597 179.039 690.577 178.439 701.487 176.939C714.997 175.079 726.877 169.779 736.867 159.449C755.147 140.549 775.267 123.919 796.607 108.959C820.657 92.099 846.777 87.259 874.927 94.229C883.147 96.259 891.407 98.119 899.697 99.749C902.717 100.339 905.897 100.049 909.007 100.169C909.007 108.589 909.007 117.019 909.007 125.439L909.027 125.429Z" fill="#E3AECF"/>
<path d="M909.027 805.029C907.687 804.369 906.047 804.029 905.047 803.009C901.267 799.119 897.747 794.949 894.047 790.979C890.677 787.359 886.637 785.539 881.687 785.959C864.857 787.369 848.027 788.699 831.187 789.989C825.337 790.439 819.467 791.099 813.617 790.979C799.897 790.709 786.457 792.699 773.237 796.189C751.247 802.009 729.837 800.029 708.687 791.999C703.037 789.849 697.217 788.239 691.497 786.299C686.267 784.529 681.237 785.149 676.597 788.039C671.187 791.409 666.017 795.209 660.627 798.629C656.227 801.419 651.827 804.329 647.127 806.479C631.557 813.579 619.817 805.939 618.917 788.129C618.627 782.309 619.137 776.429 619.347 770.579C620.337 743.569 610.687 722.519 587.757 709.189C574.787 701.649 560.927 696.429 546.207 694.339C531.347 692.229 517.987 697.629 505.247 704.879C494.687 710.889 484.407 717.419 473.907 723.539C458.647 732.429 442.387 737.889 425.137 741.199C406.597 744.749 388.767 751.339 374.157 764.599C367.367 770.759 361.187 777.759 355.287 784.889C346.407 795.619 336.087 803.869 323.737 809.909C294.387 824.249 264.797 837.749 233.037 845.149C217.267 848.819 201.507 852.569 185.667 855.859C177.557 857.549 169.127 857.679 161.097 859.629C145.307 863.469 132.867 873.709 120.777 884.449C115.647 888.999 110.357 893.369 104.937 897.529C102.547 899.359 99.757 900.749 96.977 901.829C86.857 905.749 79.237 900.649 79.297 889.259C79.337 881.849 80.9671 874.419 82.097 867.039C83.097 860.519 84.5671 854.079 85.517 847.549C86.667 839.599 84.767 832.639 79.897 826.129C67.887 810.079 55.1471 795.019 37.8971 784.849C21.8171 775.379 4.43705 770.279 -13.5929 767.169C-15.2629 766.879 -16.9129 766.499 -18.6829 766.139C-18.6829 761.259 -18.6829 756.629 -18.6829 751.049C-13.3429 752.549 -8.34295 753.979 -3.33295 755.359C15.2271 760.469 33.517 766.239 50.407 776.189C68.057 786.589 82.037 801.379 95.047 817.229C97.327 820.009 98.4371 825.229 97.8871 828.959C96.3571 839.289 93.737 849.449 91.397 859.639C89.827 866.489 87.6871 873.209 86.3871 880.099C85.447 885.059 84.517 890.829 89.227 894.249C93.767 897.549 98.467 894.839 102.377 892.069C107.697 888.299 112.847 884.179 117.677 879.739C134.257 864.489 152.257 852.019 174.167 847.019C185.897 844.339 197.777 842.329 209.417 839.259C244.857 829.929 279.417 818.109 312.037 800.339C325.117 793.219 336.657 784.679 345.877 772.589C358.707 755.759 373.857 741.929 393.577 734.809C405.597 730.469 417.707 725.709 430.157 723.529C450.447 719.979 468.677 711.439 486.787 702.059C497.417 696.549 508.007 690.909 518.887 685.999C533.097 679.579 547.667 680.369 562.047 685.639C576.767 691.029 591.467 696.489 604.757 705.359C620.247 715.699 631.247 729.819 637.957 747.749C639.987 753.179 642.087 758.639 644.717 763.759C647.567 769.319 651.377 770.669 657.017 768.399C661.007 766.799 664.807 764.629 668.587 762.509C677.677 757.399 686.407 757.729 695.577 762.839C704.517 767.819 713.887 772.009 723.227 776.159C738.917 783.129 755.237 783.709 771.687 780.079C785.107 777.109 798.397 775.099 811.927 779.529C815.007 780.539 818.437 780.449 821.717 780.639C831.967 781.219 841.557 778.109 850.857 774.169C861.747 769.559 873.207 769.349 884.597 768.499C889.017 768.169 892.247 770.969 894.517 774.609C898.187 780.509 901.427 786.699 905.077 792.629C905.957 794.049 907.687 794.889 909.027 795.999C909.027 799.009 909.027 802.019 909.027 805.029Z" fill="#E3AECF"/>
<path d="M909.027 772.539C908.077 771.189 906.867 769.969 906.207 768.469C903.637 762.619 901.587 756.499 898.687 750.839C894.877 743.399 888.777 740.559 880.487 740.919C869.517 741.389 860.227 744.889 852.147 752.789C848.307 756.539 843.797 759.649 839.237 762.419C829.437 768.379 819.357 768.449 809.447 762.549C805.597 760.259 801.887 757.659 798.257 754.989C792.517 750.769 786.517 749.579 779.557 751.329C767.967 754.259 756.007 756.719 744.297 753.569C733.987 750.789 724.117 746.139 714.147 742.069C710.967 740.779 707.957 738.919 705.067 736.979C692.747 728.709 679.327 723.729 665.187 719.779C655.857 717.179 646.827 712.109 638.607 706.599C617.017 692.129 593.977 680.579 570.217 671.209C544.127 660.929 517.607 663.279 492.217 675.829C478.627 682.549 465.197 689.889 450.067 691.859C427.857 694.749 406.947 702.359 386.027 710.099C365.857 717.559 348.037 729.109 334.927 746.789C318.517 768.919 296.847 782.639 273.357 794.319C256.337 802.779 238.557 808.759 220.487 813.989C208.227 817.529 195.987 821.169 183.607 824.189C163.537 829.099 145.587 838.989 127.807 849.399C125.817 850.559 123.697 851.549 121.527 852.279C116.967 853.819 114.527 852.019 114.747 846.909C114.917 843.039 115.647 839.159 116.527 835.379C118.057 828.809 120.107 822.379 121.577 815.789C123.847 805.549 122.147 801.929 114.047 796.009C105.477 789.739 97.0871 783.209 88.7671 776.579C72.2371 763.399 53.607 754.689 33.937 748.449C17.0171 743.079 1.80705 734.889 -12.3529 723.659C-17.7929 719.339 -19.4429 715.489 -18.9029 709.179C-18.5929 705.489 -18.8429 701.749 -18.8429 696.579C-15.6629 699.189 -13.2729 700.899 -11.1629 702.929C-3.88295 709.929 3.07705 717.319 10.587 724.029C20.5171 732.889 32.7571 737.109 44.9871 740.779C66.4571 747.219 86.7171 756.119 105.387 769.189C113.927 775.169 123.267 779.939 132.387 784.959C138.067 788.079 142.737 792.139 145.057 798.449C148.237 807.139 154.447 809.509 162.527 808.639C181.897 806.549 201.217 804.359 219.707 797.209C232.557 792.239 246.137 789.049 258.477 782.999C272.287 776.229 285.577 767.919 298.087 758.769C305.797 753.129 312.147 745.109 318.197 737.379C334.617 716.369 353.827 699.359 378.687 690.859C395.107 685.249 411.797 680.219 428.667 676.439C453.267 670.919 478.097 666.469 502.917 662.109C525.137 658.209 547.477 658.039 569.317 664.419C578.447 667.089 587.057 671.869 595.767 676.019C611.397 683.459 626.817 691.369 642.527 698.609C650.347 702.219 658.427 705.649 666.717 707.609C680.977 710.979 694.057 717.289 707.347 723.229C712.877 725.699 718.487 727.949 724.017 730.419C740.047 737.569 756.477 738.289 773.257 734.049C774.647 733.699 776.097 733.529 777.437 733.029C787.907 729.059 796.347 732.099 803.567 740.709C806.177 743.829 809.477 746.409 812.757 748.779C819.847 753.889 827.427 754.189 834.467 749.059C839.837 745.149 845.137 740.779 849.417 735.639C860.727 722.079 875.567 722.119 890.557 723.099C896.637 723.499 901.027 728.199 904.897 733.049C905.987 734.419 907.627 735.309 909.007 736.419C909.007 748.449 909.007 760.489 909.007 772.519L909.027 772.539Z" fill="#E3AECF"/>
<path d="M909.027 831.209C904.917 831.189 900.797 830.999 896.687 831.169C881.527 831.819 866.377 832.569 851.217 833.309C827.487 834.469 803.747 835.549 780.027 836.879C767.607 837.569 755.197 838.619 742.787 839.689C728.847 840.889 715.037 839.779 701.317 837.309C691.357 835.509 681.737 836.459 672.127 839.659C657.837 844.419 643.617 849.629 629.047 853.149C610.987 857.519 592.627 857.269 576.027 847.419C560.517 838.209 547.857 825.189 538.927 808.869C531.637 795.549 533.487 782.139 543.227 770.579C546.347 766.879 549.977 763.649 553.407 760.249C560.577 753.149 561.187 745.859 555.287 737.559C548.127 727.489 535.197 723.399 522.477 727.179C510.537 730.729 501.347 738.839 492.147 747.029C481.777 756.259 471.407 765.489 460.757 774.349C453.657 780.249 445.467 783.499 436.197 783.789C417.357 784.369 401.227 792.309 387.197 805.059C375.727 815.489 364.827 826.689 350.397 832.679C330.467 840.949 310.597 849.429 290.507 857.259C263.827 867.659 236.067 873.209 207.907 877.079C191.857 879.289 175.897 881.739 159.667 881.579C147.097 881.449 136.487 887.089 126.457 894.499C118.987 900.009 111.547 905.709 103.527 910.189C94.7671 915.089 85.387 916.599 76.4671 909.789C71.2571 905.809 67.6371 900.229 66.5871 893.899C63.927 877.839 56.9371 864.409 46.9371 852.229C39.107 842.699 32.3771 832.129 24.1971 822.959C13.767 811.279 0.28705 805.179 -14.8929 803.379C-15.8829 803.259 -16.8729 803.099 -17.8629 802.949C-17.9929 802.929 -18.1129 802.819 -18.5329 802.599C-18.5329 798.039 -18.5329 793.319 -18.5329 788.249C-1.80295 789.259 13.317 794.749 26.887 804.929C39.227 814.189 48.107 826.689 56.3671 839.769C58.2671 842.769 59.9071 846.009 62.1471 848.709C68.177 855.979 69.8171 864.439 69.7771 873.809C69.7471 880.669 70.1271 887.699 71.5971 894.349C74.6571 908.199 84.8071 913.599 97.6971 909.059C107.257 905.689 114.857 899.059 122.527 892.539C131.687 884.749 141.067 877.039 152.737 874.249C159.737 872.579 167.237 873.359 174.427 872.369C187.887 870.519 201.277 868.149 214.717 866.069C257.997 859.389 298.397 843.279 338.197 824.999C350.347 819.419 360.977 811.969 370.017 801.809C378.727 792.019 387.837 782.709 399.247 776.259C410.367 769.969 422.167 765.939 434.687 764.799C444.577 763.899 453.397 760.289 461.407 754.619C472.907 746.479 484.077 737.809 495.367 729.339C505.307 721.889 515.597 715.229 527.747 712.449C547.917 707.839 574.237 719.819 582.877 737.599C589.107 750.419 586.207 760.129 574.147 766.959C568.867 769.949 563.397 772.669 558.437 776.169C547.837 783.639 546.097 794.759 554.797 804.539C560.677 811.139 567.877 816.569 574.967 821.799C581.377 826.529 588.387 830.389 595.227 834.459C607.207 841.589 620.097 841.619 632.727 837.839C643.787 834.519 654.537 829.819 665.107 824.959C677.567 819.229 690.277 816.469 703.547 820.049C724.217 825.619 744.777 824.919 765.677 821.489C782.177 818.779 798.907 817.359 815.587 816.179C835.437 814.769 855.357 814.539 875.207 813.199C887.097 812.399 898.237 814.599 909.047 819.479C909.047 823.389 909.047 827.299 909.047 831.209H909.027Z" fill="#E3AECF"/>
<path d="M909.027 435.899C901.277 433.109 894.927 437.339 888.147 440.149C878.087 444.329 870.977 442.089 863.937 432.899C852.777 418.309 838.977 408.659 820.817 407.309C805.087 406.139 790.967 411.409 777.767 419.969C763.377 429.299 751.847 442.159 739.667 454.199C732.747 461.029 725.567 467.319 716.717 471.309C706.257 476.029 695.367 477.499 685.027 472.689C670.217 465.809 654.787 462.979 638.907 461.669C609.907 459.289 583.747 448.369 558.617 433.479C537.247 420.819 514.477 411.399 490.167 406.839C463.447 401.829 437.887 406.899 412.807 416.819C393.447 424.479 378.227 437.409 365.507 454.319C353.357 470.479 338.317 482.979 320.307 491.559C316.667 493.299 312.987 496.759 311.107 500.429C303.697 514.879 292.417 523.029 277.347 526.329C270.197 527.899 262.847 530.129 258.017 536.289C254.267 541.069 251.537 546.799 248.697 552.289C243.427 562.489 237.107 571.619 227.177 577.359C226.297 577.869 225.397 578.339 224.457 578.699C219.077 580.769 215.797 578.899 215.717 572.899C215.617 565.259 216.567 557.609 216.607 549.959C216.657 538.879 217.397 527.629 215.867 516.759C213.247 498.169 201.467 485.979 186.787 476.479C168.417 464.579 148.427 458.479 126.977 456.399C111.647 454.909 96.3671 452.409 81.2071 449.539C60.5071 445.629 39.597 446.069 18.747 445.019C7.31705 444.439 -4.08295 443.179 -15.5029 442.339C-18.0329 442.149 -19.0029 441.149 -18.8929 438.429C-18.7129 434.099 -18.8429 429.759 -18.8429 425.019C-11.6529 425.669 -4.86295 426.279 1.92705 426.889C24.8671 428.929 47.8471 430.629 70.7371 433.179C78.3171 434.019 85.9871 436.219 93.0871 439.179C106.407 444.729 120.237 447.409 134.287 449.379C167.227 453.999 196.537 467.639 222.807 488.789C226.547 491.799 229.977 495.259 233.907 497.939C236.817 499.919 240.197 501.749 243.567 502.289C254.727 504.089 265.957 505.589 277.207 506.619C289.007 507.699 296.197 503.369 300.697 492.029C303.987 483.739 308.977 478.799 317.307 476.129C333.827 470.819 346.287 458.939 357.857 445.989C358.057 445.769 358.257 445.559 358.437 445.319C377.117 419.739 403.487 407.479 431.957 399.469C444.167 396.039 456.837 393.639 469.427 392.699C483.697 391.639 497.327 396.919 510.917 401.059C535.797 408.639 560.157 417.719 583.737 429.059C605.877 439.709 629.687 443.579 653.487 447.229C659.937 448.219 665.597 450.329 670.747 454.469C674.487 457.469 678.377 460.329 682.447 462.829C693.857 469.819 705.527 469.879 716.477 462.189C722.587 457.899 727.977 452.359 733.297 446.939C750.807 429.109 768.517 411.489 791.677 401.909C818.797 390.689 844.107 394.609 867.217 413.429C868.577 414.539 869.867 415.729 871.247 416.799C875.197 419.859 878.907 420.299 881.917 416.239C887.137 409.189 891.947 401.649 895.897 393.749C899.997 385.539 902.807 376.629 906.317 368.089C906.867 366.749 908.107 365.719 909.027 364.549C909.027 388.319 909.027 412.079 909.027 435.849V435.899Z" fill="#E3AECF"/>
<path d="M909.027 14.419C892.297 15.819 875.787 18.499 859.697 23.699C836.327 31.249 815.387 43.819 795.237 58.039C776.847 71.019 758.437 83.969 739.917 96.759C736.607 99.049 732.857 100.819 729.097 102.159C721.807 104.759 718.527 110.239 717.407 117.829C716.647 123.009 715.887 128.239 714.457 133.239C710.697 146.419 701.437 150.879 689.427 145.409C678.487 140.419 669.177 132.859 661.447 123.439C654.147 114.549 645.637 108.389 634.937 104.499C613.977 96.879 595.507 84.099 576.857 71.719C553.757 56.389 530.887 40.529 506.907 26.869C478.377 10.609 447.697 5.979 415.867 15.439C400.637 19.969 386.057 26.449 372.837 35.499C356.317 46.809 339.817 58.339 324.367 71.169C294.967 95.609 261.487 108.109 224.647 112.009C205.507 114.029 187.857 108.169 170.557 100.609C166.077 98.649 161.577 96.649 157.287 94.279C141.967 85.819 126.987 87.299 112.107 95.509C105.397 99.209 98.857 103.359 91.857 106.319C80.947 110.939 72.927 107.139 68.077 95.849C66.607 92.439 65.1571 88.909 64.4271 85.279C61.6971 71.619 59.2571 57.899 56.7471 44.199C53.8171 28.159 49.677 12.649 39.937 -0.611002C38.817 -2.141 38.8471 -4.601 38.3471 -6.591C43.7071 -8.211 46.877 -6.761 49.897 -2.541C60.187 11.819 64.8371 28.329 67.9471 45.619C69.7971 55.919 72.1671 66.119 74.5871 76.289C75.2271 78.989 76.7071 81.549 78.147 83.939C81.877 90.109 87.077 92.359 93.647 89.959C98.327 88.239 102.877 85.829 107.107 83.089C125.507 71.149 144.147 69.709 163.817 79.889C178.877 87.689 194.747 93.759 211.617 94.929C221.647 95.629 231.977 94.969 241.897 93.199C267.877 88.569 291.027 76.849 312.417 60.699C333.207 45.009 354.247 29.639 375.787 15.129C392.887 3.609 411.777 -3.841 432.197 -6.331C457.437 -9.401 481.097 -3.501 503.837 7.549C524.837 17.749 543.907 31.369 563.087 44.789C583.917 59.369 604.657 74.129 627.937 84.269C630.707 85.479 633.447 86.909 636.347 87.629C650.027 91.049 659.597 100.239 668.457 111.129C673.487 117.309 680.107 122.059 686.077 127.379C687.037 128.229 688.297 128.739 689.467 129.309C698.657 133.769 703.787 130.669 705.617 120.129C706.857 112.959 707.867 105.459 710.747 98.989C712.737 94.509 717.177 89.829 721.527 88.139C749.227 77.439 772.457 59.199 796.117 41.479C827.307 18.119 861.597 2.119 899.727 -3.981C902.817 -4.481 905.927 -4.931 909.017 -5.401C909.017 1.219 909.017 7.839 909.017 14.459L909.027 14.419Z" fill="#E3AECF"/>
<path d="M909.027 922.359C907.327 922.239 905.617 922.019 903.917 922.029C815.017 922.439 726.117 922.819 637.217 923.319C620.047 923.419 602.887 924.049 585.717 924.229C580.727 924.279 575.717 923.599 570.727 923.209C565.097 922.769 560.647 919.729 557.037 915.539C550.697 908.199 543.757 901.189 538.687 892.939C530.097 878.939 517.957 871.669 503.157 867.609C493.777 865.039 484.707 861.239 475.387 858.419C472.167 857.449 467.547 856.219 465.427 857.829C462.097 860.349 464.807 864.859 466.317 868.079C469.917 875.749 473.847 883.269 477.847 890.729C481.597 897.709 479.857 912.029 473.797 916.899C471.557 918.689 467.967 919.279 464.987 919.279C450.097 919.289 435.187 918.259 420.337 918.839C391.747 919.959 363.107 921.029 334.617 923.699C282.927 928.549 231.257 931.079 179.377 928.459C154.007 927.179 128.797 928.879 103.857 934.529C87.0171 938.349 70.2971 935.719 53.6671 931.989C37.0371 928.259 21.5271 921.369 5.96705 914.489C-1.91295 911.009 -10.0629 908.199 -18.5929 904.899C-18.5929 898.389 -18.5929 890.919 -18.5929 882.609C-16.2529 883.359 -14.0129 883.679 -12.1329 884.739C-1.92295 890.469 8.33705 896.129 18.2971 902.299C36.3871 913.499 55.527 922.009 75.687 927.999C85.747 930.989 96.0471 930.179 105.707 926.669C128.827 918.269 152.607 916.499 176.767 916.879C193.507 917.149 210.257 917.139 227.007 917.099C256.007 917.029 284.647 912.959 313.237 908.379C355.817 901.549 398.367 894.489 441.597 894.119C445.307 894.089 449.047 893.709 452.697 893.059C457.257 892.249 458.637 889.969 457.217 885.379C456.027 881.539 454.187 877.929 452.707 874.179C450.087 867.539 447.397 860.929 445.007 854.199C444.277 852.159 444.177 849.779 444.197 847.549C444.257 840.929 448.257 837.049 454.477 838.089C458.357 838.739 462.487 839.709 465.797 841.769C481.377 851.449 498.097 858.039 515.317 863.569C526.067 867.019 534.487 874.149 541.067 883.589C546.417 891.249 553.217 897.109 560.797 902.069C569.037 907.449 578.547 907.439 587.707 908.709C605.607 911.189 623.387 908.989 641.197 907.029C651.137 905.929 661.177 905.389 671.177 905.319C749.337 904.739 827.507 904.329 905.667 903.849C906.787 903.849 907.917 903.569 909.037 903.419C909.037 909.739 909.037 916.059 909.037 922.369L909.027 922.359Z" fill="#E3AECF"/>
<path d="M909.027 615.499C907.707 615.059 906.237 614.889 905.107 614.149C898.567 609.869 891.437 608.259 883.807 608.379C847.907 608.919 812.397 612.479 777.567 622.229C755.067 628.529 732.157 627.489 709.287 625.009C698.337 623.819 687.227 623.099 676.557 620.489C665.637 617.809 654.737 614.049 644.627 608.989C632.257 602.799 620.197 602.119 607.117 605.169C596.437 607.659 585.447 609.929 574.577 609.989C562.077 610.059 549.497 608.089 537.087 606.079C526.857 604.419 519.077 597.979 513.377 588.909C509.987 583.509 506.687 578.059 503.257 572.689C499.307 566.519 493.667 563.629 486.687 564.479C478.917 565.429 472.087 563.939 465.717 558.849C462.137 555.989 457.857 553.809 453.587 552.229C441.347 547.679 429.917 550.859 422.247 562.779C415.927 572.609 408.047 578.039 397.267 580.539C384.247 583.559 376.677 592.919 373.697 606.319C370.167 622.179 365.797 637.669 358.037 651.929C352.917 661.319 346.997 670.269 336.097 671.699C328.907 672.639 321.237 671.699 314.067 670.149C305.187 668.209 297.197 668.509 288.637 672.319C282.127 675.209 274.547 676.539 267.417 676.609C253.377 676.759 240.427 679.959 228.997 688.499C216.867 697.569 203.087 697.439 189.397 696.509C175.167 695.539 161.047 692.829 146.827 691.609C133.297 690.449 119.667 690.579 106.137 689.439C100.107 688.929 93.8871 687.519 88.3171 685.099C76.4571 679.939 71.837 669.159 70.477 656.449C70.147 653.309 69.727 650.179 69.587 647.029C69.357 641.799 67.3871 637.449 63.977 633.749C62.487 632.129 61.087 630.369 59.417 628.979C44.7271 616.739 42.2271 600.379 45.077 582.239C45.727 578.099 46.727 574.019 47.487 569.889C48.987 561.749 47.0371 557.249 40.2271 552.929C24.987 543.269 10.3571 545.019 -3.28295 558.219C-6.44295 561.279 -9.36295 564.599 -12.5029 567.669C-14.1029 569.229 -15.9629 570.489 -18.5029 572.529C-18.5029 568.509 -18.5029 565.759 -18.5029 563.539C-13.7229 559.619 -8.99295 555.859 -4.39295 551.949C6.00705 543.109 17.6071 539.389 31.1071 541.079C38.1271 541.959 45.397 541.449 52.487 540.749C61.647 539.839 65.667 542.209 66.557 551.789C66.977 556.349 65.987 561.349 64.5271 565.739C62.417 572.089 59.017 577.959 56.6771 584.239C50.7971 600.009 53.907 610.919 66.7771 620.939C68.617 622.369 70.437 623.839 72.297 625.229C78.167 629.609 81.727 635.499 83.357 642.879C84.387 647.549 85.907 652.099 87.167 656.719C91.157 671.339 100.747 678.819 114.777 680.479C120.177 681.119 125.607 681.449 131.027 681.839C146.137 682.939 161.247 684.619 176.377 684.929C197.197 685.359 217.677 683.109 237.247 674.399C245.607 670.679 254.717 668.809 263.447 666.009C271.107 663.549 278.877 661.369 286.307 658.299C293.767 655.219 300.967 654.989 308.487 657.589C313.237 659.229 318.047 660.779 322.927 661.889C334.047 664.399 342.867 660.969 347.877 650.279C353.787 637.659 358.257 624.299 363.307 611.239C364.217 608.879 364.977 606.439 365.697 604.009C370.127 589.009 379.397 578.899 393.587 574.029C401.907 571.169 407.877 565.799 412.257 557.839C419.287 545.069 428.707 534.929 442.137 529.329C453.907 524.419 464.917 524.199 475.107 533.229C478.987 536.669 483.527 538.309 488.627 537.849C503.447 536.519 513.187 543.809 519.187 557.559C521.447 562.739 524.027 567.799 525.937 573.119C531.427 588.399 542.197 594.519 557.287 595.829C574.027 597.279 590.037 595.739 605.807 589.639C614.727 586.189 624.107 584.489 633.637 586.559C637.227 587.339 640.997 588.449 644.067 590.459C668.147 606.239 695.207 609.469 722.587 612.029C742.797 613.919 762.197 610.219 781.547 604.939C816.267 595.459 851.647 591.659 887.447 592.469C893.157 592.599 898.817 595.009 904.497 596.369C905.997 596.729 907.487 597.099 908.987 597.469C908.987 603.489 908.987 609.499 908.987 615.519L909.027 615.499Z" fill="#E3AECF"/>
<path d="M909.027 574.889C884.647 571.679 860.367 566.749 835.687 567.729C825.797 568.119 815.857 570.299 806.187 572.729C787.557 577.409 769.197 583.279 750.547 587.859C727.667 593.479 704.867 590.319 682.647 583.939C671.457 580.729 660.527 575.609 650.317 569.759C638.777 563.139 627.297 561.329 614.777 564.699C604.957 567.339 595.207 571.349 585.247 572.099C575.177 572.859 564.817 570.739 554.717 569.039C551.727 568.539 548.707 565.619 546.547 563.029C543.747 559.679 541.497 555.709 539.547 551.719C532.497 537.329 522.827 525.279 511.187 514.759C506.437 510.459 502.427 505.269 497.797 500.799C484.637 488.069 469.767 486.469 453.167 496.459C433.757 508.139 417.387 523.499 405.567 543.599C398.727 555.219 390.637 565.009 379.057 571.679C370.367 576.679 363.907 584.549 358.777 593.339C350.787 607.019 338.047 615.089 326.327 624.309C323.437 626.579 319.107 627.729 315.407 627.809C299.047 628.159 284.477 634.479 269.957 641.439C254.627 648.789 239.327 656.269 223.627 662.649C202.297 671.329 180.097 674.909 157.127 672.659C147.737 671.739 138.227 672.239 128.857 671.159C110.167 669.009 99.2271 656.899 93.7971 638.789C91.8371 632.239 91.0971 625.299 89.3371 618.679C87.8071 612.929 86.0271 607.169 83.6171 601.769C80.9871 595.889 79.897 590.029 81.647 583.869C85.2671 571.129 87.1971 558.139 88.3471 544.909C89.6671 529.739 81.3771 520.089 66.7671 521.449C61.437 521.949 55.917 523.059 51.007 525.199C42.377 528.969 33.8071 532.279 24.3571 532.909C12.0771 533.729 1.27705 539.019 -8.98295 545.839C-11.7829 547.699 -14.9929 548.869 -18.5929 550.639C-18.5929 547.049 -18.5929 544.559 -18.5929 542.479C-14.6529 541.049 -10.7629 540.069 -7.24295 538.289C4.00705 532.589 15.8271 528.939 28.0071 526.239C32.4271 525.259 36.937 523.869 40.9071 521.669C59.7771 511.219 79.707 511.839 99.897 514.879C104.697 515.599 106.227 517.709 106.187 522.899C106.167 526.489 106.147 530.189 105.327 533.639C101.967 547.849 100.977 562.209 103.287 576.599C104.977 587.109 102.687 596.869 100.197 606.759C97.7471 616.479 96.8671 626.319 99.1571 636.179C102.807 651.919 115.067 663.069 130.657 665.179C175.087 671.199 216.417 662.969 254.267 636.769C267.367 627.699 281.137 619.479 295.287 612.379C308.147 605.929 321.897 601.389 335.357 596.289C343.037 593.379 349.667 588.989 355.727 583.279C363.067 576.359 370.617 569.649 378.377 563.249C387.227 555.949 393.427 546.449 399.617 536.859C411.227 518.869 424.327 502.389 440.537 488.569C477.327 457.189 521.207 481.029 535.447 510.179C539.427 518.329 543.777 526.309 548.387 534.089C558.647 551.389 578.297 558.379 596.717 551.729C604.267 548.999 611.787 545.989 619.527 544.059C628.177 541.899 636.477 544.169 643.457 549.879C669.597 571.309 700.017 577.449 731.787 574.569C753.797 572.579 775.577 566.719 794.107 552.529C803.577 545.279 813.877 543.649 825.067 546.349C836.637 549.139 848.247 551.709 859.777 554.679C863.627 555.669 867.317 557.459 870.977 559.139C883.147 564.719 895.947 566.229 909.047 565.919C909.047 568.929 909.047 571.939 909.047 574.949L909.027 574.889Z" fill="#E3AECF"/>
<path d="M909.027 648.899C881.307 648.659 853.977 653.019 826.557 656.449C798.857 659.909 771.127 663.249 743.317 665.349C732.347 666.179 721.147 663.469 710.037 662.479C678.897 659.689 648.237 653.589 617.887 646.139C594.057 640.289 569.987 637.869 545.687 636.149C524.057 634.619 502.857 630.709 483.017 620.599C475.197 616.619 466.877 613.669 458.637 610.679C451.457 608.079 444.347 608.959 437.337 612.189C428.307 616.349 420.377 621.769 413.867 629.759C405.277 640.299 394.747 648.429 382.127 652.849C374.397 655.559 368.877 660.929 363.607 666.929C356.197 675.379 347.687 682.029 336.747 684.479C332.707 685.389 328.607 686.349 324.497 686.569C316.417 687.009 309.267 689.749 303.577 695.689C296.567 702.999 289.107 703.369 280.447 699.359C275.137 696.899 269.427 695.149 263.747 693.819C252.317 691.159 243.097 695.349 236.667 705.479C233.347 710.699 230.667 716.399 228.027 722.049C225.067 728.369 220.497 731.369 213.797 731.769C185.327 733.429 157.457 730.829 130.707 719.699C117.437 714.179 103.377 713.579 89.4571 712.069C71.4171 710.119 54.2171 705.829 39.9471 693.029C25.457 680.029 17.577 663.419 14.527 643.819C13.337 636.159 11.2771 628.589 8.95705 621.209C6.27705 612.679 0.54705 607.469 -8.27295 606.549C-11.6629 606.199 -15.0329 605.719 -18.6029 605.269C-18.6029 600.219 -18.6029 595.459 -18.6029 592.229C-13.5229 587.949 -9.09295 584.349 -4.80295 580.569C-0.87295 577.099 2.58705 572.959 6.78705 569.939C13.3771 565.209 19.747 567.039 22.207 574.919C24.9471 583.699 26.357 592.949 28.2571 602.019C29.267 606.859 29.6771 611.879 31.0971 616.569C34.6271 628.189 34.417 640.279 35.957 652.149C39.437 679.039 56.5571 697.399 82.0071 702.049C89.597 703.439 97.3471 704.459 105.027 704.489C119.497 704.539 133.327 707.839 147.297 711.279C167.947 716.369 188.947 719.139 210.287 717.639C216.297 717.219 220.987 714.809 224.607 709.849C226.527 707.229 228.597 704.729 230.517 702.109C240.537 688.459 253.637 684.259 269.367 688.079C271.037 688.489 272.747 688.779 274.357 689.369C284.247 692.979 293.337 692.239 301.667 684.839C305.947 681.039 311.447 681.129 316.797 681.049C323.077 680.949 329.437 681.099 335.617 680.119C345.047 678.629 352.407 673.009 358.597 665.489C365.507 657.109 373.017 649.239 379.507 640.519C383.027 635.789 385.207 629.879 387.547 624.299C389.737 619.089 391.087 613.499 393.287 608.299C396.077 601.689 401.197 597.769 407.937 596.319C410.877 595.689 413.947 595.579 416.797 594.679C421.397 593.229 426.287 592.029 430.307 589.439C436.837 585.229 443.397 584.589 450.447 586.679C462.547 590.259 473.847 595.849 484.127 603.309C506.607 619.639 531.917 625.749 558.617 627.189C576.187 628.139 593.797 628.449 611.347 629.789C618.967 630.369 626.587 632.349 633.987 634.519C661.027 642.439 688.797 645.079 716.557 648.039C746.767 651.269 776.547 648.119 806.217 642.319C835.397 636.609 864.917 633.889 894.507 632.189C899.277 631.919 904.187 634.219 909.037 635.339C909.037 639.849 909.037 644.369 909.037 648.879L909.027 648.899Z" fill="#E3AECF"/>
<path d="M909.027 222.899C907.667 223.209 906.117 223.179 904.987 223.889C892.697 231.629 879.687 230.939 867.367 225.439C851.467 218.349 835.477 212.609 818.177 210.659C812.247 209.989 806.517 206.759 800.857 204.279C788.557 198.899 783.407 199.799 774.997 210.709C770.337 216.749 766.337 223.409 762.477 230.069C757.877 237.989 752.467 244.999 745.437 250.719C741.267 254.109 737.307 257.869 733.737 261.939C728.827 267.539 722.917 269.319 715.977 268.769C701.287 267.609 686.577 266.659 671.907 265.369C665.937 264.839 660.037 263.509 654.087 262.759C647.007 261.859 639.917 260.719 632.817 260.559C626.417 260.419 621.547 258.149 617.577 252.959C611.147 244.539 605.257 235.449 597.797 228.159C587.367 217.959 575.837 208.969 564.517 199.809C556.377 193.219 547.107 189.889 536.567 190.009C527.157 190.109 517.667 189.739 508.337 188.529C496.587 187.009 485.237 188.729 473.937 191.409C455.267 195.829 436.547 200.049 419.537 209.979C411.097 214.899 404.137 221.239 398.517 229.439C387.337 245.769 374.717 260.629 358.727 272.029C348.597 279.259 337.537 283.839 325.337 285.079C307.547 286.879 293.967 278.489 283.157 264.629C275.557 254.879 268.787 244.419 261.417 234.459C244.797 211.989 222.147 215.369 203.567 227.549C199.157 230.439 197.987 235.329 197.767 240.479C197.557 245.129 197.717 249.819 197.157 254.419C196.177 262.339 192.347 264.729 185.117 262.089C181.357 260.709 177.797 258.719 174.097 257.129C165.387 253.369 156.657 249.639 147.907 245.989C140.347 242.829 132.217 240.749 125.257 236.519C108.927 226.609 91.667 224.879 73.787 228.639C55.337 232.529 37.1671 231.209 18.7871 228.329C7.50705 226.559 -4.00295 226.359 -15.4129 225.579C-17.8829 225.409 -18.8829 224.619 -18.8629 221.819C-18.7629 197.299 -18.7929 172.789 -18.7729 148.269C-18.7729 147.989 -18.6429 147.699 -18.5729 147.419C-18.3429 147.289 -18.1129 147.049 -17.8929 147.049C0.977051 147.659 2.48705 158.089 -1.76295 172.449C-3.96295 179.879 -7.26295 186.939 -9.96295 194.209C-11.6629 198.779 -10.6229 202.579 -6.98295 205.799C-0.532949 211.509 7.39705 213.679 15.2771 215.879C27.857 219.389 40.4871 223.409 53.6571 221.849C63.4271 220.689 73.0671 218.309 82.7271 216.269C98.9871 212.849 114.557 214.189 129.327 222.759C140.777 229.399 152.857 234.439 165.807 236.849C168.467 237.339 171.317 238.009 173.857 237.459C176.277 236.939 179.277 235.519 180.517 233.479C191.657 215.279 209.177 208.169 227.887 204.109C248.107 199.729 263.107 209.469 274.377 226.539C280.247 235.419 285.627 244.659 291.687 253.399C299.797 265.089 310.277 273.019 324.707 273.129C334.967 273.209 344.507 270.079 353.197 264.459C370.847 253.029 384.827 237.609 392.627 217.539C399.987 198.619 413.507 190.709 431.267 187.939C449.237 185.139 467.177 182.029 485.217 179.969C491.867 179.209 498.887 180.489 505.557 181.829C517.467 184.229 529.367 184.809 540.607 180.039C556.897 173.129 570.647 177.349 583.777 188.019C594.817 196.999 604.017 207.819 610.627 220.489C618.887 236.329 630.507 245.699 647.557 248.649C656.477 250.189 665.217 252.019 674.317 251.279C688.287 250.139 702.357 249.989 716.227 248.119C732.497 245.929 745.217 236.999 754.207 222.319C759.847 213.109 765.857 204.149 771.717 195.079C772.037 194.579 772.437 194.139 772.817 193.699C782.117 182.809 786.077 182.179 797.687 190.449C807.087 197.139 816.677 203.049 828.647 201.179C832.867 200.519 837.107 199.569 841.147 198.129C848.767 195.409 855.607 196.479 862.447 200.879C872.417 207.309 882.997 212.359 895.037 212.119C899.717 212.029 904.377 210.909 909.037 210.259C909.037 214.469 909.037 218.679 909.037 222.899H909.027Z" fill="#E3AECF"/>
<path d="M909.027 184.999C895.257 186.329 883.557 180.849 872.647 172.769C870.187 170.949 867.717 169.149 865.307 167.279C854.007 158.499 848.737 158.809 838.327 168.909C836.017 171.149 833.787 173.499 831.317 175.539C823.297 182.149 816.117 182.559 807.627 176.669C803.697 173.939 800.157 170.619 796.387 167.629C788.057 161.019 782.637 160.969 775.187 168.739C768.617 175.589 762.717 183.169 756.727 190.609C754.057 193.929 751.677 197.559 749.547 201.279C741.087 215.999 728.657 223.919 712.497 225.629C699.917 226.959 687.857 229.989 676.037 235.069C658.107 242.779 642.767 236.039 630.027 222.569C621.377 213.429 614.077 202.899 605.977 193.169C598.827 184.579 591.447 176.189 584.057 167.819C582.317 165.849 580.217 164.209 578.177 162.569C564.327 151.449 558.567 151.169 544.387 161.549C535.367 168.159 526.047 173.539 514.567 171.409C510.097 170.579 505.507 169.499 501.447 167.479C491.477 162.499 481.287 161.289 470.247 161.549C457.897 161.839 445.477 159.869 433.127 158.419C421.487 157.049 410.317 158.279 399.497 163.079C390.947 166.869 386.437 173.729 384.797 183.149C383.027 193.299 382.127 203.849 378.747 213.399C371.777 233.099 358.477 246.619 338.587 251.789C328.367 254.439 318.897 251.789 311.787 243.779C305.497 236.689 300.037 228.699 294.837 220.659C287.327 209.039 278.797 198.679 266.727 192.189C251.227 183.859 235.017 184.219 219.197 190.199C207.157 194.749 195.327 200.409 184.177 207.009C170.447 215.139 157.497 216.459 143.797 207.529C139.217 204.539 134.017 202.539 128.977 200.409C113.057 193.699 97.207 196.789 81.3671 201.039C72.6671 203.379 64.0071 206.039 55.1771 207.629C47.8771 208.939 40.6971 206.829 33.8271 203.959C23.9771 199.839 18.8471 192.299 18.8071 181.109C18.7771 172.389 19.2571 163.639 18.7871 154.949C18.477 149.179 17.387 143.319 15.747 137.799C13.5571 130.449 8.03705 126.879 0.827051 126.299C-5.57295 125.779 -11.9729 125.389 -18.6029 124.929C-18.6029 120.449 -18.6029 116.479 -18.6029 113.599C-12.6129 113.599 -6.79295 113.839 -0.982948 113.549C14.7871 112.769 21.7371 117.799 24.8771 134.289C26.997 145.439 27.777 156.869 29.187 168.159C29.537 170.989 29.8971 173.829 30.497 176.599C34.027 192.929 46.5871 200.539 63.3471 196.169C73.3271 193.559 83.1271 190.219 93.0571 187.409C110.617 182.449 127.617 183.559 143.827 192.849C146.327 194.279 149.137 195.129 151.647 196.549C161.497 202.109 171.327 201.629 181.397 197.119C193.747 191.589 206.037 185.769 218.697 181.149C234.107 175.519 250.057 173.919 265.847 179.689C281.077 185.249 294.507 194.239 305.377 206.719C309.277 211.199 311.397 217.499 313.877 223.199C320.987 239.499 337.877 245.009 352.187 235.209C355.607 232.869 358.887 229.899 361.347 226.509C371.187 212.899 375.317 197.519 373.377 180.399C372.827 175.519 372.097 170.429 372.817 165.669C374.267 156.029 379.667 149.159 388.177 144.839C403.897 136.869 420.127 135.219 437.087 139.279C451.327 142.689 465.657 145.359 480.377 145.569C484.747 145.629 489.197 147.819 493.397 149.589C497.497 151.319 501.307 153.779 505.267 155.879C515.987 161.539 526.257 160.549 536.087 153.489C539.987 150.689 543.787 147.729 547.787 145.089C553.687 141.199 560.057 140.279 566.047 144.339C573.697 149.529 581.767 154.499 588.197 161.119C603.407 176.769 618.707 192.369 631.717 210.269C636.137 216.349 641.937 221.639 647.937 226.039C654.907 231.149 663.097 231.139 670.967 227.749C675.047 225.989 679.157 224.009 682.747 221.379C690.567 215.649 698.957 211.979 708.517 211.289C710.787 211.129 713.017 210.389 715.277 210.079C727.657 208.409 736.707 201.449 744.487 191.429C753.317 180.039 762.897 169.279 772.417 158.509C779.777 150.179 789.027 146.559 799.927 147.869C807.617 148.799 814.677 146.879 821.117 142.339C823.247 140.839 825.527 139.549 827.807 138.289C838.017 132.659 848.217 132.699 858.017 139.159C865.767 144.269 873.167 149.959 880.797 155.279C889.317 161.209 898.447 165.199 908.967 164.289C908.967 171.209 908.967 178.129 908.967 185.049L909.027 184.999Z" fill="#E3AECF"/>
<path d="M909.027 305.939C905.537 309.579 901.857 313.059 898.587 316.909C894.597 321.619 891.067 326.749 887.137 331.519C882.697 336.919 877.187 339.479 870.137 339.419C859.567 339.329 848.957 339.599 838.437 340.609C821.807 342.199 807.657 351.269 792.747 358.179C772.247 367.669 752.437 379.119 730.467 384.759C698.187 393.039 666.437 391.909 635.277 378.759C624.017 374.009 612.567 369.479 599.927 371.079C590.557 372.259 581.167 373.429 571.757 374.059C549.417 375.569 527.807 372.109 507.607 361.659C484.757 349.839 472.217 329.249 464.987 304.459C463.147 298.139 461.597 291.729 459.787 285.399C459.047 282.819 458.167 280.239 456.987 277.849C454.077 271.969 450.017 270.829 444.587 274.249C438.077 278.359 433.727 284.659 430.797 291.649C425.857 303.439 421.477 315.519 417.327 327.649C412.847 340.739 405.437 350.469 392.997 356.259C363.707 369.889 334.717 384.219 305.397 397.789C297.737 401.339 289.417 403.469 281.247 405.569C275.847 406.959 271.447 409.519 267.727 413.689C263.817 418.079 260.087 422.689 255.887 426.749C244.587 437.679 231.877 438.259 219.947 428.039C214.327 423.219 209.397 417.479 204.337 411.969C200.027 407.289 195.127 404.149 188.907 402.969C167.877 398.959 147.317 393.309 127.777 383.889C118.067 379.209 107.607 376.919 96.8971 377.209C59.6371 378.189 24.857 366.999 -9.50295 353.719C-18.9429 350.029 -18.8329 349.699 -18.8329 339.069C-18.8329 335.069 -18.8329 331.079 -18.8329 326.129C-13.4829 329.259 -9.02295 332.119 -4.34295 334.559C16.4671 345.399 37.8971 354.949 60.5771 360.109C72.4171 362.799 85.0471 362.559 97.2771 362.229C113.097 361.789 127.717 365.229 142.267 371.599C154.597 376.999 167.547 381.249 180.587 384.329C191.057 386.799 199.027 391.849 205.267 400.669C209.537 406.689 213.897 412.639 218.347 418.509C219.757 420.379 221.507 421.999 223.227 423.569C233.647 433.059 245.657 431.819 253.367 419.779C257.397 413.479 260.487 406.449 263.467 399.489C266.727 391.869 271.427 387.449 279.537 385.089C318.787 373.719 357.027 359.449 392.707 338.399C401.257 333.359 406.427 325.489 410.517 316.539C416.637 303.159 422.227 289.469 429.037 276.499C434.697 265.719 442.907 257.019 453.977 251.959C455.797 251.129 457.757 250.489 459.717 250.179C467.627 248.929 473.037 252.499 474.417 260.799C475.687 268.469 476.127 276.319 476.637 284.109C477.477 296.779 479.417 309.169 484.177 320.929C493.707 344.489 511.417 357.219 534.527 362.759C555.807 367.859 576.837 365.619 597.797 360.519C608.837 357.829 619.887 355.069 631.027 360.289C634.807 362.059 638.867 363.169 642.677 364.879C668.817 376.639 695.807 376.769 723.167 371.429C743.997 367.369 763.767 359.959 782.257 349.139C789.977 344.619 797.057 338.889 804.447 333.739C814.147 326.999 824.737 323.959 836.447 323.729C850.157 323.459 863.897 322.499 877.537 320.909C881.887 320.399 886.367 317.559 890.007 314.689C895.357 310.459 899.937 305.179 904.977 300.509C906.017 299.549 907.647 299.299 909.007 298.719C909.007 301.129 909.007 303.529 909.007 305.939H909.027Z" fill="#E3AECF"/>
<path d="M909.027 333.909C907.887 335.349 906.337 336.619 905.677 338.269C900.847 350.269 896.357 362.419 891.417 374.369C889.847 378.169 887.527 381.719 885.067 384.989C881.357 389.909 876.557 390.759 870.817 388.779C861.467 385.559 852.097 381.999 842.467 380.119C824.497 376.619 806.827 379.239 789.857 386.269C767.937 395.359 749.067 409.779 730.797 424.979C725.157 429.669 721.127 436.429 716.027 441.899C710.417 447.919 704.057 453.459 695.367 451.119C691.007 449.939 686.847 447.019 683.197 444.059C679.377 440.969 676.207 436.969 672.867 433.249C668.587 428.479 663.467 425.929 657.277 424.609C645.097 422.019 632.817 419.449 621.047 415.389C593.517 405.889 565.197 400.069 536.997 393.539C513.467 388.089 490.957 379.499 469.467 367.969C465.297 365.729 460.777 364.129 456.297 362.649C451.737 361.139 447.197 362.109 443.927 365.679C433.847 376.699 421.297 383.109 408.057 388.809C395.897 394.049 383.877 399.889 372.497 406.749C364.157 411.779 356.697 418.569 349.277 425.119C339.187 434.019 329.677 443.839 316.967 448.559C300.477 454.679 283.347 456.869 265.887 456.209C260.167 455.989 254.447 455.609 248.737 455.669C224.987 455.929 201.747 453.179 179.017 445.259C164.947 440.359 150.277 437.359 136.007 433.029C128.467 430.739 120.847 428.179 113.917 424.419C95.897 414.649 76.5871 410.239 56.7371 407.939C36.6971 405.629 16.6071 403.829 -3.46295 401.769C-6.59295 401.449 -9.72295 401.019 -12.8229 400.449C-16.6729 399.739 -18.7329 397.199 -18.8129 393.069C-18.8829 389.179 -18.8329 385.289 -18.8329 381.319C-10.7529 382.789 -3.06295 384.359 4.67705 385.569C33.2371 390.039 61.8471 394.199 90.3771 398.929C97.9471 400.179 105.717 402.039 112.657 405.329C133.657 415.279 155.857 421.079 177.857 427.679C192.547 432.079 207.137 436.829 221.647 441.839C232.337 445.529 242.897 446.039 253.587 442.349C264.487 438.579 275.527 435.949 287.107 435.389C304.997 434.519 320.687 427.029 334.607 415.519C347.527 404.829 361.757 396.689 376.697 389.639C388.047 384.279 399.057 378.139 410.337 372.619C422.087 366.869 427.607 356.199 431.807 344.179C433.467 339.429 435.607 334.809 438.047 330.449C440.317 326.389 443.917 325.469 447.527 328.289C451.617 331.489 455.527 335.159 458.797 339.259C480.437 366.379 509.107 379.649 541.417 385.229C555.907 387.729 570.657 388.669 585.317 389.859C598.327 390.909 610.447 395.249 622.757 399.269C635.697 403.499 648.827 407.159 662.047 410.269C669.647 412.059 676.587 414.639 682.517 419.939C695.657 431.689 702.177 430.209 714.997 418.599C719.287 414.709 724.157 411.359 729.147 408.509C743.567 400.269 758.087 392.189 772.757 384.439C793.557 373.449 815.427 365.909 838.957 366.629C849.157 366.939 859.387 369.219 869.407 371.519C876.747 373.209 882.327 371.489 885.987 364.909C890.227 357.279 893.807 349.249 897.627 341.369C900.287 335.889 902.777 330.319 905.557 324.909C906.297 323.469 907.847 322.489 909.027 321.299C909.027 325.509 909.027 329.719 909.027 333.939V333.909Z" fill="#E3AECF"/>
<path d="M909.027 876.329C853.777 877.349 798.527 878.529 743.267 879.309C724.097 879.579 704.897 879.239 685.727 878.499C671.307 877.939 657.647 881.639 643.857 884.879C614.557 891.759 585.867 889.759 557.997 877.989C552.787 875.789 547.537 872.769 543.387 868.869C531.887 858.059 518.707 850.659 504.497 844.709C494.977 840.719 485.757 835.889 476.527 831.179C468.787 827.229 461.037 823.579 452.257 822.959C441.517 822.199 433.437 826.959 427.247 835.759C424.017 840.349 421.467 845.549 417.797 849.689C414.807 853.059 410.967 856.529 406.897 857.769C383.837 864.799 360.697 871.609 337.387 877.639C311.167 884.429 284.867 890.979 258.357 896.319C244.107 899.189 229.377 899.719 214.817 900.579C193.677 901.819 172.497 902.129 151.357 903.369C139.897 904.039 128.857 906.839 118.567 912.819C109.577 918.039 100.117 922.219 89.477 922.449C80.8171 922.629 72.987 920.079 66.3171 914.569C51.9371 902.699 37.7671 890.539 23.6571 878.309C19.1471 874.399 15.1371 869.839 10.847 865.629C2.46705 857.419 -6.66295 850.579 -18.5429 848.469C-18.5429 841.959 -18.5429 835.589 -18.5429 828.869C-6.70295 829.759 3.22705 834.939 11.257 843.389C20.837 853.479 29.1871 864.879 38.8971 874.819C47.9471 884.089 56.167 893.849 63.657 904.569C73.637 918.859 86.557 922.439 102.317 916.129C108.667 913.589 114.947 910.339 120.567 906.349C132.557 897.829 145.817 894.579 159.927 894.309C219.827 893.149 278.327 883.979 334.907 862.349C356.397 854.129 378.507 847.699 398.507 835.649C404.327 832.149 410.217 828.699 415.647 824.589C427.397 815.679 440.437 811.229 454.807 810.469C463.017 810.039 471.047 808.669 478.167 803.869C478.407 803.709 478.667 803.579 478.927 803.459C494.327 796.269 498.847 797.349 506.627 811.749C515.687 828.509 528.237 841.939 542.637 853.629C556.967 865.259 573.477 871.059 591.147 873.599C611.417 876.519 631.487 874.809 651.017 868.729C668.077 863.419 685.047 861.369 702.987 862.329C728.817 863.699 754.777 862.769 780.677 862.149C823.467 861.139 866.247 859.589 909.027 858.269C909.027 864.289 909.027 870.299 909.027 876.319V876.329Z" fill="#E3AECF"/>
<path d="M909.027 63.149C906.207 63.459 903.387 63.799 900.567 64.059C882.907 65.689 865.097 66.259 847.637 69.169C823.437 73.209 802.287 85.319 782.717 100.489C770.637 109.859 758.457 119.109 746.687 128.899C740.227 134.269 733.867 140.079 728.597 146.679C714.987 163.739 698.357 168.309 678.567 161.749C645.677 150.839 614.767 136.269 586.527 114.669C559.307 93.849 529.297 77.009 496.977 66.679C453.847 52.889 411.157 56.159 371.687 80.219C350.837 92.929 331.317 108.229 314.527 126.789C307.947 134.069 300.137 137.799 290.607 138.199C274.747 138.869 258.847 139.239 243.057 140.859C230.147 142.179 217.377 145.059 204.567 147.399C195.617 149.029 186.897 148.679 178.477 144.859C168.377 140.289 157.977 136.289 148.307 130.859C137.147 124.589 126.017 123.849 114.327 127.859C106.307 130.609 98.3771 133.649 90.3771 136.459C87.1271 137.599 83.8271 138.649 80.4871 139.429C67.5871 142.419 58.6471 138.059 54.2371 124.939C49.4971 110.839 46.397 96.139 42.047 81.889C36.727 64.479 31.6271 46.929 25.0071 30.049C18.0771 12.349 5.82705 -0.41101 -12.3029 -5.84101C-12.6729 -5.95101 -12.9829 -6.30101 -14.2829 -7.21101C-8.26295 -9.47101 2.27705 -12.191 12.107 -7.13101C12.3071 -7.03101 13.5771 -6.37101 14.9671 -5.40101C29.767 4.84899 38.5771 33.879 38.5771 33.879C43.5871 50.389 47.1471 71.119 52.5471 92.789C54.567 100.879 57.0471 108.949 60.3771 116.529C65.2271 127.579 72.8371 130.999 84.0271 127.529C90.5671 125.499 96.7471 122.209 103.137 119.609C109.397 117.059 115.647 114.459 122.027 112.259C131.047 109.139 139.697 110.429 148.227 114.809C157.597 119.609 167.197 123.909 176.747 128.309C190.597 134.689 204.857 136.559 219.917 133.779C239.207 130.219 258.657 127.589 278.017 124.399C287.487 122.839 296.287 119.109 304.067 113.279C320.247 101.149 336.327 88.859 352.277 76.389C382.217 52.979 415.657 39.989 453.047 39.249C477.777 38.759 500.477 47.039 521.547 59.949C545.777 74.789 569.717 90.159 593.527 105.739C610.687 116.969 627.817 128.049 647.327 134.439C651.177 135.699 654.657 138.419 658.077 140.839C667.587 147.549 677.087 154.199 688.387 157.229C702.507 161.009 714.567 156.749 721.157 143.119C727.287 130.449 736.417 121.949 747.347 114.359C764.517 102.429 780.727 88.939 798.147 77.439C830.247 56.239 865.467 44.649 903.517 43.109C905.357 43.039 907.197 42.649 909.037 42.409C909.037 49.329 909.037 56.249 909.037 63.169L909.027 63.149Z" fill="#E3AECF"/>
<path d="M909.027 538.789C893.867 537.989 881.307 532.799 873.697 517.649C870.387 511.069 865.797 505.169 861.537 499.149C853.357 487.589 844.997 476.159 836.707 464.679C836.107 463.839 835.497 462.999 834.937 462.129C815.447 431.909 790.797 437.869 773.017 455.059C763.637 464.129 755.657 474.999 748.027 485.819C740.187 496.939 729.977 503.339 717.337 503.989C698.937 504.929 680.447 505.069 662.057 504.229C654.417 503.879 646.887 500.249 639.357 497.919C629.357 494.829 619.517 491.049 609.397 488.499C595.487 484.989 583.007 478.789 571.857 469.469C558.527 458.339 545.157 447.289 529.647 439.539C503.897 426.659 476.917 420.989 448.747 427.049C424.407 432.289 402.777 443.319 387.257 464.959C381.067 473.599 374.637 482.069 367.947 490.279C355.337 505.769 339.057 516.019 322.097 525.399C309.827 532.179 297.987 539.829 285.907 546.979C279.077 551.019 274.587 557.269 270.077 563.779C260.757 577.249 251.997 591.409 241.067 603.329C223.357 622.649 201.547 635.359 175.857 639.289C170.727 640.069 165.267 639.649 160.107 638.779C153.017 637.579 150.597 632.989 153.187 625.979C155.197 620.539 157.927 615.389 160.487 610.189C168.557 593.769 176.877 577.479 184.767 560.959C195.557 538.369 191.257 509.039 175.087 493.359C164.477 483.079 151.677 477.679 137.687 474.629C121.727 471.149 106.497 474.779 91.1271 478.479C86.0271 479.709 80.517 480.499 75.3871 479.819C60.2171 477.809 45.8871 481.269 31.3471 484.959C15.9271 488.869 0.227051 491.539 -15.363 494.709C-16.293 494.899 -17.2929 494.729 -18.5529 494.729C-18.5529 487.489 -18.5529 480.489 -18.5529 472.679C-6.80295 471.379 5.16705 469.859 17.177 468.769C28.437 467.749 39.717 466.809 51.007 466.549C58.387 466.379 65.8771 466.909 73.147 468.189C84.687 470.219 95.9171 468.079 107.297 467.099C131.527 464.999 154.567 468.849 175.287 483.399C192.197 495.269 199.727 511.999 199.817 533.089C199.897 552.679 195.177 570.749 185.987 587.719C182.027 595.019 178.607 602.639 175.107 610.209C174.057 612.479 173.377 615.009 172.917 617.489C171.767 623.789 174.217 626.969 180.297 627.329C187.677 627.769 194.367 625.139 200.897 621.989C228.597 608.619 249.147 587.329 262.917 558.959C267.557 549.399 274.287 543.009 283.437 538.929C294.187 534.129 303.637 527.239 312.737 519.569C318.607 514.619 325.187 510.499 331.767 506.589C347.707 497.129 361.137 484.709 372.477 469.709C375.417 465.829 378.447 462.019 381.347 458.099C399.097 434.059 423.977 424.029 451.337 419.679C490.007 413.529 524.057 427.029 555.927 448.559C562.657 453.109 569.167 458.009 575.737 462.809C586.717 470.829 598.737 476.009 611.927 478.479C628.657 481.619 645.217 486.269 662.067 488.129C678.627 489.949 695.417 491.179 712.167 488.369C725.177 486.189 736.507 481.549 745.107 470.319C753.877 458.849 763.017 447.609 774.507 438.869C782.717 432.629 791.557 427.769 801.647 426.059C819.127 423.099 832.897 429.959 842.937 444.789C849.637 454.689 855.317 465.339 861.767 475.429C869.887 488.129 878.307 500.619 886.647 513.159C892.067 521.319 900.117 523.809 909.027 524.329C909.027 529.139 909.027 533.959 909.027 538.769V538.789Z" fill="#E3AECF"/>
<path d="M909.027 694.929C898.457 695.059 887.877 694.909 877.327 695.389C862.587 696.069 848.037 698.099 833.597 701.719C826.517 703.499 818.807 703.479 811.467 702.949C797.747 701.959 784.227 703.019 770.957 706.359C753.217 710.819 736.067 709.989 718.497 704.519C699.057 698.469 679.137 694.059 659.367 689.209C636.437 683.589 614.457 674.939 592.917 665.289C577.437 658.359 561.457 654.889 544.997 654.549C525.427 654.139 505.837 655.329 486.247 655.749C481.677 655.849 477.067 655.979 472.527 655.519C462.677 654.499 453.257 655.909 443.717 658.679C427.597 663.349 411.257 667.209 394.977 671.229C382.617 674.269 370.847 678.649 360.197 686.099C356.637 688.589 352.857 690.889 348.897 692.549C333.877 698.839 321.987 709.429 311.317 721.829C309.497 723.949 307.497 725.889 305.627 727.969C299.877 734.359 292.807 737.339 284.467 737.129C283.037 737.089 281.597 737.259 280.177 737.129C271.087 736.319 264.367 740.369 259.677 748.309C252.327 760.759 241.707 767.709 227.967 769.649C224.567 770.129 221.187 770.799 217.787 771.279C206.737 772.829 195.707 775.279 184.627 775.629C169.447 776.099 155.547 769.679 141.807 763.649C133.637 760.059 125.497 756.179 117.847 751.519C101.667 741.659 84.2771 735.739 66.0671 731.839C46.3171 727.619 27.557 720.699 13.4771 704.619C5.27705 695.249 -2.01295 684.999 -9.60295 675.049C-12.5429 671.199 -15.2129 667.129 -17.9629 663.129C-18.3529 662.559 -18.7929 661.839 -18.8029 661.189C-18.8629 652.989 -18.8429 644.789 -18.8429 636.589C-18.4729 636.389 -18.1029 636.189 -17.7329 635.989C-15.9529 637.959 -13.7729 639.679 -12.4829 641.969C-9.51295 647.259 -6.68295 652.679 -4.33295 658.289C4.76705 679.989 17.5571 698.429 37.2171 710.819C49.0771 718.289 62.357 721.549 75.797 723.689C94.8871 726.719 112.967 732.179 130.317 741.549C152.037 753.279 175.477 758.459 200.117 755.989C206.817 755.319 213.537 754.989 220.247 754.459C233.437 753.409 238.687 748.749 242.307 735.319C243.817 729.699 245.297 724.009 247.517 718.679C250.957 710.429 257.047 707.159 265.297 709.379C270.927 710.889 276.467 713.219 281.677 715.959C291.077 720.899 299.257 720.359 306.397 711.719C307.517 710.369 308.967 709.319 310.147 708.019C317.547 699.909 326.367 694.409 336.737 691.489C346.097 688.859 354.687 684.299 362.177 677.889C371.557 669.869 382.287 665.669 393.987 663.139C410.407 659.589 426.527 655.019 440.907 645.259C449.297 639.569 458.917 638.709 468.277 641.189C491.607 647.349 515.477 646.179 539.127 647.989C558.357 649.469 577.657 650.049 596.097 657.419C607.297 661.899 618.777 665.939 630.437 668.729C655.947 674.829 681.657 680.009 707.287 685.579C712.607 686.739 717.977 687.719 723.227 689.159C734.367 692.199 745.547 692.179 756.897 690.769C780.627 687.819 804.367 684.929 828.137 682.409C849.347 680.159 870.597 678.359 891.847 676.529C897.547 676.039 903.287 676.159 909.017 675.999C909.017 682.319 909.017 688.639 909.017 694.949L909.027 694.929Z" fill="#E3AECF"/>
<path d="M-18.6129 290.329C-18.6129 284.999 -18.6129 279.949 -18.6129 273.659C-6.02295 275.239 6.34705 276.289 18.5271 278.499C28.1071 280.239 36.3771 285.619 43.9771 291.949C48.907 296.059 53.837 300.169 58.757 304.289C69.197 313.039 81.057 317.629 94.437 317.749C99.447 317.799 104.457 317.899 109.467 317.799C119.627 317.599 129.407 319.279 138.757 323.579C153.417 330.329 168.117 336.999 182.787 343.719C196.437 349.969 206.977 360.069 215.557 372.669C218.797 377.429 222.117 382.189 225.887 386.469C227.647 388.469 231.237 391.029 232.787 390.339C234.917 389.399 236.757 385.749 237.207 382.999C238.697 373.819 239.337 364.489 240.647 355.279C241.317 350.569 242.417 345.859 243.887 341.349C245.817 335.439 250.317 332.479 256.107 332.489C265.537 332.509 274.967 332.849 284.387 333.339C317.227 335.039 347.307 327.309 375.057 307.849C391.457 296.349 403.887 281.729 415.177 265.289C429.087 245.049 446.857 229.959 469.997 222.609C479.287 219.659 488.787 218.169 498.377 219.559C515.837 222.099 526.477 234.439 526.557 253.509C526.617 265.749 524.647 278.009 523.627 290.259C523.277 294.449 522.847 298.649 522.797 302.849C522.577 321.129 532.757 333.919 549.897 337.519C564.637 340.619 579.017 338.399 593.137 334.159C603.157 331.149 612.987 327.379 622.757 323.549C630.537 320.499 637.747 320.429 645.537 324.169C662.847 332.489 681.137 336.049 700.257 334.979C711.537 334.349 722.877 334.869 734.137 334.019C747.357 333.019 758.057 326.529 766.097 315.329C771.787 307.409 777.217 299.099 785.657 294.099C791.097 290.879 796.907 288.239 802.737 285.849C807.437 283.919 812.047 284.999 816.087 288.279C817.787 289.659 819.577 290.929 821.177 292.419C833.357 303.709 846.767 304.579 861.057 297.589C869.857 293.279 878.487 288.579 887.387 284.519C893.497 281.739 899.927 279.749 906.157 277.429C905.087 283.299 904.747 290.239 897.337 293.059C886.627 297.139 875.967 301.389 865.167 305.199C859.787 307.099 854.197 308.479 848.607 309.529C840.487 311.059 832.397 309.699 825.237 305.749C812.127 298.529 800.937 301.949 790.417 311.159C785.257 315.679 780.167 320.309 775.317 325.199C766.537 334.049 756.427 340.499 744.547 343.099C730.567 346.149 716.507 349.169 702.337 350.839C680.457 353.429 659.657 348.079 639.817 338.489C633.047 335.219 626.417 335.149 619.377 337.319C605.407 341.629 591.497 346.339 577.287 349.509C563.017 352.699 548.537 352.069 534.517 346.889C515.377 339.829 505.387 325.059 503.777 304.409C503.017 294.629 504.467 284.639 505.037 274.759C505.457 267.419 506.657 260.069 506.457 252.759C505.917 232.839 492.777 226.949 477.677 228.819C454.317 231.709 436.877 245.279 423.447 264.749C416.157 275.309 409.907 286.659 403.127 297.609C398.597 304.919 392.707 310.689 385.407 314.939C374.657 321.199 364.267 328.209 353.217 333.789C337.787 341.589 321.077 345.439 304.287 348.549C292.597 350.719 280.867 352.759 269.107 354.439C262.137 355.439 257.517 359.119 256.027 366.119C253.987 375.759 252.887 385.629 250.867 395.279C249.627 401.209 248.057 407.259 245.467 412.639C242.037 419.769 234.807 421.169 229.367 415.529C224.257 410.219 220.207 403.739 215.977 397.559C212.387 392.329 209.227 386.769 205.827 381.399C198.117 369.209 187.007 362.079 174.087 357.309C164.117 353.629 154.267 349.509 144.607 344.999C133.437 339.779 122.027 336.509 109.697 337.319C103.127 337.749 96.547 337.969 89.967 338.249C72.217 338.999 56.4871 333.359 42.3471 322.139C33.7971 315.359 24.8771 309.089 16.1271 302.589C7.49705 296.189 -2.26295 293.029 -12.5929 291.469C-14.5529 291.179 -16.4829 290.709 -18.5829 290.299L-18.6129 290.329Z" fill="#E3AECF"/>
</g>
</g>
</g>
<defs>
<clipPath id="clip0_2_21">
<rect width="890" height="862.71" fill="white"/>
</clipPath>
</defs>
</svg>
