<svg xmlns="http://www.w3.org/2000/svg" width="860" height="754" viewBox="0 0 860 754" fill="none">
<g style="mix-blend-mode:multiply" opacity="0.4">
<path d="M263.59 -89.47C263.88 -88.66 264.07 -87.8 264.48 -87.05C272.89 -71.91 281.39 -56.8 289.72 -41.62C291.31 -38.73 292.47 -35.58 293.46 -32.45C295.89 -24.79 293.82 -18.3 287.2 -13.32C284.5 -11.29 281.6 -9.48001 278.66 -7.76001C265.43 -0.0200119 261.25 13.89 268.95 26.91C272.01 32.09 276.91 36.26 280.2 41.34C286.48 51.05 295.84 56.07 306.71 59.99C328.7 67.92 335.56 80.22 328.27 101.4C322.89 117.02 319.49 132.73 317.48 148.96C316.54 156.55 313.76 163.98 311.27 171.32C309.29 177.18 309.62 182.67 311.15 188.57C315.52 205.35 319.48 222.22 323.43 239.09C324.07 241.84 324.07 244.78 323.98 247.63C323.68 257.96 318.38 263.69 307.48 264.41C297.16 265.09 286.77 264.78 276.42 265.14C264.7 265.55 253.53 268.09 243.19 273.56C226.41 282.44 218.19 296.41 217.64 314.25C216.64 346.46 229.23 374 251.59 397.58C259.52 405.94 268.97 412.98 277.31 421.02C293.31 436.46 308.26 452.85 317.09 473.12C327.25 496.45 327.82 519.99 316.49 543.46C311.23 554.35 306.7 565.6 302.49 576.9C299 586.28 301.06 595.12 307.22 603.25C310.38 607.41 312.91 612.01 315.66 616.44C325.03 631.56 324.45 646.6 315.31 661.63C311.4 668.07 307.14 674.39 304.05 681.19C299.53 691.13 295.89 701.43 291.93 711.6C288.23 721.11 285.04 730.82 280.84 740.12C275.54 751.84 273.44 764.23 270.89 776.57C267.01 795.33 265.29 814.22 266.35 833.33C266.43 834.85 266.22 836.39 266.14 838.13C262.24 838.13 258.7 838.13 255.02 838.13C255.02 826.69 254.55 815.28 255.13 803.92C255.95 787.8 258.49 771.71 258.55 755.61C258.63 735.3 264.29 716.67 273.04 698.53C276.36 691.64 278.99 684.45 282.45 677.63C287.4 667.88 292.38 658.1 298.13 648.77C308.4 632.13 303.6 615.63 285.43 607.15C281.25 605.2 276.96 603.45 272.91 601.28C264.87 596.97 262.14 590.43 266.87 582.94C272.4 574.19 279.34 566.24 285.86 558.08C290.95 551.7 296.74 545.81 301.49 539.22C318.29 515.9 316.54 491.66 303.48 467.75C292.76 448.11 277.18 431.8 259.83 417.31C231.21 393.41 216.06 363.04 210.55 327.83C208.58 315.26 209.79 302.7 213.44 290.45C216.87 278.93 224.65 270.4 234.65 263.49C247.48 254.62 262.33 250.63 277.46 247.26C281.11 246.45 284.77 245.53 288.24 244.22C296.44 241.12 298.45 237.79 297.83 229.36C297.38 223.24 295.88 216.95 296.83 211.03C298.34 201.59 297.72 192.71 295.13 183.54C293.95 179.36 294.82 174.47 295.54 170.01C297.42 158.29 299.44 146.58 301.97 134.98C303.48 128.05 305.82 121.25 308.23 114.54C310.9 107.13 314.8 100.06 316.86 92.52C319.49 82.9 315.72 76.09 306.17 71.92C300.07 69.25 293.38 67.81 287.18 65.3C283.12 63.65 279.12 61.48 275.72 58.82C269.24 53.76 263.42 47.92 256.93 42.87C242.87 31.96 239.83 23.18 245.11 6.66C248.64 -4.37 252.98 -15.04 261.85 -23.35C269.39 -30.42 270 -38.82 267.61 -47.96C264.13 -61.29 261.14 -74.78 251.91 -85.97C251.19 -86.85 251.24 -88.31 250.94 -89.51C255.15 -89.51 259.36 -89.51 263.58 -89.51L263.59 -89.47Z" fill="#d278ec"/>
<path d="M568.65 -89.47C567.93 -83.24 567.53 -76.95 566.42 -70.78C564.52 -60.21 557.76 -52.19 550.57 -44.37C547.74 -41.29 545.64 -37.59 543.22 -34.17C536.62 -24.8 530.07 -15.41 523.42 -6.06997C519.8 -0.979965 515.6 3.78003 512.41 9.09003C505.98 19.78 507.54 28.94 517.18 37.2C521.6 40.99 526.44 44.62 531.69 47.21C546.13 54.34 553.76 65.82 557.75 80.39C564.48 105 561.96 129.29 554.94 153.25C552.99 159.89 548.63 166.35 543.89 171.7C531.72 185.44 523.74 200.78 521.03 218.54C519.07 231.4 511.17 241.29 503.58 251.47C494.46 263.71 484.57 275.64 477.22 288.82C463.12 314.12 459.82 341 470.42 368.4C476.88 385.1 488.69 398.18 503.63 408.69C515.47 417.02 527.5 425.1 539.33 433.46C560.86 448.66 575.72 468.75 582.67 493.13C590.15 519.37 606.04 540.28 624.71 559.71C642.87 578.61 656.68 599.74 663.66 624.55C669.67 645.92 671.18 667.74 666.92 689.52C663.83 705.29 650.58 712.54 634.54 707.74C627.47 705.63 620.52 702.41 614.33 698.52C602.69 691.21 590.48 687.52 576.45 688.78C568.03 689.53 559.31 689.12 552.06 684.42C547.05 681.17 542.71 676.86 538.53 672.62C527.97 661.9 517.31 662.45 508.94 674.83C502.44 684.44 500.39 695.16 504.32 706.06C509.69 720.97 511.55 736.26 513.03 751.85C513.88 760.75 517.88 769.42 520.76 778.11C526.52 795.52 532.53 812.85 538.27 830.26C539.05 832.63 538.82 835.29 539.09 838.13C535.39 838.13 532.16 838.13 528.93 838.13C526.17 813.13 514.65 790.49 507.84 766.59C506.05 760.31 504.89 753.73 504.58 747.24C503.97 734.68 500.9 722.74 497.01 710.81C490.52 690.91 495.09 672.84 509.29 657.29C521.5 643.93 538.06 642.28 553.36 652.34C561.65 657.79 569.55 663.81 579.59 666.19C584.11 667.26 588.67 668.18 593.18 669.29C602.65 671.63 610.88 676.21 618.72 681.7C624.75 685.92 630.9 690.16 637.54 693.38C648.96 698.93 658.39 694.93 660.51 683.03C662.26 673.25 662.87 663.07 662.25 653.17C660.53 625.71 650.01 601.06 631.77 579.93C622.19 568.83 610.27 559.57 599.76 549.15C591.56 541.01 583.6 532.61 576.18 523.83C572.87 519.92 570.66 514.96 568.81 510.18C563.1 495.39 557.39 480.65 548.57 467.18C536.32 448.48 518.51 435.36 499.82 423.24C484.13 413.06 470.61 401.05 462.29 384.63C443.8 348.15 446.07 312.27 467.79 277.77C475.09 266.17 484.37 255.69 492.92 244.82C501.3 234.18 507.88 222.72 511.78 209.9C515.84 196.59 522.09 184.28 530.55 172.98C537.9 163.17 541.84 152.16 542.57 140.18C543.26 128.75 544.11 117.31 544.01 105.87C543.81 82.96 534.78 64.99 511.84 54.6C503.34 50.75 495.87 44.99 490.02 37.67C482.35 28.07 481.52 18.22 488.63 8.28003C492.57 2.77003 497.66 -2.00997 502.4 -6.96997C511.79 -16.8 521.27 -26.56 530.78 -36.29C534.05 -39.64 537.16 -43.29 541 -45.94C556.68 -56.73 562.62 -71.66 562.37 -89.44C564.48 -89.44 566.58 -89.44 568.69 -89.44L568.65 -89.47Z" fill="#d278ec"/>
<path d="M136.34 -89.47C135.7 -85.13 135.69 -80.6 134.29 -76.5C131.36 -67.95 127.79 -59.58 124.3 -51.21C116.2 -31.81 113.65 -12.24 124.25 6.93003C130.88 18.91 137.99 30.84 146.54 41.6C156.02 53.52 166.56 64.93 178.14 75.02C192.06 87.16 199.76 101.42 201.15 119.06C201.64 125.32 204.43 130.56 208.3 135.46C211.47 139.46 214.7 143.43 217.55 147.63C223.04 155.74 222.57 163.84 215.46 170.76C210.46 175.63 204.42 179.52 198.97 183.99C195.68 186.69 192.34 189.42 189.55 192.56C177.72 205.89 165.92 219.27 154.44 232.88C149.57 238.66 145.25 244.91 141.14 251.21C134.09 262.02 131.61 273.66 133.05 286.54C133.91 294.19 132.39 302.15 131.4 309.9C129.74 322.81 127.6 335.66 125.72 348.54C123.67 362.56 121.38 376.57 119.73 390.63C116.85 415.15 125.46 436.65 140.37 456.05C150 468.58 166.52 472.05 181.26 465.45C195.22 459.2 208.05 462.79 220.13 469.93C225.84 473.31 225.92 478.68 220.66 482.8C216.64 485.95 212.05 488.53 207.47 490.92C201.43 494.07 196.8 498.28 194.14 504.37C188.44 517.43 181.84 530.21 177.25 543.62C170.3 563.89 172.99 584.32 179.32 604.4C182.38 614.11 185.82 623.72 188.95 633.42C191.56 641.5 191.32 649.5 187.7 657.32C184.67 663.87 181.93 670.54 178.67 676.98C173.15 687.88 172 699.15 174.76 710.86C177.13 720.91 179.63 730.92 181.98 740.98C182.76 744.33 183.47 747.72 183.8 751.12C184.88 762.13 179.72 771.67 168.9 775.64C158.9 779.32 148.3 781.6 137.9 784.23C126.25 787.17 114.79 790.39 104.88 797.3C97.2601 802.62 92.88 809.42 92.73 818.67C92.61 825.79 90.32 827.73 82.86 829.1C74.48 830.64 65.2901 830.9 58.0201 834.55C47.7001 839.73 37.4201 837.7 26.0601 838.48C27.2301 836.57 27.7901 835.13 28.8101 834.1C32.4201 830.47 35.9101 826.66 39.9301 823.49C68.3301 801.08 99.82 784.49 136.33 777.34C141.29 776.37 146.16 774.75 150.9 773C165.77 767.5 171.2 758.66 168.31 743.7C165.78 730.63 162.42 717.7 159.69 704.66C157.5 694.23 158.87 684.24 164.06 674.64C167.56 668.16 170.22 661.28 173.58 654.73C179.02 644.1 178.91 633.39 175.76 622.15C172.09 609.06 168.8 595.85 166.16 582.54C162.7 565.11 164.62 547.8 169.37 530.73C171.87 521.74 174.27 512.73 176.54 503.69C177.23 500.93 177.5 498.04 177.65 495.19C177.87 491.16 175.84 488.91 171.52 488.11C166.39 487.16 161.28 485.94 156.29 484.46C137.72 478.94 128.09 464.61 118.53 449.98C103.68 427.24 99.3001 402.37 101.4 376.24C103.83 345.97 107.8 315.87 115.48 286.33C120.39 267.44 129.59 250.46 141.7 234.9C148.86 225.7 156.79 217.04 163.71 207.69C173.65 194.26 183.02 180.44 192.56 166.74C196.11 161.65 197.08 155.84 194.62 150.35C189.97 139.97 189.37 128.99 187.87 118.08C186.01 104.57 180.71 92.69 170.38 82.7C151.48 64.42 134.85 44.3 119.89 22.96C103.03 -1.08997 98.1901 -27.21 105.16 -55.36C107.19 -63.58 109.05 -71.84 110.68 -80.13C111.27 -83.15 110.98 -86.33 111.1 -89.44C119.52 -89.44 127.95 -89.44 136.37 -89.44L136.34 -89.47Z" fill="#d278ec"/>
<path d="M815.94 -89.47C815.28 -88.13 814.94 -86.49 813.92 -85.49C810.03 -81.71 805.86 -78.19 801.89 -74.49C798.27 -71.12 796.45 -67.08 796.87 -62.13C798.28 -45.3 799.61 -28.47 800.9 -11.63C801.35 -5.77997 802.01 0.0900345 801.89 5.94003C801.62 19.66 803.61 33.1 807.1 46.32C812.92 68.31 810.94 89.72 802.91 110.87C800.76 116.52 799.15 122.34 797.21 128.06C795.44 133.29 796.06 138.32 798.95 142.96C802.32 148.37 806.12 153.54 809.54 158.93C812.33 163.33 815.24 167.73 817.39 172.43C824.49 188 816.85 199.74 799.04 200.64C793.22 200.93 787.34 200.42 781.49 200.21C754.48 199.22 733.43 208.87 720.1 231.8C712.56 244.77 707.34 258.63 705.25 273.35C703.14 288.21 708.54 301.57 715.79 314.31C721.8 324.87 728.33 335.15 734.45 345.65C743.34 360.91 748.8 377.17 752.11 394.42C755.66 412.96 762.25 430.79 775.51 445.4C781.67 452.19 788.67 458.37 795.8 464.27C806.53 473.15 814.78 483.47 820.82 495.82C835.16 525.17 848.66 554.76 856.06 586.52C859.73 602.29 863.48 618.05 866.77 633.89C868.46 642 868.59 650.43 870.54 658.46C874.38 674.25 884.62 686.69 895.36 698.78C899.91 703.91 904.28 709.2 908.44 714.62C910.27 717.01 911.66 719.8 912.74 722.58C916.66 732.7 911.56 740.32 900.17 740.26C892.76 740.22 885.33 738.59 877.95 737.46C871.43 736.46 864.99 734.99 858.46 734.04C850.51 732.89 843.55 734.79 837.04 739.66C820.99 751.67 805.93 764.41 795.76 781.66C786.29 797.74 781.19 815.12 778.08 833.15C777.79 834.82 777.41 836.47 777.05 838.24C772.17 838.24 767.54 838.24 761.96 838.24C763.46 832.9 764.89 827.9 766.27 822.89C771.38 804.33 777.15 786.04 787.1 769.15C797.5 751.5 812.29 737.52 828.14 724.51C830.92 722.23 836.14 721.12 839.87 721.67C850.2 723.2 860.36 725.82 870.55 728.16C877.4 729.73 884.12 731.87 891.01 733.17C895.97 734.11 901.74 735.04 905.16 730.33C908.46 725.79 905.75 721.09 902.98 717.18C899.21 711.86 895.09 706.71 890.65 701.88C875.4 685.3 862.93 667.3 857.93 645.39C855.25 633.66 853.24 621.78 850.17 610.14C840.84 574.7 829.02 540.14 811.25 507.52C804.13 494.44 795.59 482.9 783.5 473.68C766.67 460.85 752.84 445.7 745.72 425.98C741.38 413.96 736.62 401.85 734.44 389.4C730.89 369.11 722.35 350.88 712.97 332.77C707.46 322.14 701.82 311.55 696.91 300.67C690.49 286.46 691.28 271.89 696.55 257.51C701.94 242.79 707.4 228.09 716.27 214.8C726.61 199.31 740.73 188.31 758.66 181.6C764.09 179.57 769.55 177.47 774.67 174.84C780.23 171.99 781.58 168.18 779.31 162.54C777.71 158.55 775.54 154.75 773.42 150.97C768.31 141.88 768.64 133.15 773.75 123.98C778.73 115.04 782.92 105.67 787.07 96.33C794.04 80.64 794.62 64.32 790.99 47.87C788.02 34.45 786.01 21.16 790.44 7.63003C791.45 4.55003 791.36 1.12003 791.55 -2.15997C792.13 -12.41 789.02 -22 785.08 -31.3C780.47 -42.19 780.26 -53.65 779.41 -65.04C779.08 -69.46 781.88 -72.69 785.52 -74.96C791.42 -78.63 797.61 -81.87 803.54 -85.52C804.96 -86.4 805.8 -88.13 806.91 -89.47C809.92 -89.47 812.93 -89.47 815.94 -89.47Z" fill="#d278ec"/>
<path d="M783.45 -89.47C782.1 -88.52 780.88 -87.31 779.38 -86.65C773.53 -84.08 767.41 -82.03 761.75 -79.13C754.31 -75.32 751.47 -69.22 751.83 -60.93C752.3 -49.96 755.8 -40.67 763.7 -32.59C767.45 -28.75 770.56 -24.24 773.33 -19.68C779.29 -9.87997 779.36 0.200027 773.46 10.11C771.17 13.96 768.57 17.67 765.9 21.3C761.68 27.04 760.49 33.04 762.24 40C765.17 51.59 767.63 63.55 764.48 75.26C761.7 85.57 757.05 95.44 752.98 105.41C751.69 108.59 749.83 111.6 747.89 114.49C739.62 126.81 734.64 140.23 730.69 154.37C728.09 163.7 723.02 172.73 717.51 180.95C703.04 202.54 691.49 225.58 682.12 249.34C671.84 275.43 674.19 301.95 686.74 327.34C693.46 340.93 700.8 354.36 702.77 369.49C705.66 391.7 713.27 412.61 721.01 433.53C728.47 453.7 740.02 471.52 757.7 484.63C779.83 501.04 793.55 522.71 805.23 546.2C813.69 563.22 819.67 581 824.9 599.07C828.44 611.33 832.08 623.57 835.1 635.95C840.01 656.02 849.9 673.97 860.31 691.75C861.47 693.74 862.46 695.86 863.19 698.03C864.73 702.59 862.93 705.03 857.82 704.81C853.95 704.64 850.07 703.91 846.29 703.03C839.72 701.5 833.29 699.45 826.7 697.98C816.46 695.71 812.84 697.41 806.92 705.51C800.65 714.08 794.12 722.47 787.49 730.79C774.31 747.32 765.6 765.95 759.36 785.62C753.99 802.54 745.8 817.75 734.57 831.91C730.25 837.35 726.4 839 720.09 838.46C716.4 838.15 712.66 838.4 707.49 838.4C710.1 835.22 711.81 832.83 713.84 830.72C720.84 823.44 728.23 816.48 734.94 808.97C743.8 799.04 748.02 786.8 751.69 774.57C758.13 753.1 767.03 732.84 780.1 714.17C786.08 705.63 790.85 696.29 795.87 687.17C798.99 681.49 803.05 676.82 809.36 674.5C818.05 671.32 820.42 665.11 819.55 657.03C817.46 637.66 815.27 618.34 808.12 599.85C803.15 587 799.96 573.42 793.91 561.08C787.14 547.27 778.83 533.98 769.68 521.47C764.04 513.76 756.02 507.41 748.29 501.36C727.28 484.94 710.27 465.73 701.77 440.87C696.16 424.45 691.13 407.76 687.35 390.89C681.83 366.29 677.38 341.46 673.02 316.64C669.12 294.42 668.95 272.08 675.33 250.24C678 241.11 682.78 232.5 686.93 223.79C694.37 208.16 702.28 192.74 709.52 177.03C713.13 169.21 716.56 161.13 718.52 152.84C721.89 138.58 728.2 125.5 734.14 112.21C736.61 106.68 738.86 101.07 741.33 95.54C748.48 79.51 749.2 63.08 744.96 46.3C744.61 44.91 744.44 43.46 743.94 42.12C739.97 31.65 743.01 23.21 751.62 15.99C754.74 13.38 757.32 10.08 759.69 6.80003C764.8 -0.289963 765.1 -7.86997 759.97 -14.91C756.06 -20.28 751.69 -25.58 746.55 -29.86C732.99 -41.17 733.03 -56.01 734.01 -71C734.41 -77.08 739.11 -81.47 743.96 -85.34C745.33 -86.43 746.22 -88.07 747.33 -89.45C759.36 -89.45 771.4 -89.45 783.43 -89.45L783.45 -89.47Z" fill="#d278ec"/>
<path d="M842.11 -89.47C842.09 -85.36 841.9 -81.24 842.07 -77.13C842.72 -61.97 843.47 -46.82 844.21 -31.66C845.37 -7.92999 846.45 15.81 847.78 39.53C848.47 51.95 849.52 64.36 850.59 76.77C851.79 90.71 850.68 104.52 848.21 118.24C846.41 128.2 847.36 137.82 850.56 147.43C855.32 161.72 860.53 175.94 864.05 190.51C868.42 208.57 868.17 226.93 858.32 243.53C849.11 259.04 836.09 271.7 819.77 280.63C806.45 287.92 793.04 286.07 781.48 276.33C777.78 273.21 774.55 269.58 771.15 266.15C764.05 258.98 756.76 258.37 748.46 264.27C738.39 271.43 734.3 284.36 738.08 297.08C741.63 309.02 749.74 318.21 757.93 327.41C767.16 337.78 776.39 348.15 785.25 358.8C791.15 365.9 794.4 374.09 794.69 383.36C795.27 402.2 803.21 418.33 815.96 432.36C826.39 443.83 837.59 454.73 843.58 469.16C851.85 489.09 860.33 508.96 868.16 529.05C878.56 555.73 884.11 583.49 887.98 611.65C890.19 627.7 892.64 643.66 892.48 659.89C892.35 672.46 897.99 683.07 905.4 693.1C910.91 700.57 916.61 708.01 921.09 716.03C925.99 724.79 927.5 734.17 920.69 743.09C916.71 748.3 911.13 751.92 904.8 752.97C888.74 755.63 875.31 762.62 863.13 772.62C853.6 780.45 843.03 787.18 833.86 795.36C822.18 805.79 816.08 819.27 814.28 834.45C814.16 835.44 814 836.43 813.85 837.42C813.83 837.55 813.72 837.67 813.5 838.09C808.94 838.09 804.22 838.09 799.15 838.09C800.16 821.36 805.65 806.24 815.83 792.67C825.09 780.33 837.59 771.45 850.67 763.19C853.67 761.29 856.91 759.65 859.61 757.41C866.88 751.38 875.34 749.74 884.71 749.78C891.57 749.81 898.6 749.43 905.25 747.96C919.1 744.9 924.5 734.75 919.96 721.86C916.59 712.3 909.96 704.7 903.44 697.03C895.65 687.87 887.94 678.49 885.15 666.82C883.48 659.82 884.26 652.32 883.27 645.13C881.42 631.67 879.05 618.28 876.97 604.84C870.29 561.56 854.18 521.16 835.9 481.36C830.32 469.21 822.87 458.58 812.71 449.54C802.92 440.83 793.61 431.72 787.16 420.31C780.87 409.19 776.84 397.39 775.7 384.87C774.8 374.98 771.19 366.16 765.52 358.15C757.38 346.65 748.71 335.48 740.24 324.19C732.79 314.25 726.13 303.96 723.35 291.81C718.74 271.64 730.72 245.32 748.5 236.68C761.32 230.45 771.03 233.35 777.86 245.41C780.85 250.69 783.57 256.16 787.07 261.12C794.54 271.72 805.66 273.46 815.44 264.76C822.04 258.88 827.47 251.68 832.7 244.59C837.43 238.18 841.29 231.17 845.36 224.33C852.49 212.35 852.52 199.46 848.74 186.83C845.42 175.77 840.72 165.02 835.86 154.45C830.13 141.99 827.37 129.28 830.95 116.01C836.52 95.34 835.82 74.78 832.39 53.88C829.68 37.38 828.26 20.65 827.08 3.97001C825.67 -15.88 825.44 -35.8 824.1 -55.65C823.3 -67.54 825.5 -78.68 830.38 -89.49C834.29 -89.49 838.2 -89.49 842.11 -89.49V-89.47Z" fill="#d278ec"/>
<path d="M446.81 -89.47C444.02 -81.72 448.25 -75.37 451.06 -68.59C455.24 -58.53 453 -51.42 443.81 -44.38C429.22 -33.22 419.57 -19.42 418.22 -1.25997C417.05 14.47 422.32 28.59 430.88 41.79C440.21 56.18 453.07 67.71 465.11 79.89C471.94 86.81 478.23 93.99 482.22 102.84C486.94 113.3 488.41 124.19 483.6 134.53C476.72 149.34 473.89 164.77 472.58 180.65C470.2 209.65 459.28 235.81 444.39 260.94C431.73 282.31 422.31 305.08 417.75 329.39C412.74 356.11 417.81 381.67 427.73 406.75C435.39 426.11 448.32 441.33 465.23 454.05C481.39 466.2 493.89 481.24 502.47 499.25C504.21 502.89 507.67 506.57 511.34 508.45C525.79 515.86 533.94 527.14 537.24 542.21C538.81 549.36 541.04 556.71 547.2 561.54C551.98 565.29 557.71 568.02 563.2 570.86C573.4 576.13 582.53 582.45 588.27 592.38C588.78 593.26 589.25 594.16 589.61 595.1C591.68 600.48 589.81 603.76 583.81 603.84C576.17 603.94 568.52 602.99 560.87 602.95C549.79 602.9 538.54 602.16 527.67 603.69C509.08 606.31 496.89 618.09 487.39 632.77C475.49 651.14 469.39 671.13 467.31 692.58C465.82 707.91 463.32 723.19 460.45 738.35C456.54 759.05 456.98 779.96 455.93 800.81C455.35 812.24 454.09 823.64 453.25 835.06C453.06 837.59 452.06 838.56 449.34 838.45C445.01 838.27 440.67 838.4 435.93 838.4C436.58 831.21 437.19 824.42 437.8 817.63C439.84 794.69 441.54 771.71 444.09 748.82C444.93 741.24 447.13 733.57 450.09 726.47C455.64 713.15 458.32 699.32 460.29 685.27C464.91 652.33 478.55 623.02 499.7 596.75C502.71 593.01 506.17 589.58 508.85 585.65C510.83 582.74 512.66 579.36 513.2 575.99C515 564.83 516.5 553.6 517.53 542.35C518.61 530.55 514.28 523.36 502.94 518.86C494.65 515.57 489.71 510.58 487.04 502.25C481.73 485.73 469.85 473.27 456.9 461.7C456.68 461.5 456.47 461.3 456.23 461.12C430.65 442.44 418.39 416.07 410.38 387.6C406.95 375.39 404.55 362.72 403.61 350.13C402.55 335.86 407.83 322.23 411.97 308.64C419.55 283.76 428.63 259.4 439.97 235.82C450.62 213.68 454.49 189.87 458.14 166.07C459.13 159.62 461.24 153.96 465.38 148.81C468.38 145.07 471.24 141.18 473.74 137.11C480.73 125.7 480.79 114.03 473.1 103.08C468.81 96.97 463.27 91.58 457.85 86.26C440.02 68.75 422.4 51.04 412.82 27.88C401.6 0.760025 405.52 -24.55 424.34 -47.66C425.45 -49.02 426.64 -50.31 427.71 -51.69C430.77 -55.64 431.21 -59.35 427.15 -62.36C420.1 -67.58 412.56 -72.39 404.66 -76.34C396.45 -80.44 387.54 -83.25 379 -86.76C377.66 -87.31 376.63 -88.55 375.46 -89.47C399.23 -89.47 422.99 -89.47 446.76 -89.47H446.81Z" fill="#d278ec"/>
<path d="M25.32 -89.47C26.72 -72.74 29.3999 -56.23 34.5999 -40.14C42.1499 -16.77 54.7199 4.17003 68.9399 24.32C81.9199 42.71 94.87 61.12 107.66 79.64C109.95 82.95 111.72 86.7 113.06 90.46C115.66 97.75 121.14 101.03 128.73 102.15C133.91 102.91 139.14 103.67 144.14 105.1C157.32 108.86 161.78 118.12 156.31 130.13C151.32 141.07 143.76 150.38 134.34 158.11C125.45 165.41 119.29 173.92 115.4 184.62C107.78 205.58 95 224.05 82.62 242.7C67.29 265.8 51.43 288.67 37.77 312.65C21.51 341.18 16.88 371.86 26.34 403.69C30.87 418.92 37.35 433.5 46.4 446.72C57.71 463.24 69.2399 479.74 82.0699 495.19C106.51 524.59 119.01 558.07 122.91 594.91C124.93 614.05 119.07 631.7 111.51 649C109.55 653.48 107.55 657.98 105.18 662.27C96.72 677.59 98.2 692.57 106.41 707.45C110.11 714.16 114.26 720.7 117.22 727.7C121.84 738.61 118.04 746.63 106.75 751.48C103.34 752.95 99.81 754.4 96.18 755.13C82.52 757.86 68.7999 760.3 55.0999 762.81C39.0599 765.74 23.5499 769.88 10.29 779.62C8.75995 780.74 6.29997 780.71 4.30997 781.21C2.68997 775.85 4.13996 772.68 8.35996 769.66C22.72 759.37 39.23 754.72 56.52 751.61C66.82 749.76 77.0199 747.39 87.1899 744.97C89.8899 744.33 92.4499 742.85 94.8399 741.41C101.01 737.68 103.26 732.48 100.86 725.91C99.14 721.23 96.73 716.68 93.99 712.45C82.05 694.05 80.61 675.41 90.79 655.74C98.59 640.68 104.66 624.81 105.83 607.94C106.53 597.91 105.87 587.58 104.1 577.66C99.4699 551.68 87.7499 528.53 71.5999 507.14C55.9099 486.35 40.54 465.31 26.03 443.77C14.51 426.67 7.05998 407.78 4.56998 387.36C1.49998 362.12 7.39998 338.46 18.45 315.72C28.65 294.72 42.27 275.65 55.69 256.47C70.27 235.64 85.03 214.9 95.17 191.62C96.38 188.85 97.81 186.11 98.53 183.21C101.95 169.53 111.14 159.96 122.03 151.1C128.21 146.07 132.96 139.45 138.28 133.48C139.13 132.52 139.64 131.26 140.21 130.09C144.67 120.9 141.57 115.77 131.03 113.94C123.86 112.7 116.36 111.69 109.89 108.81C105.41 106.82 100.73 102.38 99.04 98.03C88.34 70.33 70.1 47.1 52.38 23.44C29.02 -7.74997 13.02 -42.04 6.91996 -80.17C6.41996 -83.26 5.96997 -86.37 5.49997 -89.46C12.12 -89.46 18.74 -89.46 25.36 -89.46L25.32 -89.47Z" fill="#d278ec"/>
<path d="M933.27 -89.47C933.15 -87.77 932.93 -86.06 932.94 -84.36C933.35 4.54002 933.73 93.44 934.23 182.34C934.33 199.51 934.96 216.67 935.14 233.84C935.19 238.83 934.51 243.84 934.12 248.83C933.68 254.46 930.64 258.91 926.45 262.52C919.11 268.86 912.1 275.8 903.85 280.87C889.85 289.46 882.58 301.6 878.52 316.4C875.95 325.78 872.15 334.85 869.33 344.17C868.36 347.39 867.13 352.01 868.74 354.13C871.26 357.46 875.77 354.75 878.99 353.24C886.66 349.64 894.18 345.71 901.64 341.71C908.62 337.96 922.94 339.7 927.81 345.76C929.6 348 930.19 351.59 930.19 354.57C930.2 369.46 929.17 384.37 929.75 399.22C930.87 427.81 931.94 456.45 934.61 484.94C939.46 536.63 941.99 588.3 939.37 640.18C938.09 665.55 939.79 690.76 945.44 715.7C949.26 732.54 946.63 749.26 942.9 765.89C939.17 782.52 932.28 798.03 925.4 813.59C921.92 821.47 919.11 829.62 915.81 838.15C909.3 838.15 901.83 838.15 893.52 838.15C894.27 835.81 894.59 833.57 895.65 831.69C901.38 821.48 907.04 811.22 913.21 801.26C924.41 783.17 932.92 764.03 938.91 743.87C941.9 733.81 941.09 723.51 937.58 713.85C929.18 690.73 927.41 666.95 927.79 642.79C928.06 626.05 928.05 609.3 928.01 592.55C927.94 563.55 923.87 534.91 919.29 506.32C912.46 463.74 905.4 421.19 905.03 377.96C905 374.25 904.62 370.51 903.97 366.86C903.16 362.3 900.88 360.92 896.29 362.34C892.45 363.53 888.84 365.37 885.09 366.85C878.45 369.47 871.84 372.16 865.11 374.55C863.07 375.28 860.69 375.38 858.46 375.36C851.84 375.3 847.96 371.3 849 365.08C849.65 361.2 850.62 357.07 852.68 353.76C862.36 338.18 868.95 321.46 874.48 304.24C877.93 293.49 885.06 285.07 894.5 278.49C902.16 273.14 908.02 266.34 912.98 258.76C918.36 250.52 918.35 241.01 919.62 231.85C922.1 213.95 919.9 196.17 917.94 178.36C916.84 168.42 916.3 158.38 916.23 148.38C915.65 70.22 915.24 -7.94997 914.76 -86.11C914.76 -87.23 914.48 -88.36 914.33 -89.48C920.65 -89.48 926.97 -89.48 933.28 -89.48L933.27 -89.47Z" fill="#d278ec"/>
<path d="M626.41 -89.47C625.97 -88.15 625.8 -86.68 625.06 -85.55C620.78 -79.01 619.17 -71.88 619.29 -64.25C619.83 -28.35 623.39 7.16003 633.14 41.99C639.44 64.49 638.4 87.4 635.92 110.27C634.73 121.22 634.01 132.33 631.4 143C628.72 153.92 624.96 164.82 619.9 174.93C613.71 187.3 613.03 199.36 616.08 212.44C618.57 223.12 620.84 234.11 620.9 244.98C620.97 257.48 619 270.06 616.99 282.47C615.33 292.7 608.89 300.48 599.82 306.18C594.42 309.57 588.97 312.87 583.6 316.3C577.43 320.25 574.54 325.89 575.39 332.87C576.34 340.64 574.85 347.47 569.76 353.84C566.9 357.42 564.72 361.7 563.14 365.97C558.59 378.21 561.77 389.64 573.69 397.31C583.52 403.63 588.95 411.51 591.45 422.29C594.47 435.31 603.83 442.88 617.23 445.86C633.09 449.39 648.58 453.76 662.84 461.52C672.23 466.64 681.18 472.56 682.61 483.46C683.55 490.65 682.61 498.32 681.06 505.49C679.12 514.37 679.42 522.36 683.23 530.92C686.12 537.43 687.45 545.01 687.52 552.14C687.67 566.18 690.87 579.13 699.41 590.56C708.48 602.69 708.35 616.47 707.42 630.16C706.45 644.39 703.74 658.51 702.52 672.73C701.36 686.26 701.49 699.89 700.35 713.42C699.84 719.45 698.43 725.67 696.01 731.24C690.85 743.1 680.07 747.72 667.36 749.08C664.22 749.41 661.09 749.83 657.94 749.97C652.71 750.2 648.36 752.17 644.66 755.58C643.04 757.07 641.28 758.47 639.89 760.14C627.65 774.83 611.29 777.33 593.15 774.48C589.01 773.83 584.93 772.83 580.8 772.07C572.66 770.57 568.16 772.52 563.84 779.33C554.18 794.57 555.93 809.2 569.13 822.84C572.19 826 575.51 828.92 578.58 832.06C580.14 833.66 581.4 835.52 583.44 838.06C579.42 838.06 576.67 838.06 574.45 838.06C570.53 833.28 566.77 828.55 562.86 823.95C554.02 813.55 550.3 801.95 551.99 788.45C552.87 781.43 552.36 774.16 551.66 767.07C550.75 757.91 553.12 753.89 562.7 753C567.26 752.58 572.26 753.57 576.65 755.03C583 757.14 588.87 760.54 595.15 762.88C610.92 768.76 621.83 765.65 631.85 752.78C633.28 750.94 634.75 749.12 636.14 747.26C640.52 741.39 646.41 737.83 653.79 736.2C658.46 735.17 663.01 733.65 667.63 732.39C682.25 728.4 689.73 718.81 691.39 704.78C692.03 699.38 692.36 693.95 692.75 688.53C693.85 673.42 695.53 658.31 695.84 643.18C696.27 622.36 694.02 601.88 685.31 582.31C681.59 573.95 679.72 564.84 676.92 556.11C674.46 548.45 672.28 540.68 669.21 533.25C666.13 525.79 665.9 518.59 668.5 511.07C670.14 506.32 671.69 501.51 672.8 496.63C675.31 485.51 671.88 476.69 661.19 471.68C648.57 465.77 635.21 461.3 622.15 456.25C619.79 455.34 617.35 454.58 614.92 453.86C599.92 449.43 589.81 440.16 584.94 425.97C582.08 417.65 576.71 411.68 568.75 407.3C555.98 400.27 545.84 390.85 540.24 377.42C535.33 365.65 535.11 354.64 544.14 344.45C547.58 340.57 549.22 336.03 548.76 330.93C547.43 316.11 554.72 306.37 568.47 300.37C573.65 298.11 578.71 295.53 584.03 293.62C599.31 288.13 605.43 277.36 606.74 262.27C608.19 245.53 606.65 229.52 600.55 213.75C597.1 204.83 595.4 195.45 597.47 185.92C598.25 182.33 599.36 178.56 601.37 175.49C617.15 151.41 620.38 124.35 622.94 96.97C624.83 76.76 621.13 57.36 615.85 38.01C606.37 3.29002 602.57 -32.09 603.38 -67.89C603.51 -73.6 605.92 -79.26 607.28 -84.94C607.64 -86.44 608.01 -87.93 608.38 -89.43C614.4 -89.43 620.41 -89.43 626.43 -89.43L626.41 -89.47Z" fill="#d278ec"/>
<path d="M585.8 -89.47C582.59 -65.09 577.66 -40.81 578.64 -16.13C579.03 -6.23999 581.21 3.70001 583.64 13.37C588.32 32 594.19 50.36 598.77 69.01C604.39 91.89 601.23 114.69 594.85 136.91C591.64 148.1 586.52 159.03 580.67 169.24C574.05 180.78 572.24 192.26 575.61 204.78C578.25 214.6 582.26 224.35 583.01 234.31C583.77 244.38 581.65 254.74 579.95 264.84C579.45 267.83 576.53 270.85 573.94 273.01C570.59 275.81 566.62 278.06 562.63 280.01C548.24 287.06 536.19 296.73 525.67 308.37C521.37 313.12 516.18 317.13 511.71 321.76C498.98 334.92 497.38 349.79 507.37 366.39C519.05 385.8 534.41 402.17 554.51 413.99C566.13 420.83 575.92 428.92 582.59 440.5C587.59 449.19 595.46 455.65 604.25 460.78C617.93 468.77 626 481.51 635.22 493.23C637.49 496.12 638.64 500.45 638.72 504.15C639.07 520.51 645.39 535.08 652.35 549.6C659.7 564.93 667.18 580.23 673.56 595.93C682.24 617.26 685.82 639.46 683.57 662.43C682.65 671.82 683.15 681.33 682.07 690.7C679.92 709.39 667.81 720.33 649.7 725.76C643.15 727.72 636.21 728.46 629.59 730.22C623.84 731.75 618.08 733.53 612.68 735.94C606.8 738.57 600.94 739.66 594.78 737.91C582.04 734.29 569.05 732.36 555.82 731.21C540.65 729.89 531 738.18 532.36 752.79C532.86 758.12 533.97 763.64 536.11 768.55C539.88 777.18 543.19 785.75 543.82 795.2C544.64 807.48 549.93 818.28 556.75 828.54C558.61 831.34 559.78 834.55 561.55 838.15C557.96 838.15 555.47 838.15 553.39 838.15C551.96 834.21 550.98 830.32 549.2 826.8C543.5 815.55 539.85 803.73 537.15 791.55C536.17 787.13 534.78 782.62 532.58 778.65C522.13 759.78 522.75 739.85 525.79 719.66C526.51 714.86 528.62 713.33 533.81 713.37C537.4 713.39 541.1 713.41 544.55 714.23C558.76 717.59 573.12 718.58 587.51 716.27C598.02 714.58 607.78 716.87 617.67 719.36C627.39 721.81 637.23 722.69 647.09 720.4C662.83 716.75 673.98 704.49 676.09 688.9C682.11 644.47 673.88 603.14 647.68 565.29C638.61 552.19 630.39 538.42 623.29 524.27C616.84 511.41 612.3 497.66 607.2 484.2C604.29 476.52 599.9 469.89 594.19 463.83C587.27 456.49 580.56 448.94 574.16 441.18C566.86 432.33 557.36 426.13 547.77 419.94C529.78 408.33 513.3 395.23 499.48 379.02C468.1 342.23 491.94 298.35 521.09 284.11C529.24 280.13 537.22 275.78 545 271.17C562.3 260.91 569.29 241.26 562.64 222.84C559.91 215.29 556.9 207.77 554.97 200.03C552.81 191.38 555.08 183.08 560.79 176.1C582.22 149.96 588.36 119.54 585.48 87.77C583.49 65.76 577.63 43.98 563.44 25.45C556.19 15.98 554.56 5.68001 557.26 -5.50999C560.05 -17.08 562.62 -28.69 565.59 -40.22C566.58 -44.07 568.37 -47.76 570.05 -51.42C575.63 -63.59 577.14 -76.39 576.83 -89.49C579.84 -89.49 582.85 -89.49 585.86 -89.49L585.8 -89.47Z" fill="#d278ec"/>
<path d="M659.8 -89.47C659.56 -61.75 663.92 -34.42 667.35 -6.99998C670.81 20.7 674.15 48.43 676.25 76.24C677.08 87.21 674.37 98.41 673.38 109.52C670.59 140.66 664.49 171.32 657.04 201.67C651.19 225.5 648.77 249.57 647.05 273.87C645.52 295.5 641.61 316.7 631.5 336.54C627.52 344.36 624.57 352.68 621.58 360.92C618.98 368.1 619.86 375.21 623.09 382.22C627.25 391.25 632.67 399.18 640.66 405.69C651.2 414.28 659.33 424.81 663.75 437.43C666.46 445.16 671.83 450.68 677.84 455.95C686.29 463.36 692.94 471.87 695.39 482.81C696.3 486.85 697.26 490.95 697.48 495.06C697.92 503.14 700.66 510.29 706.6 515.98C713.91 522.99 714.28 530.45 710.27 539.11C707.81 544.42 706.06 550.13 704.73 555.81C702.07 567.24 706.26 576.46 716.39 582.89C721.61 586.21 727.31 588.89 732.96 591.53C739.28 594.49 742.28 599.06 742.68 605.76C744.34 634.23 741.74 662.1 730.61 688.85C725.09 702.12 724.49 716.18 722.98 730.1C721.03 748.14 716.74 765.34 703.94 779.61C690.94 794.1 674.33 801.98 654.73 805.03C647.07 806.22 639.5 808.28 632.12 810.6C623.59 813.28 618.38 819.01 617.46 827.83C617.11 831.22 616.63 834.59 616.18 838.16C611.13 838.16 606.37 838.16 603.14 838.16C598.86 833.08 595.26 828.65 591.48 824.36C588.01 820.43 583.87 816.97 580.85 812.77C576.12 806.18 577.95 799.81 585.83 797.35C594.61 794.61 603.86 793.2 612.93 791.3C617.77 790.29 622.79 789.88 627.48 788.46C639.1 784.93 651.19 785.14 663.06 783.6C689.95 780.12 708.31 763 712.96 737.55C714.35 729.96 715.37 722.21 715.4 714.53C715.45 700.06 718.75 686.23 722.19 672.26C727.28 651.61 730.05 630.61 728.55 609.27C728.13 603.26 725.72 598.57 720.76 594.95C718.14 593.03 715.64 590.96 713.02 589.04C699.37 579.02 695.17 565.92 698.99 550.19C699.4 548.52 699.69 546.81 700.28 545.2C703.89 535.31 703.15 526.22 695.75 517.89C691.95 513.61 692.04 508.11 691.96 502.76C691.86 496.48 692.01 490.12 691.03 483.94C689.54 474.51 683.92 467.15 676.4 460.96C668.02 454.05 660.15 446.54 651.43 440.05C646.7 436.53 640.79 434.35 635.21 432.01C630 429.82 624.41 428.47 619.21 426.27C612.6 423.48 608.68 418.36 607.23 411.62C606.6 408.68 606.49 405.61 605.59 402.76C604.14 398.16 602.94 393.27 600.35 389.25C596.14 382.72 595.5 376.16 597.59 369.11C601.17 357.01 606.76 345.71 614.22 335.43C630.55 312.95 636.66 287.64 638.1 260.94C639.05 243.37 639.36 225.76 640.7 208.21C641.28 200.59 643.26 192.97 645.43 185.57C653.35 158.53 655.99 130.76 658.95 103C662.18 72.79 659.03 43.01 653.23 13.34C647.52 -15.84 644.8 -45.36 643.1 -74.95C642.83 -79.72 645.13 -84.63 646.25 -89.48C650.76 -89.48 655.28 -89.48 659.79 -89.48L659.8 -89.47Z" fill="#d278ec"/>
<path d="M233.81 -89.47C234.12 -88.11 234.09 -86.56 234.8 -85.43C242.54 -73.14 241.85 -60.13 236.35 -47.81C229.26 -31.91 223.52 -15.92 221.57 1.38003C220.9 7.31003 217.67 13.04 215.19 18.7C209.81 31 210.71 36.15 221.62 44.56C227.66 49.22 234.32 53.22 240.98 57.08C248.9 61.68 255.91 67.09 261.63 74.12C265.02 78.29 268.78 82.25 272.85 85.82C278.45 90.73 280.23 96.64 279.68 103.58C278.52 118.27 277.57 132.98 276.28 147.65C275.75 153.62 274.42 159.52 273.67 165.47C272.77 172.55 271.63 179.64 271.47 186.74C271.33 193.14 269.06 198.01 263.87 201.98C255.45 208.41 246.36 214.3 239.07 221.76C228.87 232.19 219.88 243.72 210.72 255.04C204.13 263.18 200.8 272.45 200.92 282.99C201.02 292.4 200.65 301.89 199.44 311.22C197.92 322.97 199.64 334.32 202.32 345.62C206.74 364.29 210.96 383.01 220.89 400.02C225.81 408.46 232.15 415.42 240.35 421.04C256.68 432.22 271.54 444.84 282.94 460.83C290.17 470.96 294.75 482.02 295.99 494.22C297.79 512.01 289.4 525.59 275.54 536.4C265.79 544 255.33 550.77 245.37 558.14C222.9 574.76 226.28 597.41 238.46 615.99C241.35 620.4 246.24 621.57 251.39 621.79C256.04 622 260.73 621.84 265.33 622.4C273.25 623.38 275.64 627.21 273 634.44C271.62 638.2 269.63 641.76 268.04 645.46C264.28 654.17 260.55 662.9 256.9 671.65C253.74 679.21 251.66 687.34 247.43 694.3C237.52 710.63 235.79 727.89 239.55 745.77C243.44 764.22 242.12 782.39 239.24 800.77C237.47 812.05 237.27 823.56 236.49 834.97C236.32 837.44 235.53 838.44 232.73 838.42C208.21 838.32 183.7 838.35 159.18 838.33C158.9 838.33 158.61 838.2 158.33 838.13C158.2 837.9 157.96 837.67 157.96 837.45C158.57 818.58 169 817.07 183.36 821.32C190.79 823.52 197.85 826.82 205.12 829.52C209.69 831.22 213.49 830.18 216.71 826.54C222.42 820.09 224.59 812.16 226.79 804.28C230.3 791.7 234.32 779.07 232.76 765.9C231.6 756.13 229.22 746.49 227.18 736.83C223.76 720.57 225.1 705 233.67 690.23C240.31 678.78 245.35 666.7 247.76 653.75C248.25 651.09 248.92 648.24 248.37 645.7C247.85 643.28 246.43 640.28 244.39 639.04C226.19 627.9 219.08 610.38 215.02 591.67C210.64 571.45 220.38 556.45 237.45 545.18C246.33 539.31 255.57 533.93 264.31 527.87C276 519.76 283.93 509.28 284.04 494.85C284.12 484.59 280.99 475.05 275.37 466.36C263.94 448.71 248.52 434.73 228.45 426.93C209.53 419.57 201.62 406.05 198.85 388.29C196.05 370.32 192.94 352.38 190.88 334.34C190.12 327.69 191.4 320.67 192.74 314C195.14 302.09 195.72 290.19 190.95 278.95C184.04 262.66 188.26 248.91 198.93 235.78C207.91 224.74 218.73 215.54 231.4 208.93C247.24 200.67 256.61 189.05 259.56 172C261.1 163.08 262.93 154.34 262.19 145.24C261.05 131.27 260.9 117.2 259.03 103.33C256.84 87.06 247.91 74.34 233.23 65.35C224.02 59.71 215.06 53.7 205.99 47.85C205.49 47.53 205.05 47.13 204.61 46.75C193.72 37.45 193.09 33.49 201.36 21.88C208.05 12.48 213.96 2.89003 212.09 -9.07997C211.43 -13.3 210.48 -17.54 209.04 -21.58C206.32 -29.2 207.39 -36.04 211.79 -42.88C218.22 -52.85 223.27 -63.43 223.03 -75.47C222.94 -80.15 221.82 -84.81 221.17 -89.47C225.38 -89.47 229.59 -89.47 233.81 -89.47Z" fill="#d278ec"/>
<path d="M195.9 -89.47C197.23 -75.7 191.75 -64 183.67 -53.09C181.85 -50.63 180.05 -48.16 178.18 -45.75C169.4 -34.45 169.71 -29.18 179.81 -18.77C182.05 -16.46 184.4 -14.23 186.44 -11.76C193.05 -3.73997 193.46 3.44003 187.57 11.93C184.84 15.86 181.52 19.4 178.53 23.17C171.92 31.5 171.87 36.92 179.64 44.37C186.49 50.94 194.07 56.84 201.51 62.83C204.83 65.5 208.46 67.88 212.18 70.01C226.9 78.47 234.82 90.9 236.53 107.06C237.86 119.64 240.89 131.7 245.97 143.52C253.68 161.45 246.94 176.79 233.47 189.53C224.33 198.18 213.8 205.48 204.07 213.58C195.48 220.73 187.09 228.11 178.72 235.5C176.75 237.24 175.11 239.34 173.47 241.38C162.35 255.23 162.07 260.99 172.45 275.17C179.06 284.19 184.44 293.51 182.31 304.99C181.48 309.46 180.4 314.05 178.38 318.11C173.4 328.08 172.19 338.27 172.45 349.31C172.74 361.66 170.77 374.08 169.32 386.43C167.95 398.07 169.18 409.24 173.98 420.06C177.77 428.61 184.63 433.12 194.05 434.76C204.2 436.53 214.75 437.43 224.3 440.81C244 447.78 257.52 461.08 262.69 480.97C265.34 491.19 262.69 500.66 254.68 507.77C247.59 514.06 239.6 519.52 231.56 524.72C219.94 532.23 209.58 540.76 203.09 552.83C194.76 568.33 195.12 584.54 201.1 600.36C205.65 612.4 211.31 624.23 217.91 635.38C226.04 649.11 227.36 662.06 218.43 675.76C215.44 680.34 213.44 685.54 211.31 690.58C204.6 706.5 207.69 722.35 211.94 738.19C214.28 746.89 216.94 755.55 218.53 764.38C219.84 771.68 217.73 778.86 214.86 785.73C210.74 795.58 203.2 800.71 192.01 800.75C183.29 800.78 174.54 800.3 165.85 800.77C160.08 801.08 154.22 802.17 148.7 803.81C141.35 806 137.78 811.52 137.2 818.73C136.68 825.13 136.29 831.53 135.83 838.16C131.35 838.16 127.38 838.16 124.5 838.16C124.5 832.17 124.74 826.35 124.45 820.54C123.67 804.77 128.7 797.82 145.19 794.68C156.34 792.56 167.77 791.78 179.06 790.37C181.89 790.02 184.73 789.66 187.5 789.06C203.83 785.53 211.44 772.97 207.07 756.21C204.46 746.23 201.12 736.43 198.31 726.5C193.35 708.94 194.46 691.94 203.75 675.73C205.18 673.23 206.03 670.42 207.45 667.91C213.01 658.06 212.53 648.23 208.02 638.16C202.49 625.81 196.67 613.52 192.05 600.86C186.42 585.45 184.82 569.5 190.59 553.71C196.15 538.48 205.14 525.05 217.62 514.18C222.1 510.28 228.4 508.16 234.1 505.68C250.4 498.57 255.91 481.68 246.11 467.37C243.77 463.95 240.8 460.67 237.41 458.21C223.8 448.37 208.42 444.24 191.3 446.18C186.42 446.73 181.33 447.46 176.57 446.74C166.93 445.29 160.06 439.89 155.74 431.38C147.77 415.66 146.12 399.43 150.18 382.47C153.59 368.23 156.26 353.9 156.47 339.18C156.53 334.81 158.72 330.36 160.49 326.16C162.22 322.06 164.68 318.25 166.78 314.29C172.44 303.57 171.45 293.3 164.39 283.47C161.59 279.57 158.63 275.77 155.99 271.77C152.1 265.87 151.18 259.5 155.24 253.51C160.43 245.86 165.4 237.79 172.02 231.36C187.67 216.15 203.27 200.85 221.17 187.84C227.25 183.42 232.54 177.62 236.94 171.62C242.05 164.65 242.04 156.46 238.65 148.59C236.89 144.51 234.91 140.4 232.28 136.81C226.55 128.99 222.88 120.6 222.19 111.04C222.03 108.77 221.29 106.54 220.98 104.28C219.31 91.9 212.35 82.85 202.33 75.07C190.94 66.24 180.18 56.66 169.41 47.14C161.08 39.78 157.46 30.53 158.77 19.63C159.7 11.94 157.78 4.88004 153.24 -1.55997C151.74 -3.68996 150.45 -5.96997 149.19 -8.24997C143.56 -18.46 143.6 -28.66 150.06 -38.46C155.17 -46.21 160.86 -53.61 166.18 -61.24C172.11 -69.76 176.1 -78.89 175.19 -89.41C182.11 -89.41 189.03 -89.41 195.95 -89.41L195.9 -89.47Z" fill="#d278ec"/>
<path d="M316.84 -89.47C320.48 -85.98 323.96 -82.3 327.81 -79.03C332.52 -75.04 337.65 -71.51 342.42 -67.58C347.82 -63.14 350.38 -57.63 350.32 -50.58C350.23 -40.01 350.5 -29.4 351.51 -18.88C353.1 -2.24997 362.17 11.9 369.08 26.81C378.57 47.31 390.02 67.12 395.66 89.09C403.94 121.37 402.81 153.12 389.66 184.28C384.91 195.54 380.38 206.99 381.98 219.63C383.16 229 384.33 238.39 384.96 247.8C386.47 270.14 383.01 291.75 372.56 311.95C360.74 334.8 340.15 347.34 315.36 354.57C309.04 356.41 302.63 357.96 296.3 359.77C293.72 360.51 291.14 361.39 288.75 362.57C282.87 365.48 281.73 369.54 285.15 374.97C289.26 381.48 295.56 385.83 302.55 388.76C314.34 393.7 326.42 398.08 338.55 402.23C351.64 406.71 361.37 414.12 367.16 426.56C380.79 455.85 395.12 484.84 408.69 514.16C412.24 521.82 414.37 530.14 416.47 538.31C417.86 543.71 420.42 548.11 424.59 551.83C428.98 555.74 433.59 559.47 437.65 563.67C448.58 574.97 449.16 587.68 438.94 599.61C434.12 605.23 428.38 610.16 422.87 615.22C418.19 619.53 415.05 624.43 413.87 630.65C409.86 651.68 404.21 672.24 394.79 691.78C390.11 701.49 387.82 711.95 388.11 722.66C389.09 759.92 377.9 794.7 364.62 829.06C360.95 838.55 360.62 838.44 349.99 838.44C345.99 838.44 342 838.44 337.05 838.44C340.18 833.09 343.04 828.63 345.48 823.95C356.32 803.14 365.87 781.71 371.03 759.03C373.72 747.19 373.48 734.56 373.15 722.33C372.71 706.51 376.15 691.89 382.52 677.34C387.92 665.01 392.17 652.06 395.25 639.02C397.72 628.55 402.77 620.58 411.59 614.34C417.61 610.07 423.56 605.71 429.43 601.26C431.3 599.85 432.92 598.1 434.49 596.38C443.98 585.96 442.74 573.95 430.7 566.24C424.4 562.21 417.37 559.12 410.41 556.14C402.79 552.88 398.37 548.18 396.01 540.07C384.64 500.82 370.37 462.58 349.32 426.9C344.28 418.35 336.41 413.18 327.46 409.09C314.08 402.97 300.39 397.38 287.42 390.57C276.64 384.91 267.94 376.7 262.88 365.63C262.05 363.81 261.41 361.85 261.1 359.89C259.85 351.98 263.42 346.57 271.72 345.19C279.39 343.92 287.24 343.48 295.03 342.97C307.7 342.13 320.09 340.19 331.85 335.43C355.41 325.9 368.14 308.19 373.68 285.08C378.78 263.8 376.54 242.77 371.44 221.81C368.75 210.77 365.99 199.72 371.21 188.58C372.98 184.8 374.09 180.74 375.8 176.93C387.56 150.79 387.69 123.8 382.35 96.44C378.29 75.61 370.88 55.84 360.06 37.35C355.54 29.63 349.81 22.55 344.66 15.16C337.92 5.46004 334.88 -5.12997 334.65 -16.84C334.38 -30.55 333.42 -44.29 331.83 -57.93C331.32 -62.28 328.48 -66.76 325.61 -70.4C321.38 -75.75 316.1 -80.33 311.43 -85.37C310.47 -86.41 310.22 -88.04 309.64 -89.4C312.05 -89.4 314.45 -89.4 316.86 -89.4L316.84 -89.47Z" fill="#d278ec"/>
<path d="M344.82 -89.47C346.26 -88.33 347.53 -86.78 349.18 -86.12C361.18 -81.29 373.33 -76.8 385.28 -71.86C389.08 -70.29 392.63 -67.97 395.9 -65.51C400.82 -61.8 401.67 -57 399.69 -51.26C396.47 -41.91 392.91 -32.54 391.03 -22.91C387.53 -4.93997 390.15 12.73 397.18 29.7C406.27 51.62 420.69 70.49 435.89 88.76C440.58 94.4 447.34 98.43 452.81 103.53C458.83 109.14 464.37 115.5 462.03 124.19C460.85 128.55 457.93 132.71 454.97 136.36C451.88 140.18 447.88 143.35 444.16 146.69C439.39 150.97 436.84 156.09 435.52 162.28C432.93 174.46 430.36 186.74 426.3 198.51C416.8 226.04 410.98 254.36 404.45 282.56C399 306.09 390.41 328.6 378.88 350.09C376.64 354.26 375.04 358.78 373.56 363.26C372.05 367.82 373.02 372.36 376.59 375.63C387.61 385.71 394.02 398.26 399.72 411.5C404.96 423.66 410.8 435.68 417.66 447.06C422.69 455.4 429.48 462.86 436.03 470.28C444.93 480.37 454.75 489.88 459.47 502.59C465.59 519.08 467.78 536.21 467.12 553.67C466.9 559.39 466.52 565.11 466.58 570.82C466.84 594.57 464.09 617.81 456.17 640.54C451.27 654.61 448.27 669.28 443.94 683.55C441.65 691.09 439.09 698.71 435.33 705.64C425.56 723.66 421.15 742.97 418.85 762.82C416.54 782.86 414.74 802.95 412.68 823.02C412.36 826.15 411.93 829.28 411.36 832.38C410.65 836.23 408.11 838.29 403.98 838.37C400.09 838.44 396.2 838.39 392.23 838.39C393.7 830.31 395.27 822.62 396.48 814.88C400.95 786.32 405.11 757.71 409.84 729.18C411.09 721.61 412.95 713.84 416.24 706.9C426.19 685.9 431.99 663.7 438.59 641.7C442.99 627.01 447.74 612.42 452.75 597.91C456.44 587.22 456.95 576.66 453.26 565.97C449.49 555.07 446.86 544.03 446.3 532.45C445.43 514.56 437.94 498.87 426.43 484.95C415.74 472.03 407.6 457.8 400.55 442.86C395.19 431.51 389.05 420.5 383.53 409.22C377.78 397.47 367.11 391.95 355.09 387.75C350.34 386.09 345.72 383.95 341.36 381.51C337.3 379.24 336.38 375.64 339.2 372.03C342.4 367.94 346.07 364.03 350.17 360.76C377.29 339.12 390.56 310.45 396.14 278.14C398.64 263.65 399.58 248.9 400.77 234.24C401.82 221.23 406.16 209.11 410.18 196.8C414.41 183.86 418.07 170.73 421.18 157.51C422.97 149.91 425.55 142.97 430.85 137.04C442.6 123.9 441.12 117.38 429.51 104.56C425.62 100.27 422.27 95.4 419.42 90.41C411.18 75.99 403.1 61.47 395.35 46.8C384.36 26 376.82 4.13003 377.54 -19.4C377.85 -29.6 380.13 -39.83 382.43 -49.85C384.12 -57.19 382.4 -62.77 375.82 -66.43C368.19 -70.67 360.16 -74.25 352.28 -78.07C346.8 -80.73 341.23 -83.22 335.82 -86C334.38 -86.74 333.4 -88.29 332.21 -89.47C336.42 -89.47 340.63 -89.47 344.85 -89.47H344.82Z" fill="#d278ec"/>
<path d="M887.24 -89.47C888.26 -34.22 889.44 21.03 890.22 76.29C890.49 95.46 890.15 114.66 889.41 133.83C888.85 148.25 892.55 161.91 895.79 175.7C902.67 205 900.67 233.69 888.9 261.56C886.7 266.77 883.68 272.02 879.78 276.17C868.97 287.67 861.57 300.85 855.62 315.06C851.63 324.58 846.8 333.8 842.09 343.03C838.14 350.77 834.49 358.52 833.87 367.3C833.11 378.04 837.87 386.12 846.67 392.31C851.26 395.54 856.46 398.09 860.6 401.76C863.97 404.75 867.44 408.59 868.68 412.66C875.71 435.72 882.52 458.86 888.55 482.17C895.34 508.39 901.89 534.69 907.23 561.2C910.1 575.45 910.63 590.18 911.49 604.74C912.73 625.88 913.04 647.06 914.28 668.2C914.95 679.66 917.75 690.7 923.73 700.99C928.95 709.98 933.13 719.44 933.36 730.08C933.54 738.74 930.99 746.57 925.48 753.24C913.61 767.62 901.45 781.79 889.22 795.9C885.31 800.41 880.75 804.42 876.54 808.71C868.33 817.09 861.49 826.22 859.38 838.1C852.87 838.1 846.5 838.1 839.78 838.1C840.67 826.26 845.85 816.33 854.3 808.3C864.39 798.72 875.79 790.37 885.73 780.66C895 771.61 904.76 763.39 915.48 755.9C929.77 745.92 933.35 733 927.04 717.24C924.5 710.89 921.25 704.61 917.26 698.99C908.74 687 905.49 673.74 905.22 659.63C904.06 599.73 894.89 541.23 873.26 484.65C865.04 463.16 858.61 441.05 846.56 421.05C843.06 415.23 839.61 409.34 835.5 403.91C826.59 392.16 822.14 379.12 821.38 364.75C820.95 356.54 819.58 348.51 814.78 341.39C814.62 341.15 814.49 340.89 814.37 340.63C807.18 325.23 808.26 320.71 822.66 312.93C839.42 303.87 852.85 291.32 864.54 276.92C876.17 262.59 881.97 246.08 884.51 228.41C887.43 208.14 885.72 188.07 879.64 168.54C874.33 151.48 872.28 134.51 873.24 116.57C874.61 90.74 873.68 64.78 873.06 38.88C872.05 -3.90997 870.5 -46.69 869.18 -89.47C875.2 -89.47 881.21 -89.47 887.23 -89.47H887.24Z" fill="#d278ec"/>
<path d="M74.0601 -89.47C74.3701 -86.65 74.71 -83.83 74.97 -81.01C76.6 -63.35 77.17 -45.54 80.08 -28.08C84.12 -3.87997 96.23 17.27 111.4 36.84C120.77 48.92 130.02 61.1 139.81 72.87C145.18 79.33 150.99 85.69 157.59 90.96C174.65 104.57 179.22 121.2 172.66 140.99C161.75 173.88 147.18 204.79 125.58 233.03C104.76 260.25 87.92 290.26 77.59 322.58C63.8 365.71 67.07 408.4 91.13 447.87C103.84 468.72 119.14 488.24 137.7 505.03C144.98 511.61 148.71 519.42 149.11 528.95C149.78 544.81 150.15 560.71 151.77 576.5C153.09 589.41 155.97 602.18 158.31 614.99C159.94 623.94 159.59 632.66 155.77 641.08C151.2 651.18 147.2 661.58 141.77 671.25C135.5 682.41 134.76 693.54 138.77 705.23C141.52 713.25 144.56 721.18 147.37 729.18C148.51 732.43 149.56 735.73 150.34 739.07C153.33 751.97 148.97 760.91 135.85 765.32C121.75 770.06 107.05 773.16 92.8001 777.51C75.3901 782.83 57.84 787.93 40.96 794.55C23.27 801.49 10.51 813.74 5.08003 831.87C4.97003 832.24 4.62004 832.55 3.71004 833.85C1.45004 827.83 -1.27001 817.29 3.78999 807.46C3.88999 807.26 4.55004 805.99 5.52004 804.6C15.77 789.8 44.8 780.99 44.8 780.99C61.31 775.98 82.04 772.42 103.71 767.02C111.8 765 119.87 762.52 127.45 759.19C138.5 754.34 141.92 746.73 138.45 735.54C136.42 729 133.13 722.82 130.53 716.43C127.98 710.17 125.38 703.92 123.18 697.54C120.06 688.52 121.35 679.87 125.73 671.34C130.53 661.97 134.83 652.37 139.23 642.82C145.61 628.97 147.48 614.71 144.7 599.65C141.14 580.36 138.51 560.91 135.32 541.55C133.76 532.08 130.03 523.28 124.2 515.5C112.07 499.32 99.7801 483.24 87.3101 467.29C63.9001 437.35 50.91 403.91 50.17 366.52C49.68 341.79 57.96 319.09 70.87 298.02C85.71 273.79 101.08 249.85 116.66 226.04C127.89 208.88 138.97 191.75 145.36 172.24C146.62 168.39 149.34 164.91 151.76 161.49C158.47 151.98 165.12 142.48 168.15 131.18C171.93 117.06 167.67 105 154.04 98.41C141.37 92.28 132.87 83.15 125.28 72.22C113.35 55.05 99.86 38.84 88.36 21.42C67.16 -10.68 55.57 -45.9 54.03 -83.95C53.96 -85.79 53.57 -87.63 53.33 -89.47C60.25 -89.47 67.17 -89.47 74.09 -89.47H74.0601Z" fill="#d278ec"/>
<path d="M549.69 -89.47C548.89 -74.31 543.7 -61.75 528.55 -54.14C521.97 -50.83 516.07 -46.24 510.05 -41.98C498.49 -33.8 487.06 -25.44 475.58 -17.15C474.74 -16.55 473.9 -15.94 473.03 -15.38C442.81 4.11003 448.77 28.76 465.96 46.54C475.03 55.92 485.9 63.9 496.72 71.53C507.84 79.37 514.24 89.58 514.89 102.22C515.83 120.62 515.97 139.11 515.13 157.5C514.78 165.14 511.15 172.67 508.82 180.2C505.73 190.2 501.95 200.04 499.4 210.16C495.89 224.07 489.69 236.55 480.37 247.7C469.24 261.03 458.19 274.4 450.44 289.91C437.56 315.66 431.89 342.64 437.95 370.81C443.19 395.15 454.22 416.78 475.86 432.3C484.5 438.49 492.97 444.92 501.18 451.61C516.67 464.22 526.92 480.5 536.3 497.46C543.09 509.73 550.73 521.57 557.88 533.65C561.92 540.48 568.17 544.97 574.68 549.48C588.15 558.8 602.31 567.56 614.23 578.49C633.55 596.2 646.26 618.01 650.19 643.7C650.97 648.83 650.55 654.29 649.68 659.45C648.48 666.54 643.89 668.96 636.88 666.37C631.44 664.36 626.29 661.63 621.09 659.07C604.67 651 588.38 642.68 571.86 634.79C549.27 624 519.94 628.3 504.26 644.47C493.98 655.08 488.58 667.88 485.53 681.87C482.05 697.83 485.68 713.06 489.38 728.43C490.61 733.53 491.4 739.04 490.72 744.17C488.71 759.34 492.17 773.67 495.86 788.21C499.77 803.63 502.44 819.33 505.61 834.92C505.8 835.85 505.63 836.85 505.63 838.11C498.39 838.11 491.39 838.11 483.58 838.11C482.28 826.36 480.76 814.39 479.67 802.38C478.65 791.12 477.71 779.84 477.45 768.55C477.28 761.17 477.81 753.68 479.09 746.41C481.12 734.87 478.98 723.64 478 712.26C475.9 688.03 479.75 664.99 494.3 644.27C506.17 627.36 522.9 619.83 543.99 619.74C563.58 619.66 581.65 624.38 598.62 633.57C605.92 637.53 613.54 640.95 621.11 644.45C623.38 645.5 625.91 646.18 628.39 646.64C634.69 647.79 637.87 645.34 638.23 639.26C638.67 631.88 636.04 625.19 632.89 618.66C619.52 590.96 598.23 570.41 569.86 556.64C560.3 552 553.91 545.27 549.83 536.12C545.03 525.37 538.14 515.92 530.47 506.82C525.52 500.95 521.4 494.37 517.49 487.79C508.03 471.85 495.61 458.42 480.61 447.08C476.73 444.14 472.92 441.11 469 438.21C444.96 420.46 434.93 395.58 430.58 368.22C424.43 329.55 437.93 295.5 459.46 263.63C464.01 256.9 468.91 250.39 473.71 243.82C481.73 232.84 486.91 220.82 489.38 207.63C492.52 190.9 497.17 174.34 499.03 157.49C500.85 140.93 502.08 124.14 499.27 107.39C497.09 94.38 492.45 83.05 481.22 74.45C469.75 65.68 458.51 56.54 449.77 45.05C443.53 36.84 438.67 28 436.96 17.91C434 0.430038 440.86 -13.34 455.69 -23.38C465.59 -30.08 476.24 -35.76 486.33 -42.21C499.03 -50.33 511.52 -58.75 524.06 -67.09C532.22 -72.51 534.71 -80.56 535.23 -89.47C540.04 -89.47 544.86 -89.47 549.67 -89.47H549.69Z" fill="#d278ec"/>
<path d="M705.83 -89.47C705.96 -78.9 705.81 -68.32 706.29 -57.77C706.97 -43.03 709 -28.48 712.62 -14.04C714.4 -6.95997 714.38 0.750031 713.85 8.09003C712.86 21.81 713.92 35.33 717.26 48.6C721.72 66.34 720.89 83.49 715.42 101.06C709.37 120.5 704.96 140.42 700.11 160.19C694.49 183.12 685.84 205.1 676.19 226.64C669.26 242.12 665.79 258.1 665.45 274.56C665.04 294.13 666.23 313.72 666.65 333.31C666.75 337.88 666.88 342.49 666.42 347.03C665.4 356.88 666.81 366.3 669.58 375.84C674.25 391.96 678.11 408.3 682.13 424.58C685.17 436.94 689.55 448.71 697 459.36C699.49 462.92 701.79 466.7 703.45 470.66C709.74 485.68 720.33 497.57 732.73 508.24C734.85 510.06 736.79 512.06 738.87 513.93C745.26 519.68 748.24 526.75 748.03 535.09C747.99 536.52 748.16 537.96 748.03 539.38C747.22 548.47 751.27 555.19 759.21 559.88C771.66 567.23 778.61 577.85 780.55 591.59C781.03 594.99 781.7 598.37 782.18 601.77C783.73 612.82 786.18 623.85 786.53 634.93C787 650.11 780.58 664.01 774.55 677.75C770.96 685.92 767.08 694.06 762.42 701.71C752.56 717.89 746.64 735.28 742.74 753.49C738.52 773.24 731.6 792 715.52 806.08C706.15 814.28 695.9 821.57 685.95 829.16C682.1 832.1 678.03 834.77 674.03 837.52C673.46 837.91 672.74 838.35 672.09 838.36C663.89 838.42 655.69 838.4 647.49 838.4C647.29 838.03 647.09 837.66 646.89 837.29C648.86 835.51 650.58 833.33 652.87 832.04C658.16 829.07 663.58 826.24 669.19 823.89C690.89 814.79 709.33 802 721.72 782.34C729.19 770.48 732.45 757.2 734.59 743.76C737.62 724.67 743.08 706.59 752.45 689.24C764.18 667.52 769.36 644.08 766.89 619.44C766.22 612.74 765.89 606.02 765.36 599.31C764.31 586.12 759.65 580.87 746.22 577.25C740.6 575.74 734.91 574.26 729.58 572.04C721.33 568.6 718.06 562.51 720.28 554.26C721.79 548.63 724.12 543.09 726.86 537.88C731.8 528.48 731.26 520.3 722.62 513.16C721.27 512.04 720.22 510.59 718.92 509.41C710.81 502.01 705.31 493.19 702.39 482.82C699.76 473.46 695.2 464.87 688.79 457.38C680.77 448 676.57 437.27 674.04 425.57C670.49 409.15 665.92 393.03 656.16 378.65C650.47 370.26 649.61 360.64 652.09 351.28C658.25 327.95 657.08 304.08 658.89 280.43C660.37 261.2 660.95 241.9 668.32 223.46C672.8 212.26 676.84 200.78 679.63 189.12C685.73 163.61 690.91 137.9 696.48 112.27C697.64 106.95 698.62 101.58 700.06 96.33C703.1 85.19 703.08 74.01 701.67 62.66C698.72 38.93 695.83 15.19 693.31 -8.57997C691.06 -29.79 689.26 -51.04 687.43 -72.29C686.94 -77.99 687.06 -83.73 686.9 -89.46C693.22 -89.46 699.54 -89.46 705.85 -89.46L705.83 -89.47Z" fill="#d278ec"/>
<path d="M301.24 838.17C295.91 838.17 290.86 838.17 284.57 838.17C286.15 825.58 287.2 813.21 289.41 801.03C291.15 791.45 296.53 783.18 302.86 775.58C306.97 770.65 311.08 765.72 315.2 760.8C323.95 750.36 328.54 738.5 328.66 725.12C328.71 720.11 328.81 715.1 328.71 710.09C328.51 699.93 330.19 690.15 334.49 680.8C341.24 666.14 347.91 651.44 354.63 636.77C360.88 623.12 370.98 612.58 383.58 604C388.34 600.76 393.1 597.44 397.38 593.67C399.38 591.91 401.94 588.32 401.25 586.77C400.31 584.64 396.66 582.8 393.91 582.35C384.73 580.86 375.4 580.22 366.19 578.91C361.48 578.24 356.77 577.14 352.26 575.67C346.35 573.74 343.39 569.24 343.4 563.45C343.42 554.02 343.76 544.59 344.25 535.17C345.95 502.33 338.22 472.25 318.76 444.5C307.26 428.1 292.64 415.67 276.2 404.38C255.96 390.47 240.87 372.7 233.52 349.56C230.57 340.27 229.08 330.77 230.47 321.18C233.01 303.72 245.35 293.08 264.42 293C276.66 292.94 288.92 294.91 301.17 295.93C305.36 296.28 309.56 296.71 313.76 296.76C332.04 296.98 344.83 286.8 348.43 269.66C351.53 254.92 349.31 240.54 345.07 226.42C342.06 216.4 338.29 206.57 334.46 196.8C331.41 189.02 331.34 181.81 335.08 174.02C343.4 156.71 346.96 138.42 345.89 119.3C345.26 108.02 345.78 96.6799 344.93 85.4199C343.93 72.1999 337.44 61.4999 326.24 53.4599C318.32 47.7699 310.01 42.3399 305.01 33.8999C301.79 28.4599 299.15 22.6499 296.76 16.8199C294.83 12.1199 295.91 7.5099 299.19 3.4699C300.57 1.76991 301.84 -0.0201035 303.33 -1.6201C314.62 -13.8001 315.49 -27.2101 308.5 -41.5001C304.19 -50.3001 299.49 -58.9301 295.43 -67.8301C292.65 -73.9401 290.66 -80.3701 288.34 -86.6001C294.21 -85.5301 301.15 -85.1901 303.97 -77.7801C308.05 -67.0701 312.3 -56.4101 316.11 -45.6101C318.01 -40.2301 319.39 -34.6401 320.44 -29.0501C321.97 -20.9301 320.61 -12.8401 316.66 -5.6801C309.44 7.4299 312.86 18.6199 322.07 29.1399C326.59 34.2999 331.22 39.3899 336.11 44.2399C344.96 53.0199 351.41 63.1299 354.01 75.0099C357.06 88.9899 360.08 103.05 361.75 117.22C364.34 139.1 358.99 159.9 349.4 179.74C346.13 186.51 346.06 193.14 348.23 200.18C352.54 214.15 357.25 228.06 360.42 242.27C363.61 256.54 362.98 271.02 357.8 285.04C350.74 304.18 335.97 314.17 315.32 315.78C305.54 316.54 295.55 315.09 285.67 314.52C278.33 314.1 270.98 312.9 263.67 313.1C243.75 313.64 237.86 326.78 239.73 341.88C242.62 365.24 256.19 382.68 275.66 396.11C286.22 403.4 297.57 409.65 308.52 416.43C315.83 420.96 321.6 426.85 325.85 434.15C332.11 444.9 339.12 455.29 344.7 466.34C352.5 481.77 356.35 498.48 359.46 515.27C361.63 526.96 363.67 538.69 365.35 550.45C366.35 557.42 370.03 562.04 377.03 563.53C386.67 565.57 396.54 566.67 406.19 568.69C412.12 569.93 418.17 571.5 423.55 574.09C430.68 577.52 432.08 584.75 426.44 590.19C421.13 595.3 414.65 599.35 408.47 603.58C403.24 607.17 397.68 610.33 392.31 613.73C380.12 621.44 372.99 632.55 368.22 645.47C364.54 655.44 360.42 665.29 355.91 674.95C350.69 686.12 347.42 697.53 348.23 709.86C348.66 716.43 348.88 723.01 349.16 729.59C349.91 747.34 344.27 763.07 333.05 777.21C326.27 785.76 320 794.68 313.5 803.43C307.1 812.06 303.94 821.82 302.38 832.15C302.09 834.11 301.62 836.04 301.21 838.14L301.24 838.17Z" fill="#d278ec"/>
</g>
</svg>