<svg xmlns="http://www.w3.org/2000/svg" width="811" height="754" viewBox="0 0 811 754" fill="none">
<g style="mix-blend-mode:multiply">
<path d="M507.35 818.01C506.46 808.17 502.87 799.23 497.75 790.94C490.17 778.66 489.32 768.24 503.69 755.19C507.96 751.31 513.27 748.58 517.7 744.86C524.93 738.79 532.73 733.08 538.66 725.87C547.45 715.18 545.61 706.15 534.25 698.2C520.81 688.79 505.35 684.73 489.42 681.94C476.53 679.68 463.6 677.46 450.88 674.4C434.23 670.39 419.83 661.88 408.59 648.96C399.27 638.24 390.61 626.89 382.32 615.35C379.1 610.87 377.01 605.27 375.6 599.87C371.43 583.79 377.34 573.56 393.36 569.21C403.52 566.45 413.08 562.66 421.81 556.79C430.43 551 439.32 550.13 448.73 554.96C460.61 561.05 473.39 561.44 486.37 560.73C498.29 560.07 510.27 558.85 522.14 559.52C541.61 560.63 550.31 570.19 552.97 585.97C554.27 593.69 558.96 598.86 566.01 602.07C578.08 607.56 590.05 607.45 602 601.68C620.88 592.57 633.86 577.53 643.79 559.63C648.33 551.45 645.82 543.52 641.07 536.2C635.4 527.47 627.16 521.64 618.31 516.54C613.13 513.55 608.04 510.4 602.76 507.6C587.92 499.73 580.05 486.65 575.18 471.25C574.03 467.6 572.7 463.99 571.67 460.3C568.44 448.67 562.37 438.67 554.42 429.71C534.08 406.76 513.73 383.83 493.45 360.82C490.32 357.27 487.22 353.6 484.7 349.62C478.43 339.71 479.32 331.41 487.25 322.88C497.12 312.26 509.72 305.63 522.41 299.16C548.99 285.61 576.91 275.86 606.1 269.67C609.5 268.95 612.77 267.65 616.11 266.63C616.11 266.2 616.1 265.77 616.09 265.34C614.6 265.17 613.12 264.88 611.63 264.83C583.6 263.86 555.58 262.14 528.26 255.46C501.55 248.94 475.05 241.51 448.59 234.01C442.8 232.37 437.36 229.12 432.14 225.98C424.44 221.33 420.51 214.29 421.38 205.11C422.69 191.24 421.04 177.6 419.04 163.9C416.76 148.3 408.88 136.54 395.27 129.28C382.75 122.6 369.47 117.34 356.62 111.25C349.72 107.98 342.97 104.38 336.23 100.77C334.08 99.62 332.08 98.12 330.22 96.55C319.65 87.62 318.57 79.05 328.94 69.95C339.32 60.85 350.88 52.92 362.61 45.58C374.39 38.21 387.1 32.37 399.22 25.52C403.71 22.98 407.92 19.78 411.82 16.37C417.23 11.64 419.52 5.31999 416.94 -1.51001C414.82 -7.15001 412.1 -12.88 408.34 -17.52C400.43 -27.27 395.65 -37.95 394.5 -50.47C393.7 -59.17 392.62 -67.9 390.84 -76.44C388.16 -89.29 393.04 -98.84 402.45 -106.9C414.92 -117.57 429.23 -125.37 444.32 -131.23C474.41 -142.92 504.9 -153.55 535.2 -164.68C551.21 -170.56 567.19 -176.51 583.12 -182.6C585.64 -183.56 587.93 -185.27 590.11 -186.92C593.08 -189.17 592.66 -191.48 589.22 -193C587.83 -193.62 586.41 -194.18 585.03 -194.82C584.8 -194.93 584.69 -195.3 584.17 -196.08C585.37 -196.44 586.38 -196.88 587.42 -197.03C595.62 -198.21 603.95 -198.81 611.99 -200.67C617.6 -201.97 621.97 -200.17 626.44 -197.77C629.41 -196.18 629.41 -193.62 626.63 -192.1C620.11 -188.52 613.59 -184.69 606.63 -182.19C572.94 -170.09 539 -158.68 505.36 -146.44C484.41 -138.82 463.87 -130.07 445.49 -117.09C442.74 -115.15 440.18 -112.94 437.61 -110.76C426.5 -101.34 424.58 -89.52 428.63 -76.15C430.64 -69.52 435.25 -65.07 441.22 -62.22C448.41 -58.79 455.98 -56.17 463.19 -52.79C468.71 -50.19 474.32 -47.48 479.19 -43.87C487.79 -37.49 489.18 -29.1 483.64 -19.95C466.16 8.89 442.16 29.59 409.52 39.81C390.76 45.68 371.61 50.77 354.35 60.56C348.03 64.14 341.95 68.42 336.55 73.26C329.47 79.6 329.48 86.9 336.91 92.86C342.55 97.38 349.14 101.09 355.85 103.8C368.29 108.81 381.15 112.75 393.79 117.27C409.29 122.8 423.32 130.72 431.56 145.57C435.66 152.97 438 161.38 440.81 169.45C445.96 184.25 453.94 197.51 463.41 209.8C470.54 219.06 480.94 224.05 491.57 228.27C521.34 240.07 552.42 245.86 584.27 247.65C610.64 249.13 637.05 250.06 663.42 251.63C669.75 252.01 676.06 253.65 682.22 255.33C684.59 255.98 686.5 258.32 688.63 259.89C686.97 261.88 685.69 264.84 683.58 265.67C676.22 268.57 668.73 271.48 661.01 273.05C635.63 278.23 610.09 282.57 584.71 287.71C563.18 292.07 542.43 298.92 523.85 311.01C518.66 314.38 513.9 318.69 509.74 323.29C504.3 329.31 503.59 336.71 507.39 343.87C510.02 348.83 513.25 353.62 516.95 357.85C532.66 375.83 550.31 391.66 570.03 405.21C578.1 410.76 585.89 416.8 593.32 423.18C603.51 431.93 607.02 443.2 604.02 456.38C603.24 459.82 602.58 463.3 601.5 466.65C597.88 477.9 601.2 487.07 610.29 493.93C617.74 499.55 626.05 504.02 633.53 509.6C646.29 519.12 659.42 528.32 671.06 539.09C686.47 553.34 686.04 570.42 669.81 583.87C648.56 601.49 626.15 617.69 599.35 626.24C585.6 630.63 571.56 632.15 557.14 629.76C543.01 627.42 531.9 620.44 523.92 608.72C520.05 603.04 516.84 596.89 513.55 590.84C510.56 585.34 506.35 581.59 499.97 581.12C480.41 579.66 460.84 578.14 441.26 577.08C431.61 576.56 422.4 579.38 413.67 583.35C403.18 588.12 398.35 597.32 402.82 607.9C415.76 638.58 435.22 662.8 470.11 669.8C480.12 671.81 490.28 673.05 500.32 674.94C518.83 678.44 535.68 685.87 550.56 697.42C561.64 706.02 563.61 714.13 556.63 726.24C552.15 734.01 546.24 740.99 540.75 748.14C537.67 752.14 533.97 755.66 530.83 759.62C523.9 768.36 523.47 774.12 529.23 783.58C534.29 791.9 538.85 800.36 540.05 810.22C540.18 811.27 540.15 812.34 540.19 813.4C529.25 814.93 518.31 816.46 507.37 817.99L507.35 818.01Z" fill="#f24475"/>
<path d="M-104.4 903.49C-103.05 888.16 -101.27 872.86 -100.5 857.5C-100.05 848.69 -100.83 839.76 -101.76 830.96C-103.08 818.46 -105.18 806.04 -106.67 793.55C-107.24 788.71 -107.42 783.75 -107.11 778.89C-106.29 766.01 -99.89 759.74 -87.01 759.15C-79.83 758.82 -72.63 759.08 -65.44 759.02C-61.46 758.99 -57.38 759.42 -53.53 758.68C-31.23 754.39 -9.15001 757.01 12.98 760.05C26.99 761.98 41.06 763.45 55.13 764.91C69.83 766.44 77.46 775.51 81.28 788.83C82.25 792.21 83.1 795.64 84.3 798.94C86.71 805.56 90.11 808.12 96.97 806.48C107.02 804.08 117.1 801.28 126.66 797.4C145.38 789.8 163.83 781.49 182.23 773.1C187.15 770.86 191.69 767.57 195.97 764.21C199.38 761.54 199.04 758.65 194.91 757.43C186.78 755.03 178.44 753.21 170.08 751.76C155.55 749.23 140.98 746.89 126.37 744.94C105.38 742.14 92.15 730.18 84.66 710.95C77.64 692.93 70.47 674.97 63.54 656.92C57.92 642.28 56.83 627.03 56.53 611.43C56.26 597.58 53.91 583.74 52.09 569.95C51.43 565 50 560.06 48.26 555.36C42.15 538.92 29.18 531.4 12.59 530.4C-0.0200043 529.64 -12.73 530.92 -25.4 530.76C-37.11 530.61 -48.81 529.91 -60.49 529.08C-63.27 528.88 -66.08 527.48 -68.64 526.16C-78.74 520.94 -82.16 512.3 -78.43 501.58C-76.82 496.96 -74.68 492.52 -73.19 487.86C-69.68 476.91 -73.89 471.24 -85.23 472.35C-94.21 473.23 -103.07 475.25 -112.02 476.5C-120.49 477.69 -129 479.32 -137.51 479.37C-149.38 479.45 -166.85 468.68 -169.4 454.51C-170.75 447.01 -170.05 439.64 -166.82 432.98C-162.5 424.05 -157.59 415.35 -152.23 407C-146.3 397.76 -140.8 388.05 -131.61 381.33C-130.19 380.29 -129.09 378.59 -128.27 376.98C-125.63 371.78 -121.25 370.12 -115.98 371.25C-107.9 372.98 -99.93 375.18 -91.92 377.23C-87.17 378.44 -82.5 380.05 -77.69 380.9C-72.03 381.9 -69.79 379.97 -69.03 374.22C-68.61 371.03 -68.62 367.78 -68.07 364.61C-66.76 356.99 -63.43 353.72 -55.69 353.62C-44.21 353.47 -32.72 354.12 -21.23 354.08C-3.8 354.01 13.69 354.44 31.04 353.14C45 352.09 59.08 349.73 71.86 343.34C76.26 341.14 80.34 337.88 83.81 334.36C87.93 330.19 87.81 325.19 83.36 321.43C78.61 317.42 73.41 313.56 67.78 311.06C42.39 299.76 17.21 287.75 -8.89001 278.32C-35.9 268.56 -59.38 254.44 -79.14 233.72C-85.36 227.19 -92.41 221.45 -99.15 215.42C-104.81 210.36 -109.74 204.82 -112.14 197.41C-117.25 181.58 -128.59 170.87 -141.72 161.69C-164.32 145.88 -190.15 139.09 -216.87 134.64C-228.11 132.77 -239.27 130.38 -250.45 128.15C-251.93 127.85 -253.39 127.22 -254.72 126.5C-262.75 122.16 -263.22 115.86 -255.25 111.4C-248.94 107.87 -242.05 105.16 -235.14 102.95C-216.75 97.06 -197.66 93.3799 -180.34 84.2C-161.42 74.1799 -149.33 59.31 -145.37 38.09C-144.81 35.09 -144.1 32.1099 -143.57 29.0999C-139.82 7.84995 -126.79 -7.27005 -110.83 -20.41C-94.64 -33.7401 -76.17 -43.36 -57.25 -52C-18.21 -69.83 21.05 -87.18 60.15 -104.9C66.5 -107.78 72.62 -111.26 78.52 -114.98C83.6 -118.18 83.41 -119.48 78.82 -123.54C78.42 -123.9 78.28 -124.55 77.63 -125.83L89.61 -127.5C94.62 -128.2 99.74 -128.49 104.62 -129.72C109.57 -130.97 112.99 -129.68 116.05 -124.82C114.47 -123.34 113.04 -121.2 111.04 -120.23C95.29 -112.64 79.54 -105.03 63.58 -97.8801C38.21 -86.5201 13.07 -74.8 -8.59 -56.95C-13.91 -52.57 -19.14 -48.0301 -24.02 -43.1801C-36 -31.2901 -49.78 -22.0701 -64.46 -13.8501C-76.19 -7.28005 -87.53 0.0599518 -98.64 7.63995C-109.29 14.8999 -116.56 24.9999 -121.27 37.0999C-125.83 48.8199 -130.96 60.3299 -139.74 69.7199C-151.44 82.2299 -166.42 89.46 -182.05 95.34C-197.01 100.97 -212.34 105.61 -227.33 111.18C-230.48 112.35 -234.96 115.54 -235.1 118.01C-235.35 122.31 -229.99 123 -226.47 123.95C-209.41 128.54 -192.16 132.46 -175.2 137.36C-152.93 143.79 -132.26 153.72 -114.95 169.43C-108.78 175.03 -102.74 181.35 -98.61 188.49C-86.04 210.27 -67.93 226.34 -47.09 239.26C-30.59 249.48 -12.86 257.7 4.21999 267C33.24 282.81 62.17 298.78 91.13 314.7C92.73 315.58 94.27 316.61 95.75 317.7C104.65 324.29 105.19 329.84 97.89 338.27C87.87 349.84 74.64 355.9 60.33 359.91C34.7 367.1 8.99001 374.04 -16.66 381.16C-28.61 384.47 -31.87 390.16 -28.62 401.94C-27.4 406.36 -25.76 410.66 -24.44 415.05C-22.4 421.83 -25.85 430.98 -31.7 434.98C-34.82 437.11 -36.92 435.69 -39.3 433.59C-58.42 416.69 -81.02 406.59 -105.57 400.79C-117.92 397.87 -127.67 402.08 -134.17 413.62C-138.86 421.95 -143.71 430.08 -144.12 439.96C-144.72 454.22 -137.01 461.64 -122.78 459.79C-111.54 458.33 -100.42 455.95 -89.21 454.26C-83.94 453.47 -78.55 452.92 -73.23 453.02C-61.73 453.22 -54.98 458.71 -53.65 470.12C-52.83 477.11 -53.57 484.42 -54.57 491.45C-55.86 500.53 -54.37 504.81 -46.32 509.29C-38.43 513.68 -29.69 514.29 -20.93 514.42C-8.39999 514.61 4.20998 513.81 16.66 514.86C37.94 516.65 51.73 530.87 55.77 551.87C59.14 569.41 63.97 586.66 67.75 604.13C69.2 610.81 70.07 617.72 70.26 624.56C70.77 643.29 76.7 660.6 83.68 677.61C88.07 688.31 92.95 698.83 98.03 709.22C104.71 722.89 115.83 731.45 130.23 736.09C151.56 742.96 173.66 745.17 195.8 747.27C205.34 748.17 214.87 749.15 224.35 750.53C226.43 750.83 228.25 752.98 230.18 754.27C228.85 756.2 227.96 758.96 226.12 759.92C214.42 766.06 202.54 771.88 190.66 777.68C174.68 785.49 158.5 792.9 142.67 801.01C128.7 808.17 117.52 818.76 107.89 831.15C101.98 838.76 96.01 846.49 89.04 853.09C73.37 867.93 54.43 873.76 33.15 869.59C23.77 867.75 14.5 864.67 5.62999 861.06C-2.47002 857.77 -4.37999 853.2 -3.58 844.53C-3.28001 841.32 -2.84004 838.13 -2.39003 834.94C-1.00002 824.96 2.28999 821.28 12.25 819.38C18.57 818.18 25.02 817.64 31.37 816.58C40.62 815.05 48.95 811.68 55.71 804.8C66.61 793.7 63.98 779.02 49.21 774.31C39.61 771.25 29.31 770.21 19.25 768.8C6.00999 766.95 -7.27 765.01 -20.59 764.33C-28.41 763.93 -36.5 765.28 -44.21 767C-54.16 769.23 -63.89 772.5 -73.66 775.53C-83.54 778.59 -88.03 785.88 -88.73 795.82C-89.96 813.38 -86.74 830.35 -81.07 846.83C-78.1 855.46 -77.99 863.62 -80.31 872.45C-82.74 881.7 -83.68 891.35 -85.27 900.83C-91.65 901.72 -98.03 902.61 -104.42 903.51L-104.4 903.49Z" fill="#f24475"/>
<path d="M-139.04 908.33C-141.12 899.79 -140.11 891.38 -138.61 882.84C-136.23 869.33 -132.93 855.75 -132.66 842.15C-132.15 816.49 -139.87 792.86 -155.84 772.44C-165.85 759.64 -173.72 745.92 -179 730.46C-184.33 714.85 -184.33 699.04 -184.5 682.86C-184.64 668.87 -186.85 654.74 -189.82 641.03C-191.11 635.09 -196.26 629.79 -200.27 624.69C-205.06 618.58 -211.18 613.42 -215.39 606.98C-217.45 603.83 -217.74 598.35 -216.65 594.55C-212.35 579.53 -199.75 573.59 -186.33 569.32C-172.2 564.83 -157.54 563.37 -142.75 563.3C-137.18 563.27 -136.63 564.03 -137.74 569.54C-138.95 575.55 -140.51 581.51 -141.33 587.57C-142.58 596.81 -139.29 602.49 -130.73 606.3C-119.52 611.28 -107.44 612.44 -95.44 613.53C-66.57 616.15 -37.68 618.51 -8.79001 620.98C-0.119995 621.72 7.21002 619.59 13.79 613.22C21.72 605.54 29.21 597.84 32.4 586.95C37.13 570.78 30.68 558.11 14.29 554.36C4.77002 552.18 -5.42001 551.32 -15.16 552C-49.71 554.41 -84.19 557.75 -118.71 560.69C-121.91 560.96 -125.15 560.88 -128.36 561.04C-132.15 561.23 -133.27 559.36 -132.53 555.89C-131.74 552.14 -131.03 548.37 -130.23 544.62C-128.29 535.49 -131.08 527.71 -138.81 523.02C-146.31 518.47 -154.49 514.42 -162.9 512.12C-175.55 508.65 -188.64 506.7 -201.61 504.48C-211.73 502.75 -221.35 499.91 -229.72 493.83C-231.23 492.74 -232.61 490.62 -232.88 488.8C-236.33 465.27 -239.51 441.71 -242.91 418.17C-243.49 414.13 -242.28 412.01 -238.23 411.43C-236.11 411.13 -234.03 410.39 -231.9 410.24C-217.16 409.15 -205.92 401.69 -196.58 390.84C-193.08 386.78 -189.6 382.67 -186.45 378.33C-183 373.58 -182.95 368.96 -187.3 365.07C-192.62 360.31 -198.83 356.56 -204.61 352.3C-215.95 343.95 -227.4 335.73 -238.5 327.07C-241.41 324.8 -243.49 321.3 -245.41 318.04C-246.29 316.55 -246.62 313.76 -245.78 312.55C-245.07 311.53 -242.22 311.51 -240.45 311.81C-229.34 313.69 -218.33 316.33 -207.16 317.64C-198.42 318.67 -189.48 318.53 -180.65 318.21C-171 317.85 -163.58 312.76 -157.88 305.21C-154.46 300.69 -151.48 295.84 -148.13 291.27C-144.1 285.79 -140.23 284.79 -134.17 287.81C-130.06 289.86 -126.27 292.55 -122.16 294.59C-112.88 299.2 -105.99 295.91 -105.25 285.58C-104.69 277.77 -105.3 269.62 -106.95 261.96C-108.98 252.51 -116.7 247.13 -125.44 245.17C-137.59 242.45 -150.08 240.84 -162.5 239.78C-174.06 238.79 -185.73 239.28 -197.34 238.83C-200.89 238.69 -204.4 237.59 -209.26 236.69C-207.28 233.81 -206.44 231.51 -204.8 230.38C-195.62 224.08 -186.16 218.19 -176.96 211.92C-171.3 208.06 -165.38 204.34 -160.54 199.58C-152.94 192.13 -153.42 186.05 -161.12 178.78C-176.42 164.33 -195.17 156.56 -215.33 152.36C-228.56 149.6 -242.1 148.11 -255.58 146.82C-266.16 145.8 -274.1 140.22 -281.93 134.02C-282.35 133.69 -282.64 133.01 -282.72 132.45C-283.69 125.77 -285.18 119.09 -285.24 112.39C-285.26 109.81 -282.46 106.66 -280.15 104.72C-274.33 99.8299 -268.53 94.5899 -261.86 91.1599C-253.81 87.0099 -250.27 81.2299 -250.55 72.55C-250.59 71.17 -250.47 69.7899 -250.41 68.4099C-250.24 64.2399 -247.95 62.09 -243.91 62.42C-238.88 62.84 -233.87 63.64 -228.88 64.42C-209.66 67.41 -199.4 57.4799 -202.31 38.08C-203.72 28.69 -206.15 19.46 -208.06 10.14C-208.77 6.68996 -209.51 3.21994 -209.94 -0.270058C-211.19 -10.2801 -207.2 -16.8501 -197.77 -20.3001C-190.6 -22.9301 -183.34 -25.2901 -176.19 -27.9401C-169.05 -30.5901 -163.29 -35.2201 -157.8 -40.4701C-154.01 -44.1001 -149.53 -47.2801 -144.85 -49.6801C-125.74 -59.5101 -104.97 -64.8601 -84.67 -71.4901C-58.58 -80.0101 -32.49 -88.5201 -6.51001 -97.3701C-1.69 -99.0101 2.79999 -101.96 7.04999 -104.86C11.43 -107.85 11.13 -109.71 6.70001 -112.55C5.88 -113.07 5.22 -113.84 3.94 -114.99C5.75 -115.45 6.82999 -115.83 7.95999 -115.99C15.25 -117.04 22.67 -117.52 29.79 -119.25C34.59 -120.41 37.19 -117.64 40.09 -115.39C40.78 -114.86 40.23 -110.96 39.14 -110.19C34.17 -106.7 29.13 -102.95 23.54 -100.78C-0.459991 -91.4701 -24.51 -82.2401 -48.82 -73.8001C-80.87 -62.6701 -113.41 -52.8 -142.89 -35.5301C-151.3 -30.6001 -158.85 -24.1801 -166.71 -18.3301C-172.09 -14.3201 -174.85 -8.69006 -175.12 -2.11005C-175.65 10.5999 -176.08 23.3199 -176.11 36.0399C-176.15 57.6599 -190.35 77.3999 -211.65 81.7199C-229.67 85.3799 -245.67 93.3499 -261.8 101.23C-266.7 103.62 -271.19 107.65 -274.69 111.9C-280.04 118.38 -278.61 125.5 -272.01 130.75C-263.75 137.32 -253.73 138.69 -243.78 140.45C-226.55 143.5 -209.18 146.06 -192.23 150.27C-174.42 154.69 -158.93 164.09 -145.75 177.03C-138.2 184.44 -137.09 190.24 -142.01 199.71C-144.33 204.18 -147.37 208.27 -150.09 212.53C-154.24 219.02 -153.3 222.14 -145.99 224.49C-140.31 226.32 -134.53 227.93 -128.69 229.15C-108.16 233.44 -92.85 244.28 -83.85 263.6C-79.32 273.32 -72.47 281.31 -64.62 288.61C-60.98 292 -57.62 296.05 -55.34 300.43C-51.71 307.4 -53.62 312.68 -60.8 315.89C-66.2 318.31 -72.03 319.96 -77.83 321.23C-85.91 323.01 -94.09 324.54 -102.32 325.37C-109.13 326.05 -116.12 326.17 -122.92 325.45C-134.33 324.24 -145.42 325.2 -156.75 326.85C-170.48 328.85 -184.5 328.89 -198.39 329.8C-200.68 329.95 -203.01 330.03 -205.23 330.53C-209.77 331.54 -210.75 334.05 -207.23 337.16C-202.11 341.7 -196.51 345.74 -190.81 349.56C-183.83 354.23 -176.14 357.93 -169.48 363C-161.14 369.35 -160.29 375.03 -166.07 383.61C-174.8 396.57 -184.2 409.08 -193.07 421.96C-198.27 429.52 -203.65 437.08 -207.75 445.24C-214.19 458.07 -211.87 469.09 -200.64 478.12C-194.78 482.84 -187.82 486.68 -180.76 489.32C-166.43 494.68 -151.7 498.97 -137.13 503.68C-133.63 504.81 -130.08 505.77 -126.61 506.98C-116.73 510.4 -110.58 517.32 -107.61 527.28C-103.42 541.33 -98.75 545.89 -83.93 546.47C-68.54 547.08 -53.08 545.99 -37.65 545.63C-21.63 545.26 -5.53 543.75 10.4 544.79C29.48 546.04 41.09 557.71 42.58 574.18C43.66 586.09 41.92 597.61 38.05 608.92C36.53 613.37 35.49 618.07 34.92 622.74C33.04 638.41 36.76 652.81 45.22 666.14C48.91 671.95 52.11 678.07 55.36 684.14C60.92 694.53 60.35 704.96 54.2 714.74C50.14 721.2 45.43 727.35 40.33 733.03C37.81 735.83 34.01 738.22 30.37 739.15C16.43 742.71 2.32999 742.29 -11.44 738.19C-21.49 735.2 -30.7 722.53 -31.31 712.11C-31.64 706.52 -29.38 703.63 -23.63 703.52C-17.52 703.4 -11.35 704.53 -5.28 704.11C-0.200012 703.76 4.98001 702.46 9.76001 700.63C14.52 698.81 15.52 695.11 12.57 690.95C8.55002 685.27 9.46997 680.17 12.86 674.76C15.22 671 17.51 667.15 19.34 663.12C23.37 654.27 21.85 648.85 13.82 643.36C1.95001 635.24 -11.31 630.63 -25.58 629.54C-52.51 627.49 -79.47 625.89 -106.41 624C-121.53 622.94 -136.62 621.45 -151.75 620.6C-162.79 619.98 -164.01 621.51 -167.5 631.78C-171.2 642.69 -170.35 653.19 -166.38 663.71C-165.19 666.87 -164.12 670.07 -162.98 673.24C-160.36 680.52 -160.26 687.74 -164.11 694.6C-170.53 706.05 -169.57 717.24 -163.17 728.23C-156.09 740.39 -149.44 752.86 -141.55 764.48C-130.49 780.79 -125.69 799.11 -121.86 817.96C-117.85 837.68 -118.94 857.2 -123.27 876.73C-125.43 886.47 -126.74 896.34 -124.39 906.3C-129.25 906.98 -134.11 907.66 -138.98 908.34L-139.04 908.33ZM-183.95 579.63C-189.08 581.83 -194.62 583.4 -199.26 586.36C-208.92 592.52 -209.04 602.91 -199.3 608.96C-194.12 612.18 -187.92 614.19 -181.9 615.55C-168.15 618.66 -165.28 616.48 -162.53 602.62C-159.05 585.09 -165.75 578.05 -183.95 579.62V579.63Z" fill="#f24475"/>
<path d="M330.48 842.72C329.48 841.2 328.56 839.61 327.48 838.16C324.36 833.99 320.95 830.01 318.07 825.69C310.15 813.82 310.37 804.72 318.81 793.09C329.67 778.11 344.2 768.55 362.13 763.95C392.21 756.24 421.57 746.5 449.23 732.18C454.2 729.61 458.97 726.42 463.28 722.84C469.01 718.08 468.21 712.84 461.67 709.44C452.21 704.53 441.83 703.8 431.48 703.15C418.86 702.36 406.24 701.72 393.62 701.04C379.29 700.27 365.96 696.27 353.72 688.74C337.16 678.55 319.62 669.91 304.91 656.82C294.44 647.51 287.63 635.93 284.29 622.71C279.58 604.05 267.99 592.76 250.21 586.93C231.53 580.8 212.16 578.52 192.72 576.63C174.25 574.83 155.73 573.4 137.32 571.13C132.23 570.5 127.11 568.01 122.58 565.38C117.58 562.46 117.17 557.37 120.77 552.75C126.14 545.84 133.82 542.07 141.68 539.33C156.21 534.27 171.03 530.06 185.75 525.55C222.38 514.34 259.87 504.58 292.45 483.96C315.22 469.55 338.64 465.09 364.55 467.38C370.03 467.86 375.85 466.95 381.22 465.55C386.98 464.05 389.86 458.76 389.5 452.76C388.76 440.31 383.02 429.81 373.31 423.01C360.33 413.91 346.06 406.63 332.19 398.84C326.19 395.47 319.75 392.87 313.6 389.75C303.14 384.45 298.08 375.29 295.97 364.24C294.75 357.84 297.43 352.61 303.79 351.89C316.81 350.42 329.23 344.06 343.05 348.07C351 350.37 363.63 342.8 367.19 335.34C370.43 328.55 375.28 323.98 382.6 321.28C402.44 313.95 422.12 306.15 441.73 298.19C445.73 296.57 449.44 293.79 452.67 290.86C456.83 287.09 456.24 283.07 451.11 280.67C446.46 278.5 441.45 276.75 436.42 275.82C413.61 271.58 390.66 269.2 367.36 270.45C336.84 272.08 306.63 275.93 276.53 281.07C251.6 285.33 226.55 288.79 201.15 286.36C186.2 284.93 171.8 281.52 159.72 271.95C155.93 268.95 152.32 265.36 149.65 261.36C138.51 244.69 125.44 229.76 111.03 215.87C106.44 211.44 102.67 206.11 98.8 200.99C97.26 198.95 96.19 196.45 95.36 194.01C90.12 178.55 99.5 166.18 115.75 167.06C125.14 167.57 132.95 171.49 138.83 178.79C143.64 184.76 148.17 190.96 152.66 197.17C163.1 211.58 176.84 220.74 194.34 224.52C208.63 227.61 222.88 230.12 237.6 228.53C269.01 225.15 292.2 209.09 308.6 182.62C311.57 177.82 313.99 172.64 316.32 167.48C322.54 153.67 321.64 140.02 313 127.77C306.7 118.83 298.84 110.98 291.66 102.66C288.37 98.84 284.84 95.22 281.76 91.23C275.85 83.57 274.77 75.13 278.58 66.19C280.92 60.7 283.44 55.28 285.8 49.8C291.54 36.45 290.15 23.67 280.6 12.87C268.84 -0.430008 256.14 -12.89 243.86 -25.73C237.4 -32.48 230.47 -38.86 224.66 -46.13C215.44 -57.66 216.4 -67.85 226.7 -78.55C236.63 -88.86 248.92 -95.79 261.55 -102.05C287.96 -115.14 315.8 -124.64 343.61 -134.23C365.92 -141.92 388.03 -150.16 410.17 -158.32C412.83 -159.3 415.26 -161.1 417.56 -162.82C420.55 -165.05 420.17 -167.29 416.78 -168.93C415.25 -169.67 413.75 -170.46 412.47 -172.3C413.89 -172.59 415.3 -172.94 416.73 -173.15C424.48 -174.26 432.39 -174.68 439.92 -176.62C445.66 -178.1 449.87 -175.62 454.31 -173.51C457.29 -172.09 456.99 -169.39 454.13 -167.88C447.55 -164.4 441.05 -160.55 434.08 -158.05C404.39 -147.42 374.49 -137.38 344.78 -126.82C322.49 -118.89 300.51 -110.14 280.43 -97.38C275.92 -94.52 271.56 -91.32 267.53 -87.83C254.57 -76.6 250.49 -64.76 258.63 -45.22C261.35 -38.69 265.97 -32.86 270.27 -27.12C278.9 -15.59 287.87 -4.31 296.76 7.02C308.2 21.6 308.45 36.65 298.93 52.23C296.13 56.81 293.46 61.46 290.8 66.12C285.1 76.09 285.93 85.6 293.71 93.98C300.68 101.49 308.34 108.35 315.42 115.76C320.59 121.17 325.7 126.72 330.13 132.72C337.76 143.05 339.5 154.67 334.88 166.7C316.1 215.62 282.9 248.34 230.28 258.97C225.62 259.91 220.91 260.65 216.32 261.86C214.47 262.35 212.89 263.84 211.18 264.87C211.23 265.46 211.28 266.05 211.32 266.63C214.88 267.57 218.42 269.26 221.99 269.31C235.62 269.49 249.27 269.59 262.88 268.91C291.95 267.46 321 265.48 350.06 263.75C385.58 261.65 420.7 264.63 455.42 272.29C460.14 273.33 464.79 275.18 469.11 277.37C475.95 280.84 476.71 286.04 470.57 290.49C463.58 295.55 456.09 300.13 448.28 303.77C433.66 310.59 418.58 316.41 403.84 322.97C390.7 328.81 379.1 336.31 371.53 349.5C368.27 355.18 362.12 359.45 356.63 363.48C353.67 365.66 353.74 367.39 355.59 369.25C358.14 371.81 361 374.42 364.24 375.86C372.35 379.45 380.77 382.33 389.01 385.62C395.54 388.23 402.31 390.46 408.38 393.9C415.83 398.12 416.7 404.2 412.07 411.45C411.82 411.84 411.64 412.31 411.31 412.6C400.82 421.85 400.21 434.12 400.67 446.8C401.45 468.38 386.56 479.46 367.18 477.79C351.05 476.4 336.61 480.37 321.98 486.77C302.02 495.5 281.56 503.24 260.91 510.23C237.09 518.29 212.81 525.02 188.76 532.43C174.49 536.83 160.2 541.21 146.1 546.09C142.21 547.44 138.56 550.17 135.49 553.01C132.14 556.11 132.55 559.87 136.75 561.49C143.06 563.93 149.77 565.97 156.47 566.65C179.94 569.04 203.5 570.49 226.97 572.85C243.05 574.46 259.1 576.73 274.12 583.35C286.13 588.65 295.76 596.92 300.11 609.3C310.64 639.29 332.39 658.42 358.38 674.86C380.93 689.13 405.3 694.65 431.2 696.81C442.68 697.77 454.08 699.99 465.41 702.18C469.51 702.97 473.52 704.96 477.2 707.07C483.14 710.48 484.3 715.91 479.59 720.83C475.21 725.4 470.19 729.8 464.64 732.72C441.16 745.06 417.28 756.66 393.73 768.88C383.02 774.44 372.59 780.58 362.35 786.97C358.82 789.17 355.89 792.64 353.32 796.02C348.91 801.81 348.93 807.67 353.55 813.34C358.68 819.63 364.39 825.45 369.75 831.55C371.13 833.12 372.18 835 373.38 836.74C359.1 838.74 344.81 840.73 330.53 842.73L330.48 842.72Z" fill="#f24475"/>
<path d="M257.55 852.91C255.98 846.36 254.71 839.71 252.77 833.27C249.51 822.45 251.77 812.74 258.8 804.41C264.9 797.18 272.01 790.81 278.48 783.87C286.39 775.37 295 767.32 301.7 757.93C313.84 740.89 310.47 722.29 294.2 709.08C285.18 701.76 274.59 697.88 263.53 695C257.46 693.42 251.37 691.86 245.38 690.02C236.44 687.27 230.84 681.56 229.11 672C226.62 658.27 223.19 644.7 221.07 630.92C219.19 618.67 212.61 610.59 202.06 605.01C188.83 598.01 174.32 595.76 159.85 593.23C144.07 590.47 128.28 587.64 113.78 580.26C113.1 579.91 112.38 579.63 111.72 579.24C94.32 569.08 92.49 556.14 106.61 541.7C117.86 530.2 131.59 522.04 145.61 514.58C159.65 507.11 174.29 500.78 188.44 493.52C193.42 490.97 198.05 487.48 202.3 483.8C207.4 479.39 208.91 473.63 206.18 467.13C206.12 466.99 206.08 466.84 206.02 466.7C196.36 445.65 193.12 423.37 192.73 400.41C192.64 395.35 190.81 390.19 189.12 385.31C183.57 369.33 187.63 356.08 200 345.07C209.9 336.26 221.89 331.22 234 326.39C249.42 320.24 265.61 318 281.98 316.34C308.66 313.64 335.59 312.78 361.81 306.52C370.08 304.55 378.03 301.21 386.11 298.47C386.68 298.28 387.29 297.96 387.67 297.52C389.17 295.77 390.6 293.95 392.05 292.15C390.13 290.86 388.31 288.67 386.28 288.45C377.52 287.49 368.65 286.3 359.89 286.68C332.66 287.84 306.17 293.87 279.81 300.35C248.7 308 217.47 307.5 186 302.82C159.26 298.84 134.05 291.5 113.12 273.37C105.12 266.45 96.64 259.99 89.33 252.39C75.75 238.28 62.57 223.74 49.77 208.91C35.57 192.46 31.83 172.78 34.08 151.66C35.89 134.63 44.34 125.48 61.09 121.77C77.37 118.16 93.7 119 110 121.06C142.9 125.24 174.87 133.2 205.86 145.11C218.49 149.96 231.45 153.99 245.23 153.07C249.9 152.76 254.74 151.86 259.06 150.13C273.52 144.33 278.67 130.68 272.11 116.57C267.49 106.63 259.56 99.31 252.11 91.61C248.81 88.2 245.53 84.76 242.43 81.16C237.23 75.13 235.82 68.19 238.05 60.53C238.99 57.29 239.92 54.05 240.88 50.82C244.42 38.9 241.76 28.16 232.57 20.22C221.11 10.32 208.72 1.48001 196.62 -7.65999C185 -16.44 173.12 -24.87 161.6 -33.78C158.01 -36.56 154.95 -40.16 152.14 -43.77C144.08 -54.14 144.79 -66.12 153.56 -75.98C161.24 -84.62 171.38 -89.5 181.75 -93.52C208.59 -103.93 235.65 -113.76 262.64 -123.76C282.91 -131.28 303.22 -138.66 323.46 -146.25C326.13 -147.25 328.58 -148.96 330.93 -150.64C334.26 -153.02 334.05 -155.03 330.55 -157.21C329.44 -157.9 328.36 -158.64 326.61 -159.79C328.18 -160.42 328.92 -160.89 329.71 -161C339.73 -162.44 349.76 -163.84 359.79 -165.22C364.05 -165.81 366.12 -161.86 369.35 -160.29C369.51 -160.21 368.79 -156.54 367.73 -156C359.76 -151.92 351.84 -147.55 343.46 -144.47C306.88 -131.03 270.03 -118.3 233.51 -104.69C217.07 -98.56 201.25 -90.84 186.74 -80.73C169.08 -68.42 167.6 -55.92 183.43 -41.41C193.68 -32.02 205.39 -24.23 216.31 -15.56C228.19 -6.12997 240.22 3.14001 251.63 13.12C264.35 24.24 267.87 38.23 262.12 54.33C261.14 57.07 260.41 59.89 259.47 62.64C256.29 71.95 257.79 80.52 263.92 88.1C269.11 94.52 274.76 100.57 280.05 106.91C283.27 110.78 286.48 114.71 289.19 118.94C299.07 134.34 298.55 149.97 287.72 164.77C262.82 198.82 224.5 192.06 203.5 174.41C193.03 165.61 182.96 156.31 170.44 150.48C143.82 138.11 115.99 132.19 86.59 136.09C81.95 136.71 77.28 138.2 73 140.14C58.3 146.81 54.07 159.49 53.91 174.45C53.78 186.42 58.25 196.86 65.61 205.66C77.59 219.97 90.22 233.77 103.06 247.31C111.06 255.75 119.89 263.42 128.48 271.29C145.82 287.17 167.08 293.57 189.8 296.34C217.22 299.68 244.31 297.65 271.46 292.77C299.81 287.67 328.32 283.24 356.91 279.75C374.92 277.55 393.18 278.06 411.06 282.32C413.72 282.95 416.45 283.69 418.85 284.93C420.62 285.84 422.93 287.54 423.12 289.12C423.3 290.66 421.48 293.28 419.88 294.05C411.12 298.26 402.33 302.51 393.23 305.9C369.17 314.88 344.1 319.57 318.71 323.11C298.99 325.86 279.33 329.25 259.81 333.19C247.47 335.68 235.82 340.59 225.82 348.6C214.72 357.49 213.91 369.17 223.48 379.73C223.89 380.18 224.3 380.65 224.75 381.06C247.96 402.29 254.02 430.82 258.19 460.07C259.2 467.14 255.65 472.84 250.84 477.72C239.47 489.29 225.67 497.32 210.84 503.22C195.69 509.25 180.03 513.99 164.56 519.21C148.63 524.58 132.95 530.53 119.18 540.41C115.15 543.3 111.45 546.94 108.42 550.88C102.89 558.05 104.14 565.26 111.34 570.87C118.79 576.68 127.65 579.29 136.73 580.66C154.94 583.4 173.26 585.37 191.46 588.08C204.8 590.07 217.81 593.44 229.91 599.69C241.55 605.7 248.86 614.43 250.57 628.06C251.82 638.04 254.78 647.83 257.26 657.63C259.37 665.98 264.67 671.99 272.25 675.93C282.45 681.24 292.92 686.06 302.86 691.8C308.5 695.05 313.88 699.18 318.4 703.86C328.95 714.76 330.91 727.69 325.25 741.71C319.29 756.49 308.96 768.27 298.67 780.1C292.64 787.03 286.52 793.94 281.18 801.39C274.87 810.19 274.46 819.83 279.41 829.63C282.58 835.9 285.51 842.29 288.54 848.62C278.21 850.06 267.87 851.51 257.54 852.95L257.55 852.91Z" fill="#f24475"/>
<path d="M429.86 828.84C427.7 817.39 425.52 805.95 423.37 794.5C421.8 786.17 424.71 778.89 430.67 773.7C441.48 764.28 452.86 755.48 464.38 746.93C473.93 739.84 484.13 733.64 493.83 726.74C497.15 724.37 500.11 721.32 502.71 718.15C506.62 713.39 506.02 708.49 500.85 705.21C496.77 702.62 492.24 700.21 487.58 699.18C469.93 695.27 452.2 691.63 434.39 688.48C384.36 679.64 350.02 650.47 327.22 606.31C321.97 596.14 316.95 585.83 306.23 580.38C290.44 572.34 273.55 567.76 255.93 565.92C235.65 563.8 215.35 561.82 195.1 559.44C189.41 558.77 183.73 557.28 178.31 555.41C174.37 554.05 174.25 550.86 178.13 548.95C186.17 545 194.27 540.89 202.77 538.19C222.67 531.86 242.74 526.01 262.9 520.58C277.36 516.69 292.12 513.91 306.7 510.44C323.22 506.51 339.73 502.48 356.17 498.23C361.72 496.79 364.96 498.91 365.97 505.96C354.69 507.54 348.86 517.54 340 523.08C336.45 525.3 336.75 530.94 339.56 536.16C341.63 540.01 345.62 539.53 348.01 538.26C355.55 534.27 362.3 537.31 369.24 539.42C372.15 540.3 374.93 541.64 377.8 542.69C385.72 545.59 393.07 544.52 399.83 539.46C401.91 537.9 404.03 536.4 406.04 534.75C418.63 524.36 431.06 513.77 443.83 503.6C449.53 499.07 455.71 495.05 462.03 491.44C466.32 488.99 468.91 490.67 468.78 495.66C468.65 500.64 467.24 505.57 466.86 510.56C466.37 516.92 465.92 523.34 466.27 529.68C466.62 535.99 470.04 539.23 476.21 539.58C494.75 540.63 512.83 538.62 529.8 530.42C536.59 527.14 542.06 523.1 541.28 514.15C540.4 504.02 537.82 495.32 526.78 492.1C522.98 490.99 519.08 490.19 515.19 489.44C509.38 488.33 505.15 485.28 502.54 479.93C501.21 477.2 499.65 474.57 498.16 471.92C490.55 458.38 481.15 454.81 467.23 461.95C453.84 468.82 441.36 477.42 428.15 484.66C418.05 490.19 407.29 494.52 397.11 499.91C392.49 502.35 388.56 506.08 384.4 509.17C380.89 503.1 384.11 487.69 391.22 482.84C400.28 476.66 406.56 468.41 410.78 458.51C415.76 446.81 423.68 438.36 435.73 433.67C442.84 430.9 449.7 427.46 456.52 424.01C469.04 417.66 472.3 407.5 466 394.88C460.72 384.31 452.1 377.02 441.9 371.63C434.87 367.92 427.44 364.98 420.2 361.65C417.97 360.63 415.74 359.59 413.62 358.38C405.17 353.56 403.86 347.52 411.13 341.21C418.81 334.55 427.23 328.54 435.99 323.36C450.94 314.53 466.49 306.73 481.6 298.18C486.74 295.27 491.62 291.73 496.12 287.89C502.9 282.1 502.44 276.58 494.16 273.21C484.34 269.21 474.08 265.83 463.7 263.74C429.35 256.82 394.79 251.18 359.71 249.2C353.06 248.82 346.37 247.4 339.94 245.58C331.95 243.33 329.16 237.66 332.06 229.91C333.93 224.93 336.6 220.19 339.37 215.63C348.31 200.88 355.4 185.37 360.38 168.8C364.51 155.05 361.65 143.24 351.73 133.38C345.02 126.71 337.47 120.88 330.23 114.74C322.87 108.51 314.98 102.82 308.14 96.07C298.08 86.15 297.88 77.28 306.35 65.91C311.94 58.41 317.94 51.21 323.23 43.52C331.73 31.16 332.87 18.51 325.59 4.65001C319.22 -7.46999 313.15 -20.1 309.48 -33.21C306 -45.62 305.35 -58.92 304.31 -71.9C303.52 -81.82 309.7 -88.85 316.66 -94.97C328.86 -105.71 343.09 -113.36 358.01 -119.15C388.22 -130.88 418.84 -141.54 449.26 -152.72C465.11 -158.55 480.93 -164.49 496.71 -170.5C498.95 -171.36 501.09 -172.72 502.96 -174.24C504.21 -175.26 505.57 -176.96 505.6 -178.38C505.62 -179.35 503.51 -180.49 502.2 -181.32C500.98 -182.1 499.58 -182.57 498.35 -184.21C499.4 -184.5 500.43 -184.92 501.5 -185.07C509.7 -186.25 518.04 -186.82 526.07 -188.72C531.69 -190.05 536 -188.08 540.45 -185.78C543.41 -184.24 543.41 -181.67 540.59 -180.14C534.06 -176.59 527.56 -172.77 520.62 -170.24C482.16 -156.26 443.43 -142.98 405.07 -128.72C386.63 -121.87 368.78 -113.38 353.57 -100.44C350.45 -97.79 347.65 -94.64 345.16 -91.38C341.38 -86.44 339.95 -80.7 340.82 -74.46C344 -51.82 347.14 -29.18 350.39 -6.55998C350.89 -3.07999 351.69 0.390015 352.74 3.75002C356.68 16.31 353.08 27.21 344.86 36.59C335.99 46.72 326.34 56.16 317.24 66.09C312.41 71.36 307.73 77.36 310.37 84.94C312 89.6 314.99 94.62 318.85 97.51C330.33 106.14 342.67 113.61 354.42 121.9C361.79 127.09 369.13 132.47 375.72 138.59C383.62 145.93 386.96 155.29 383.93 166.13C379.93 180.42 375.8 194.68 371.69 208.93C371.1 210.99 370.23 212.97 369.62 215.03C367.08 223.73 369.17 229.74 377.57 233.02C387.93 237.06 398.62 240.49 409.44 243.07C436.7 249.57 464.17 255.21 491.44 261.69C500.15 263.76 508.72 266.83 516.92 270.44C525.41 274.18 526.14 279.38 518.63 284.72C508.22 292.12 496.86 298.15 486.15 305.14C474.69 312.63 463.5 320.53 452.25 328.33C451.02 329.18 450.09 330.5 449.14 331.69C441.96 340.72 442.47 347.63 451.24 355.18C458.67 361.58 466.71 367.31 473.85 374.01C484.69 384.19 493.15 396.09 497.38 410.65C500.6 421.73 497.54 429.09 486.78 433.08C475.48 437.28 463.79 440.44 452.47 444.58C446.05 446.93 439.91 450.14 433.83 453.33C426.66 457.09 421.6 462.98 418.6 470.49C417.93 472.17 418.16 474.21 417.98 476.09C420.04 476.12 422.42 476.85 424.09 476.06C429.46 473.53 434.62 470.53 439.77 467.55C447.67 462.97 455.26 457.77 463.41 453.72C478.71 446.12 491.77 449.68 501.99 463.51C503.26 465.23 504.42 467.02 505.6 468.8C508.7 473.48 512.85 476.27 518.51 477.44C527.29 479.27 536.06 481.34 544.58 484.11C551.09 486.23 555.76 491.03 557.98 497.72C560.4 505.02 564.69 511.01 570.01 516.46C576.44 523.05 575.86 527.24 567.2 530.33C556.57 534.12 545.65 537.32 534.62 539.71C521.61 542.53 508.4 544.64 495.17 546.19C487.52 547.09 479.59 547.01 471.95 546.08C463.06 544.99 459.39 540.44 457.88 531.66C457.31 528.34 456.8 525 455.89 521.77C454.31 516.14 451.4 514.44 446.33 517.26C437.58 522.13 429.17 527.64 420.79 533.15C418.14 534.89 415.97 537.39 413.71 539.67C405.68 547.76 396.76 553.42 384.62 552.64C372.32 551.85 359.91 552.39 347.68 551.1C336.54 549.92 325.57 547.06 314.53 544.95C307.97 543.7 305.99 541.06 307.93 534.63C311.1 524.1 310.85 523.13 298.76 522.75C289.99 522.47 280.95 523.72 272.38 525.76C257.71 529.25 243.27 533.76 228.83 538.15C224.5 539.47 220.36 541.59 216.36 543.75C214.63 544.68 213.46 546.65 211.95 548.22C215.99 553.09 221.37 553.54 226.37 554.26C240.67 556.33 255.13 557.45 269.34 559.96C287.92 563.24 306.32 567.54 324.81 571.33C332.11 572.83 337.31 576.78 340.22 583.71C343.7 592.02 346.39 600.82 350.95 608.5C369.05 639.01 390.7 666.47 425.89 678.18C442.23 683.62 459.75 685.43 476.63 689.37C487.85 691.99 498.88 695.45 509.98 698.62C511.27 698.99 512.45 699.82 513.6 700.57C523.95 707.28 525.01 715.45 515.66 723.65C509.16 729.36 501.43 733.64 494.53 738.92C484.97 746.23 475.02 753.21 466.4 761.54C456.1 771.49 452.55 783.65 457.79 798.09C460.79 806.37 461.77 815.38 463.66 824.06C452.42 825.63 441.17 827.2 429.93 828.77L429.86 828.84Z" fill="#f24475"/>
<path d="M676.04 -189.9C660.56 -184.02 645.18 -177.89 629.59 -172.31C598.36 -161.12 566.72 -150.9 538.23 -133.4C532.43 -129.83 527.02 -125.42 522.08 -120.71C515.82 -114.75 516.17 -108.54 522.96 -103.05C529.03 -98.14 535.57 -93.81 542.07 -89.46C559.48 -77.82 575.3 -64.27 590.13 -49.55C596.25 -43.48 601.49 -36.75 603.93 -28.2C606.02 -20.87 605.39 -13.8 601.68 -7.29001C594.79 4.81 587.75 16.83 580.37 28.63C575.49 36.43 573.02 36.62 564.28 34.68C558.58 33.42 552.55 33.23 546.68 33.3C543.03 33.34 540.39 32.53 538.56 29.43C536.61 26.14 534.91 22.68 532.77 19.53C528.76 13.62 523.31 13.41 520.3 19.76C514.69 31.58 505.77 38.89 494.27 44.85C484.49 49.92 475.02 52.99 463.98 53.58C450.42 54.3 436.9 56.64 423.49 59.02C411.77 61.1 400.09 63.71 388.66 67C380.84 69.25 373.15 72.47 366 76.36C359 80.16 358.96 86.63 366.12 89.98C374.87 94.07 384.29 96.93 393.64 99.51C408.75 103.67 424.14 106.82 439.24 111.02C454.54 115.27 466.84 124.01 475.18 137.82C487.69 158.52 505.75 171.27 529.49 176.04C549.29 180.02 566.95 188.62 584.13 199.26C613.35 217.37 645.26 229.02 679.36 234.47C690.8 236.3 702.16 238.8 712.42 244.66C725.06 251.89 726.09 263.2 714.75 272.22C705.6 279.5 694.6 282.81 683.57 285.85C667.09 290.39 650.45 294.34 634.08 299.24C622.3 302.77 610.69 307.03 599.35 311.79C594.57 313.79 590.28 317.48 586.48 321.15C581.13 326.32 580.29 332.92 584.29 339.2C587.29 343.91 591.22 348.13 595.19 352.11C608.27 365.23 621.92 377.81 634.62 391.28C640.63 397.66 645.21 405.47 650.03 412.9C658.04 425.25 657.88 437.92 650.58 450.6C649.51 452.46 648.44 454.32 647.38 456.18C638.88 470.99 639.41 478.57 651.9 490.23C664.55 502.04 678.17 512.79 691.17 524.22C698.86 530.98 706.64 537.75 713.56 545.26C723.57 556.11 726.54 569.6 725.26 584.01C723.97 598.58 715.45 608.33 702.65 613.97C690.28 619.42 677.34 623.57 664.71 628.45C645.28 635.97 625.86 643.54 606.51 651.28C597.62 654.84 588.65 658.33 580.18 662.75C568.44 668.88 567.6 675.99 576.93 685.5C581.54 690.19 586.54 694.5 591.38 698.97C598.76 705.8 600.66 714.18 598.15 723.67C596.47 730.02 594.5 736.29 592.64 742.6C589.75 752.37 590.63 761.73 596.3 770.28C602.47 779.58 608.99 788.64 615.28 797.86C616.27 799.31 616.87 801.02 617.65 802.61C607.93 803.97 598.2 805.33 588.48 806.69C583.74 796.27 579.6 785.51 574.08 775.53C568.66 765.73 567.72 756.35 572.18 746.18C575 739.74 577.69 733.21 580.07 726.6C585.06 712.74 582.74 704.88 571.35 695.47C564.85 690.1 558.16 684.92 552.01 679.18C548.49 675.89 545.47 671.87 542.95 667.73C539.96 662.83 541.42 659.09 546.93 657.35C554.07 655.09 561.34 653.1 568.68 651.62C592.16 646.89 614.38 638.52 636.15 628.79C652.29 621.58 668.68 614.89 684.54 607.13C697.09 600.99 706.54 591.62 708.88 576.88C711.42 560.89 704.76 548.26 693.34 538.23C679.64 526.2 665.1 515.13 650.98 503.58C645.05 498.73 638.93 494.05 633.51 488.68C624.44 479.71 623.7 473.29 629.15 461.77C631.44 456.93 633.85 452.11 635.59 447.07C638.92 437.39 637.65 428.1 632.19 419.38C625.27 408.35 616.49 398.98 606.35 390.94C598.06 384.37 589.32 378.38 580.87 372.01C573.16 366.2 565.43 360.39 557.99 354.23C554.73 351.53 551.78 348.23 549.39 344.73C542.91 335.23 544.16 326.16 552.71 318.46C561.3 310.71 571.63 305.86 582.56 302.96C604.11 297.24 625.94 292.54 647.57 287.1C664.43 282.86 681.25 278.44 697.89 273.43C702.33 272.09 706.49 268.78 709.95 265.51C714.37 261.33 714 255.22 708.77 252.18C702.81 248.72 696.22 245.58 689.53 244.32C671.6 240.95 653.38 239.17 635.44 235.84C599.04 229.09 563.09 220.38 528.02 208.37C513.24 203.31 499.79 195.72 487.42 186.2C476.67 177.93 467.6 168.07 462.5 155.49C452.75 131.44 434.45 118 410.26 111.3C396.76 107.56 383.15 104.16 369.77 100.03C363.85 98.2 358.07 95.45 352.78 92.2C344.9 87.36 344.79 80.66 351.85 74.72C360.12 67.76 370.12 64.4 380.25 61.59C404.22 54.93 428.53 49.36 452.23 41.87C466.4 37.39 479.64 30.01 493.38 24.11C501.98 20.41 509.13 15.09 515.07 7.75999C520.59 0.949997 528.25 -1 536.93 -0.0800018C550.7 1.37 562.79 -5.62 568.94 -18.09C572.02 -24.35 572.2 -30.76 568.3 -36.5C564.89 -41.51 560.94 -46.35 556.46 -50.42C542.52 -63.07 526.81 -73.14 509.75 -81.17C501.72 -84.95 493.72 -88.92 486.14 -93.52C477.03 -99.04 476.29 -104.94 483.14 -113.19C490.3 -121.82 499.72 -127.63 509.39 -132.93C530.42 -144.46 552.77 -152.94 575.32 -160.89C602.01 -170.3 628.81 -179.42 655.45 -188.96C659.94 -190.57 664.27 -193.21 668 -196.21C672.15 -199.55 671.7 -201.55 667.58 -204.9C666.82 -205.52 666.26 -206.38 664.99 -207.83C668.33 -208.3 670.84 -208.65 673.36 -209L676.04 -189.85V-189.9Z" fill="#f24475"/>
<path d="M168.2 865.4C172.3 849.65 173.93 833.01 185.59 820.08C194.57 810.11 205.8 803.48 217.33 797.08C232.51 788.66 247.8 780.38 262.47 771.12C268.91 767.05 274.59 761.26 279.39 755.26C286.29 746.62 284.38 736.67 275.53 729.97C267.55 723.92 258.11 722.06 248.43 721.32C232.19 720.07 215.86 719.67 199.71 717.72C180.79 715.44 163.41 708.71 152.36 692.12C145.46 681.76 139.68 670.48 134.79 659.01C132.54 653.73 132.97 646.97 133.4 640.96C134.08 631.35 131.81 622.78 125.4 615.89C118.01 607.95 109.79 600.79 102.03 593.18C97.24 588.48 92.34 583.84 88.04 578.71C81.16 570.5 79.05 560.73 83.07 550.85C88.13 538.43 94.04 526.32 100.24 514.41C106.18 502.98 108.49 491.22 106.78 478.47C103.99 457.65 108.65 437.95 116.63 418.91C123.98 401.4 131.7 384.04 139.2 366.6C143.86 355.75 150.67 346.38 158.59 337.72C160.76 335.35 162.84 332.87 164.7 330.25C168.58 324.79 167.87 320.65 162.06 317.22C158.01 314.83 153.67 312.71 149.21 311.27C117.63 301.06 88.75 285.88 64.21 263.46C48.74 249.33 34.37 233.99 19.67 219.03C5.87001 204.97 -6.19998 189.72 -13.8 171.2C-17.55 162.05 -24.84 155.68 -33.94 151.96C-43.55 148.03 -53.43 144.74 -63.22 141.23C-77.47 136.13 -91.79 131.2 -105.98 125.93C-109.37 124.67 -112.58 122.66 -115.48 120.47C-120.02 117.05 -120.21 112.92 -115.28 110.16C-107.35 105.72 -99.07 101.73 -90.55 98.5799C-74.09 92.4999 -56.67 92.3099 -39.39 91.1099C-11.46 89.1599 15.13 82.4499 39.81 68.4999C60.95 56.5399 82.65 45.5699 104.03 34.0299C107.51 32.1499 110.84 29.8599 113.9 27.3499C121.14 21.3999 123.16 14.4999 119.1 6.04994C115.74 -0.940063 111.43 -7.55006 106.93 -13.9001C99.47 -24.4301 94.21 -35.8101 91.66 -48.4501C89.53 -59.01 93.14 -67.7801 100.3 -75.2801C111.63 -87.16 125.88 -94.6001 140.97 -100.14C158.68 -106.64 176.84 -111.88 194.67 -118.06C210.05 -123.39 225.35 -128.97 240.46 -135.01C249.61 -138.66 249.85 -140.39 245.08 -148.92C246.45 -149.22 247.71 -149.57 248.99 -149.75C257.34 -150.94 265.8 -151.64 274.02 -153.44C278.91 -154.51 280.85 -151.25 283.32 -148.84C283.91 -148.27 282.79 -144.42 281.56 -143.76C274.07 -139.75 266.58 -135.48 258.6 -132.68C226.29 -121.32 193.78 -110.52 161.39 -99.3801C148.91 -95.0901 137.14 -89.3501 127.1 -80.5701C112.47 -67.7701 110.38 -52.2001 121.13 -35.8501C128.48 -24.6601 138.89 -16.4601 148.84 -7.81006C156.95 -0.770065 165.06 6.25993 173.14 13.3299C174.64 14.6399 176.03 16.0799 177.4 17.5199C188.19 28.9299 185.86 38.1199 170.6 42.1999C160.7 44.8499 150.52 46.5699 140.4 48.3099C114.44 52.7799 90.22 61.9799 67.41 74.9599C37.23 92.1299 4.55002 101.33 -29.65 105.54C-39.81 106.79 -50.17 106.28 -60.37 107.32C-65.58 107.85 -70.83 109.55 -75.69 111.6C-79.78 113.33 -80.03 116.87 -76.02 118.74C-69.45 121.8 -62.46 124.22 -55.41 125.9C-48.15 127.63 -40.61 128.27 -33.17 129.2C-10.14 132.07 2.56999 145.99 7.35999 167.74C10.77 183.19 17.36 196.89 27.42 208.97C45.37 230.54 64.27 251.19 85.85 269.27C108.93 288.61 135.19 301.35 164.41 308.29C171.08 309.87 177.66 311.95 184.12 314.23C193.06 317.39 194.1 321.91 187.5 328.61C182.35 333.85 176.8 338.7 171.56 343.85C162.74 352.51 157.4 363.09 155.55 375.24C152.26 396.85 146.53 417.74 138.62 438.11C133.74 450.68 131.95 463.89 132.57 477.38C133.25 492.32 125.7 503.64 116.74 514.48C108.75 524.15 100.24 533.52 93.4 543.97C83.66 558.83 86.26 570.93 100.14 582.08C114.37 593.51 130.92 600.91 147.24 608.68C152.49 611.18 157.67 613.85 162.69 616.78C169.75 620.9 173.59 627.2 174.85 635.32C177.11 649.87 180.04 664.33 181.95 678.93C183.3 689.28 188.73 696.02 197.54 700.7C210.26 707.46 224.11 709.26 238.19 710.73C249.05 711.87 259.93 713.62 270.5 716.3C275.59 717.59 280.42 721.12 284.59 724.58C294.5 732.79 296.4 745.44 288.67 755.69C283.39 762.69 277.13 769.28 270.22 774.65C254.19 787.11 237.35 798.53 221.15 810.77C216.45 814.32 212.45 818.95 208.71 823.56C204.55 828.71 202.82 834.96 203.02 841.62C203.21 847.89 203.5 854.16 203.74 860.42C191.89 862.08 180.04 863.73 168.18 865.39L168.2 865.4Z" fill="#f24475"/>
<path d="M110.76 873.42C111.09 872.42 111.24 871.31 111.77 870.43C118.39 859.4 125.63 848.71 131.62 837.35C143.93 813.99 164.07 799.97 187.17 789.43C204.06 781.72 221.38 774.97 238.2 767.12C244.01 764.41 249.32 760.14 254.05 755.71C259.27 750.82 258.11 744.36 251.31 742.39C243.23 740.05 234.63 738.62 226.23 738.49C201.8 738.11 177.49 737.69 153.75 730.78C131.63 724.34 115.16 711.75 105.83 690.12C98.79 673.81 91.02 657.84 89.32 639.83C89 636.47 88.77 633.1 88.67 629.73C88.31 616.87 84.31 605.18 77.89 594.13C72.27 584.45 67.44 574.32 66.61 562.97C66.05 555.37 66.24 547.7 66.47 540.07C66.94 524.57 63.14 510.37 54.55 497.42C50.77 491.72 45.41 488.11 39.08 486.57C28.39 483.97 17.47 482.33 6.72 479.96C-0.270004 478.41 -7.41998 476.96 -13.99 474.24C-22.95 470.53 -27.5 463.31 -25.28 456.55C-23.92 452.42 -21.18 447.93 -17.73 445.48C-10.81 440.57 -3.03001 436.84 4.48999 432.8C15.4 426.96 26.63 421.67 37.23 415.33C41.37 412.85 44.75 408.52 47.5 404.38C54.94 393.15 64.26 383.94 75.84 377.26C92.56 367.61 106.47 354.91 118.49 339.96C127.85 328.32 127.07 322.57 113.95 315.26C100.33 307.67 86.16 301.07 72.46 293.61C51.38 282.13 31.91 268.22 13.78 252.51C1.06999 241.5 -12.71 232.18 -27.6 224.39C-38.91 218.48 -49.85 211.92 -58.91 202.78C-62.57 199.09 -66.53 195.39 -69.06 190.96C-79.48 172.73 -95.23 160.42 -113.59 151.69C-132.33 142.78 -151.84 135.48 -171 127.44C-175.51 125.55 -180.11 123.8 -184.4 121.49C-189.69 118.65 -190.03 114.62 -184.81 111.92C-173.72 106.19 -162.44 100.73 -150.93 95.91C-131.05 87.59 -113.09 76.53 -98.29 60.75C-80.72 42.03 -58.75 32.23 -33.82 28.16C-23.68 26.5 -13.47 25.15 -3.44 22.97C20.69 17.73 33.6 0.159973 31.9 -24.49C31.72 -27.09 31.51 -29.73 30.89 -32.24C26.76 -48.78 32.61 -61.66 45.21 -72.19C58.36 -83.19 73.43 -90.99 89.06 -97.54C109.55 -106.13 130.39 -113.91 151.03 -122.14C154.56 -123.55 157.96 -125.33 161.31 -127.14C165.98 -129.67 166.23 -131.18 163.08 -135.39C162.75 -135.84 162.68 -136.48 162.29 -137.59C173.77 -139.19 184.95 -140.79 196.14 -142.24C196.84 -142.33 197.87 -141.38 198.45 -140.67C202.38 -135.89 202.41 -134.21 197.1 -131.5C189.93 -127.84 182.54 -124.46 174.95 -121.83C148.62 -112.73 121.45 -105.76 96.94 -92.1C87.01 -86.56 77.42 -80.07 68.69 -72.8C57.71 -63.65 55.55 -51.59 59.52 -37.74C62.55 -27.18 64.35 -16.23 66.04 -5.35002C68.2 8.49998 63.23 20.18 52.85 29.21C33.88 45.71 12.42 57.18 -12.89 60.84C-30.18 63.34 -47.57 65.74 -64.5 69.87C-76.11 72.7 -87.17 78.08 -98.19 82.97C-115.48 90.63 -132.55 98.8 -149.68 106.84C-151.73 107.8 -153.69 109.12 -155.43 110.58C-160.43 114.76 -160.32 118.51 -154.7 121.72C-149.14 124.89 -143.27 127.57 -137.41 130.19C-117.44 139.11 -97.23 147.52 -77.47 156.88C-64.84 162.86 -54.85 172.21 -46.62 183.79C-41.73 190.67 -35.44 196.98 -28.64 201.99C-6.99002 217.96 13.28 235.44 32.81 253.91C57.09 276.86 84.91 294.56 115.61 307.77C121.36 310.24 127.05 312.94 132.48 316.04C142.65 321.85 144.06 327.29 136.96 336.39C124.05 352.94 110.52 369.01 97.46 385.44C93.1 390.93 88.31 396.45 85.55 402.76C79.84 415.83 70.58 425.1 58.32 431.59C48.03 437.04 37.48 441.98 27.05 447.17C24.17 448.6 21.15 449.86 18.53 451.67C16.78 452.88 14.21 455.32 14.53 456.53C15.04 458.41 17.45 460.37 19.49 461.12C25.23 463.24 31.19 464.75 37.06 466.51C43.37 468.4 49.84 469.9 55.96 472.29C78.53 481.11 79.14 488.28 79.19 506.55C79.23 519.98 76.54 533.53 74.04 546.84C71.25 561.69 73.65 574.98 82.63 587.11C85.9 591.53 88.97 596.1 92.27 600.49C99.78 610.48 104.04 621.43 103.48 634.16C102.73 651.04 108.92 666.08 115.66 681.21C129.79 712.93 156.38 725.48 188.39 729.42C202.26 731.13 216.39 730.54 230.39 731.28C238.27 731.69 246.15 732.53 253.99 733.49C256.5 733.8 259.02 734.83 261.33 735.96C270.42 740.41 272.26 747.94 265.96 755.78C259.39 763.95 250.36 768.96 241.12 773.35C224.63 781.19 207.77 788.27 191.35 796.25C169.54 806.85 153.78 823.26 145.23 846.29C142.25 854.3 138.68 862.1 135.38 869.99C127.17 871.14 118.97 872.28 110.76 873.43V873.42Z" fill="#f24475"/>
<path d="M656.87 797.12C655.83 795.73 654.93 794.2 653.73 792.97C645.28 784.33 636.41 776.08 628.39 767.07C620.52 758.22 619.3 747.59 622.84 736.39C624.41 731.42 626.03 726.46 627.53 721.47C629.83 713.81 628 707.16 622.09 701.83C618.57 698.66 614.71 695.86 610.98 692.92C608.57 691.02 605.99 689.32 603.71 687.29C596.09 680.51 595.83 674.1 604.36 668.49C614.12 662.07 624.36 655.89 635.2 651.74C651.39 645.54 668.23 640.98 684.92 636.16C698 632.39 711.35 629.53 724.45 625.83C740.67 621.25 745.74 614.81 746.37 597.87C747.19 576.05 743.26 555.64 726.55 539.79C719.88 533.46 712.77 527.6 705.97 521.41C694.65 511.09 683.36 500.74 672.2 490.25C669.89 488.08 668.04 485.34 666.25 482.69C661.03 475 660.56 467.05 665.34 458.94C668.76 453.13 672.41 447.44 675.57 441.49C680.81 431.64 681.43 421.31 675.9 411.55C668.81 399.05 661.19 386.82 653.3 374.8C647.59 366.09 641.06 357.93 634.93 349.49C633.4 347.38 631.93 345.21 630.64 342.96C624.79 332.76 626.21 323.51 636.19 317.45C644.86 312.19 654.47 308.32 663.94 304.56C677.54 299.16 691.54 294.75 705.11 289.27C714.51 285.47 723.14 280.11 728.98 271.35C735.33 261.81 734.39 251.63 726.45 243.31C719.23 235.75 709.99 231.69 700.24 228.8C690.15 225.81 679.77 223.77 669.76 220.55C644.62 212.46 623.07 198.6 604.86 179.4C592.23 166.09 581.97 151.07 571.55 136.08C563.64 124.69 571.21 109.3 581.61 106.17C596.53 101.68 611.49 97.3 626.52 93.19C638.04 90.04 649.92 88.0601 661.24 84.33C677.15 79.1 681.14 67.39 672.91 52.83C671.33 50.0401 669.54 47.33 667.53 44.84C663.78 40.19 659.96 35.5701 655.87 31.22C646.98 21.7701 642.7 10.78 643.49 -2.24995C644.48 -18.67 637.87 -32.5 627.99 -44.93C623.05 -51.16 617.48 -56.91 611.95 -62.64C599.07 -76 585.9 -89.08 573.13 -102.55C561.91 -114.39 562.3 -119.93 574.64 -130.69C587.25 -141.69 602.05 -149.11 617.29 -155.54C637.22 -163.94 657.39 -171.76 677.45 -179.83L678.6 -171.62C665.54 -165.74 652.35 -160.14 639.47 -153.89C627.89 -148.27 616.74 -141.8 607.68 -132.37C597.93 -122.24 596.35 -114.3 604.09 -102.76C612.42 -90.33 622.11 -78.81 631.29 -66.96C638.88 -57.16 647.16 -47.84 654.05 -37.59C658.23 -31.3699 660.92 -23.95 663.19 -16.7299C664.67 -12.0399 664.92 -6.66995 664.46 -1.71996C663.37 10.1 667.01 20.06 673.64 29.68C679.93 38.83 686.19 48.29 690.52 58.44C699.1 78.51 690.31 94.87 669.48 99.06C661.09 100.75 652.44 101.13 643.95 102.34C631.98 104.05 619.89 105.27 608.14 107.98C592.71 111.54 588.02 121.02 593.43 135.91C595.2 140.76 597.55 145.54 600.42 149.82C622.91 183.36 653.26 206.39 692.23 217.73C696.19 218.88 700.13 220.08 704.06 221.32C715.36 224.87 725.5 230.28 733.3 239.48C734.03 240.34 735.28 240.76 736.3 241.39L740.25 269.65C739.34 270.52 738.28 271.28 737.55 272.28C735.3 275.37 733.45 278.78 730.97 281.65C723.51 290.25 713.76 295.72 703.75 300.76C690.92 307.21 677.77 313.09 665.32 320.21C655.05 326.08 653.26 333.85 658.63 344.51C662.55 352.3 667.19 359.73 671.57 367.29C678.4 379.08 685.3 390.85 692.15 402.63C699.9 415.94 698.75 428.92 690.78 441.72C687.06 447.7 683.43 453.76 680 459.91C676.11 466.89 676.15 474.09 680.4 480.86C683.31 485.5 686.32 490.34 690.27 494.02C705.41 508.1 720.94 521.77 736.38 535.52C737.95 536.92 739.79 538.3 741.74 538.94C747.1 540.7 750.22 544.49 751.61 549.6C755.61 564.36 760.56 579.01 762.92 594.05C766.18 614.81 779.21 629.18 791.75 644.18C791.9 644.36 792.32 644.31 792.61 644.37L794.65 658.96C793.89 660.04 792.84 661.02 792.42 662.22C786.03 680.7 758.42 688.09 745.4 684.33C740.87 683.02 738.27 680.08 738.25 675.37C738.24 671.71 738.64 668.04 739.05 664.39C740.94 647.48 734.8 640.7 717.74 640.96C717.28 640.96 716.82 641 716.36 641.06C703.64 642.83 690.85 644.27 678.2 646.47C663.87 648.95 649.95 653.12 636.92 659.7C632.06 662.16 627.32 665.14 623.13 668.6C616.09 674.42 616.4 680.41 623.74 686.01C627.25 688.69 631.18 690.86 634.98 693.15C641.27 696.95 647.86 700.31 653.86 704.52C660.77 709.38 661.85 714.3 658.63 722.18C656.89 726.43 654.92 730.61 652.86 734.72C647.65 745.1 649.07 754.41 656.54 763.27C665.61 774.03 676.87 781.81 689.01 788.57C690.4 789.34 691.3 790.97 692.43 792.21C680.58 793.87 668.73 795.52 656.87 797.18V797.12ZM758.35 661.15C759.05 666.18 763.08 668.86 768.82 668.11C776.19 667.14 782.1 660.77 781.25 654.7C780.47 649.13 774.22 644.78 768.28 645.68C762.13 646.61 757.37 654.04 758.35 661.15Z" fill="#f24475"/>
<path d="M734.88 219.12C728.98 216.91 714.81 211.53 700.54 205.28C697.63 204.01 694.33 202.34 691.55 198.89C688.37 194.96 686.94 189.94 686.67 184.08C686.2 173.75 685.99 173.49 676.45 177.77C670.54 180.42 665.11 180.95 659.57 177.07C657.97 175.95 656.03 175.19 654.13 174.66C637.07 169.95 627.62 157.57 621.2 142.13C620.09 139.46 619.09 136.7 618.42 133.9C616.89 127.55 619.96 122.89 626.37 121.92C642.53 119.49 658.64 117.2 675.13 119.19C681.06 119.91 687.5 119.25 693.29 117.67C706.44 114.08 712.64 104.36 713.17 89.2C713.67 74.94 707.75 62.49 702.5 49.85C698.19 39.47 693.24 29.35 689.18 18.88C687.81 15.35 687.37 10.9 688.14 7.21001C692 -11.27 687.34 -27.87 677.95 -43.58C672.08 -53.4 666.01 -63.11 660.14 -72.93C655.7 -80.36 652.72 -88.32 651.79 -97.01C651.15 -102.95 650.42 -108.91 649.29 -114.77C647.35 -124.78 650.43 -133.21 657.76 -139.65C664.95 -145.96 672.96 -151.33 680.61 -157.11C681.73 -155.16 683.28 -151.93 683.6 -147.82C684.53 -135.93 674.3 -129 670.19 -119.68C664.26 -106.24 672.46 -90.96 679.26 -77.34C713.81 -8.15997 701.7 -3.20999 729.24 35.99C762.02 82.63 788.53 88.96 784.51 104.45C776.48 135.39 665.79 128.6 664.88 146.91C664.64 151.72 672.03 157.25 677.65 159.31C688.81 163.41 696.41 155.05 706.21 156.9C713.32 158.24 721.94 165.02 729.44 187.8C731.25 198.23 733.06 208.66 734.86 219.09L734.88 219.12Z" fill="#f24475"/>
<path d="M769.01 781.45C767.6 780.41 766.33 778.95 764.75 778.41C761 777.13 757.11 776.23 753.26 775.27C739.44 771.83 727.38 765.13 717.06 755.38C711.01 749.67 709.67 744.73 712.42 740.08C716.49 733.2 723.38 730.08 730.81 732.75C739.13 735.74 747.13 739.62 755.31 743C758.26 744.22 761.29 745.37 764.39 746.08C768.82 747.09 770.44 745.49 769.9 741C769.48 737.5 768.93 734.02 768.34 730.55C767.72 726.88 768.71 724.12 772.56 723.09C776.45 722.05 776.69 719.46 775.59 716.33C774.48 713.16 772.74 710.14 772.17 706.9C771.81 704.84 772.36 701.6 773.78 700.42C781.58 693.92 789.76 687.89 797.82 681.69C802.18 712.89 806.54 744.08 810.94 775.6C796.96 777.55 782.98 779.51 769 781.46L769.01 781.45Z" fill="#f24475"/>
<path d="M-52.64 563.7C-40.57 562.96 -24.11 561.52 -7.63 561.16C-1.91 561.03 4.12999 562.87 9.54999 565C18.95 568.7 21.3 576.93 16.14 585.49C10.69 594.55 2.42999 599.61 -7.70001 601.82C-23.1 605.18 -38.63 604.45 -54.22 603.42C-64.84 602.72 -75.56 603.32 -86.15 602.39C-93.35 601.76 -100.5 599.85 -107.49 597.85C-111.56 596.68 -115.53 594.38 -116.07 589.31C-116.61 584.3 -113.46 580.96 -109.66 579.03C-103.19 575.75 -96.5 572.51 -89.53 570.73C-78.88 568.01 -67.9 566.53 -52.65 563.72L-52.64 563.7Z" fill="#f24475"/>
<path d="M170.99 82.9701C192.94 79.5901 212.57 84.8801 229.67 99.0501C233.68 102.37 237.89 106.29 236.4 112.17C234.89 118.14 229.13 120.04 224.1 120.12C213.18 120.3 202.12 120.08 191.33 118.53C174.6 116.13 157.79 113.38 142.15 106.49C139.13 105.16 137 101.83 134.46 99.4301C136.87 96.8901 138.81 93.2401 141.77 92.0201C151.17 88.1301 160.95 85.1501 170.58 81.8201C170.72 82.2001 170.85 82.5801 170.99 82.9601V82.9701Z" fill="#f24475"/>
<path d="M399.26 714.16C409.01 714.38 418.77 714.29 428.48 715C431.46 715.22 434.29 717.6 437.18 718.99C435.17 721.47 433.65 724.83 431.06 726.27C416.27 734.53 400.38 739.07 383.3 738.47C380.62 738.38 377.81 737.63 375.35 736.54C368.83 733.65 367.75 728.2 373.74 724.37C379.65 720.59 386.71 718.59 393.35 716.02C395.16 715.32 397.27 715.4 399.24 715.13C399.24 714.8 399.24 714.48 399.25 714.15L399.26 714.16Z" fill="#f24475"/>
<path d="M493.17 530.31C489.09 530.44 485.28 530.49 481.48 530.7C477.42 530.92 474.76 529.13 474.67 525.09C474.56 520.44 474.14 515.4 475.7 511.22C478.29 504.3 482.08 497.75 485.92 491.39C488.23 487.57 491.07 487.82 494.06 491.14C498.64 496.21 503.18 501.31 507.84 506.3C515.2 514.17 512.84 524.29 502.66 527.75C499.5 528.82 496.21 529.51 493.16 530.32L493.17 530.31Z" fill="#f24475"/>
<path d="M42.3 336.69C29.23 338.53 19.09 333.76 11.47 323.36C7.28001 317.64 8.59002 313.75 15.14 311.32C27.09 306.88 48.14 311.87 56.67 321.17C60.48 325.32 59.86 329.44 54.91 332.63C54.01 333.21 53.05 333.75 52.04 334.05C48.81 335 45.55 335.83 42.3 336.7V336.69Z" fill="#f24475"/>
<path d="M280.32 537.83C288.43 536.93 293.43 540.17 294.76 547.19C295.38 550.48 293.72 552.55 291 551.8C284.61 550.04 278.32 547.75 272.27 545.04C269.51 543.81 271.35 541.42 273.06 540.48C275.29 539.26 277.88 538.68 280.32 537.83Z" fill="#f24475"/>
<path d="M415.79 509.9C410.15 514.5 404.5 519.1 398.77 523.77C395.56 518.85 395.97 516.46 399.76 514.41C403.22 512.53 406.69 510.64 410.26 508.99C411.65 508.35 413.33 508.34 414.87 508.05C415.18 508.67 415.49 509.28 415.79 509.9Z" fill="#f24475"/>
<path d="M422.12 69.56C430.96 69.6 439.82 69.26 448.63 69.8C454.52 70.16 460.01 72.35 463.48 77.77C468.59 85.73 465.79 93.26 456.46 94.44C448.03 95.51 439.39 95.51 430.87 95.17C419.88 94.73 408.97 93.2 398.69 88.85C397.71 88.43 396.69 88.06 395.79 87.5C390.6 84.27 390.4 81.62 395.49 78.34C403.55 73.16 412.8 71.66 422.1 69.56H422.12Z" fill="#f24475"/>
<path d="M683.36 656.74C690.02 656.99 696.77 656.71 703.31 657.74C706.28 658.21 709.81 660.72 711.35 663.32C713.44 666.86 710.78 670.43 708.09 673.05C699.9 681.02 689.53 684.52 678.55 684.92C670.63 685.21 662.61 683.33 654.66 682.25C653.22 682.05 651.79 681.17 650.53 680.34C645.03 676.73 644.87 672.71 650.29 668.81C660.13 661.73 671.68 659.52 683.36 656.74Z" fill="#f24475"/>
</g>
</svg>