<svg xmlns="http://www.w3.org/2000/svg" width="119" height="754" viewBox="0 0 119 754" fill="none">
<g style="mix-blend-mode:multiply">
<path d="M75.4301 -8.78004C75.2701 -7.82004 3.86003 69.21 3.78003 71.45C3.70003 73.69 79.96 141.2 86 147.09C83.91 154.61 5.58999 214.59 0.73999 218.72C4.29999 230.02 76.04 290.55 76.13 292.33C76.22 294.11 3.76995 363.01 3.69995 365.52C3.62995 368.02 75.83 441.69 75.87 443.36C75.92 445.27 1.46995 512.59 1.31995 513.75C1.67995 514.55 77.58 584.92 78.23 586.4C53.41 611.03 28.59 635.66 3.76001 660.29C31.41 685.65 59.07 711 86.72 736.36C84.58 739.5 29.49 784.58 8.25 801.19C5.89 803.04 3.76002 805.51 1.52002 807.69C10.97 807.69 20.43 807.69 29.88 807.69C30.89 806.72 31.8601 805.61 32.9301 804.81C47.6101 793.86 58.55 785.42 61.52 783.66C70.04 778.59 85.9601 767.08 118.56 738.42C89.8901 712.31 61.2301 686.2 32.5601 660.09C47.2201 646.28 62.03 631.92 76.95 617.01C87.2599 606.71 97.31 596.46 107.09 586.27C90.92 570.16 74.05 553.91 56.46 537.58C47.39 529.17 38.37 520.94 29.39 512.91C29.8 511.74 106.78 441.79 107.14 440.99C108.2 438.62 32.59 368.74 32.14 366.77C31.5 363.97 105.04 292.65 104.88 290.65C104.72 288.65 35.89 229.35 33.41 221.16C33.89 220.64 118.46 150.94 119 149.35C91.61 122.71 64.2199 96.07 36.8199 69.43C59.4399 43.36 82.06 17.28 104.67 -8.79004C94.92 -8.79004 85.1801 -8.79004 75.4301 -8.79004V-8.78004Z" fill="#f97e02"/>
</g>
</svg>