<?xml version="1.0"?>
<svg width="640" height="480" xmlns="http://www.w3.org/2000/svg" xmlns:svg="http://www.w3.org/2000/svg" xmlns:xlink="http://www.w3.org/1999/xlink">
 <!-- Created with SVG-edit - https://github.com/SVG-Edit/svgedit-->
 <defs>
  <symbol data-name="Layer 2" id="svg_3" viewBox="0 0 961.15 816.49" xmlns="http://www.w3.org/2000/svg">
   <defs>
    <style>.cls-1 {
        fill: #ed6e2d;
        isolation: isolate;
      }</style>
   </defs>
   <g data-name="Layer 1" id="svg_2">
    <g>
     <path class="cls-1" d="m146.43,0.02c-0.16,0.96 -71.57,77.99 -71.65,80.23c-0.08,2.24 76.18,69.75 82.22,75.64c-2.09,7.52 -80.41,67.5 -85.26,71.63c3.56,11.3 75.3,71.83 75.39,73.61s-72.36,70.68 -72.43,73.19c-0.07,2.5 72.13,76.17 72.17,77.84c0.05,1.91 -74.4,69.23 -74.55,70.39c0.36,0.8 76.26,71.17 76.91,72.65c-24.82,24.63 -49.64,49.26 -74.47,73.89c27.65,25.36 55.31,50.71 82.96,76.07c-2.14,3.14 -57.23,48.22 -78.47,64.83c-2.36,1.85 -4.49,4.32 -6.73,6.5l28.36,0c1.01,-0.97 1.98,-2.08 3.05,-2.88c14.68,-10.95 25.62,-19.39 28.59,-21.15c8.52,-5.07 24.44,-16.58 57.04,-45.24c-28.67,-26.11 -57.33,-52.22 -86,-78.33c14.66,-13.81 29.47,-28.17 44.39,-43.08c10.31,-10.3 20.36,-20.55 30.14,-30.74c-16.17,-16.11 -33.04,-32.36 -50.63,-48.69c-9.07,-8.41 -18.09,-16.64 -27.07,-24.67c0.41,-1.17 77.39,-71.12 77.75,-71.92c1.06,-2.37 -74.55,-72.25 -75,-74.22c-0.64,-2.8 72.9,-74.12 72.74,-76.12s-68.99,-61.3 -71.47,-69.49c0.48,-0.52 85.05,-70.22 85.59,-71.81c-27.39,-26.64 -54.78,-53.28 -82.18,-79.92c22.62,-26.07 45.24,-52.15 67.85,-78.22l-29.24,0l0,0.01z"/>
     <path class="cls-1" d="m77.5,10.85c-0.35,2.21 -74.26,68.33 -74.73,69.34c0.24,1.52 71.46,73.58 72.03,74.82c-0.29,1.72 -73.77,71.67 -74.8,72.71c3.16,9.82 73.97,73.96 74.55,75.33c-9.58,9.51 -19.15,19.03 -28.71,28.55c-14.37,14.31 -28.73,28.64 -43.07,42.98c0.71,1.4 72.5,73.81 73.36,76.23c-9.06,9.77 -18.79,19.74 -29.22,29.81c-15.87,15.32 -31.49,29.07 -46.54,41.37c0.88,1.36 50.06,45.75 56.54,52.7c5.23,5.61 12.67,14.19 20.61,25.83c-24.73,22.76 -49.46,45.53 -74.19,68.29c1.52,1.95 34.43,36.13 50.27,50.76c4.02,3.71 20.68,23.51 21.21,24.87c-0.34,1.56 -50.22,49.88 -70.99,68.46c-1.12,1 -2.09,2.37 -3.13,3.57l28.36,0c0.99,-1.27 1.88,-2.8 2.99,-3.76c20.31,-17.57 72.66,-66.22 73.05,-67.57c-21.35,-17.66 -71.26,-71.06 -74.7,-75.29c25.08,-23.3 50.16,-46.59 75.24,-69.89c-13.22,-12.76 -26.48,-25.68 -39.79,-38.75c-12.74,-12.51 -25.33,-24.99 -37.78,-37.43c13.52,-11.26 27.79,-24.17 42.31,-38.9c11.88,-12.05 22.52,-23.88 32.03,-35.23c-9.72,-10.44 -19.55,-20.9 -29.46,-31.39c-14,-14.8 -27.96,-29.41 -41.88,-43.82c0.53,-1.49 71.47,-70.93 71.85,-72.13c-0.58,-1.34 -71.99,-68.14 -75.34,-73.97c1.91,-1.96 76.77,-70.73 77.02,-72.04c-0.31,-1.42 -73.02,-74.21 -73.51,-76.02c0.71,-1.58 74.23,-67.86 74.55,-69.78c-0.34,-1.74 -4.72,-9.61 -5.62,-10.5l-29.02,0c0.99,0.92 6,8.96 6.5,10.83l0,0.02l0.01,0z"/>
     <path class="cls-1" d="m302.5,0.02c-0.16,0.96 -71.57,77.99 -71.65,80.23c-0.08,2.24 76.18,69.75 82.22,75.64c-2.09,7.52 -80.41,67.5 -85.26,71.63c3.56,11.3 75.3,71.83 75.39,73.61c0.09,1.78 -72.36,70.68 -72.43,73.19c-0.07,2.5 72.13,76.17 72.17,77.84c0.05,1.91 -74.4,69.23 -74.55,70.39c0.36,0.8 76.26,71.17 76.91,72.65c-24.82,24.63 -49.64,49.26 -74.47,73.89c27.65,25.36 55.31,50.71 82.96,76.07c-2.14,3.14 -57.23,48.22 -78.47,64.83c-2.36,1.85 -4.49,4.32 -6.73,6.5l28.36,0c1.01,-0.97 1.98,-2.08 3.05,-2.88c14.68,-10.95 25.62,-19.39 28.59,-21.15c8.52,-5.07 24.44,-16.58 57.04,-45.24c-28.67,-26.11 -57.33,-52.22 -86,-78.33c14.66,-13.81 29.47,-28.17 44.39,-43.08c10.31,-10.3 20.36,-20.55 30.14,-30.74c-16.17,-16.11 -33.04,-32.36 -50.63,-48.69c-9.07,-8.41 -18.09,-16.64 -27.07,-24.67c0.41,-1.17 77.39,-71.12 77.75,-71.92c1.06,-2.37 -74.55,-72.25 -75,-74.22c-0.64,-2.8 72.9,-74.12 72.74,-76.12s-68.99,-61.3 -71.47,-69.49c0.48,-0.52 85.05,-70.22 85.59,-71.81c-27.39,-26.64 -54.78,-53.28 -82.18,-79.92c22.62,-26.07 45.24,-52.15 67.85,-78.22l-29.24,0l0,0.01z"/>
     <path class="cls-1" d="m233.57,10.85c-0.35,2.21 -74.26,68.33 -74.73,69.34c0.24,1.52 71.46,73.58 72.03,74.82c-0.29,1.72 -73.77,71.67 -74.8,72.71c3.16,9.82 73.97,73.96 74.55,75.33c-9.58,9.51 -19.15,19.03 -28.71,28.55c-14.37,14.31 -28.73,28.64 -43.07,42.98c0.71,1.4 72.5,73.81 73.36,76.23c-9.06,9.77 -18.79,19.74 -29.22,29.81c-15.87,15.32 -31.49,29.07 -46.54,41.37c0.88,1.36 50.06,45.75 56.54,52.7c5.23,5.61 12.67,14.19 20.61,25.83c-24.73,22.76 -49.46,45.53 -74.19,68.29c1.52,1.95 34.43,36.13 50.27,50.76c4.02,3.71 20.68,23.51 21.21,24.87c-0.34,1.56 -50.22,49.88 -70.99,68.46c-1.12,1 -2.09,2.37 -3.13,3.57l28.36,0c0.99,-1.27 1.88,-2.8 2.99,-3.76c20.31,-17.57 72.66,-66.22 73.05,-67.57c-21.35,-17.66 -71.26,-71.06 -74.7,-75.29c25.08,-23.3 50.16,-46.59 75.24,-69.89c-13.22,-12.76 -26.48,-25.68 -39.79,-38.75c-12.74,-12.51 -25.33,-24.99 -37.78,-37.43c13.52,-11.26 27.79,-24.17 42.31,-38.9c11.88,-12.05 22.52,-23.88 32.03,-35.23c-9.72,-10.44 -19.55,-20.9 -29.46,-31.39c-14,-14.8 -27.96,-29.41 -41.88,-43.82c0.53,-1.49 71.47,-70.93 71.85,-72.13c-0.58,-1.34 -71.99,-68.14 -75.34,-73.97c1.91,-1.96 76.77,-70.73 77.02,-72.04c-0.31,-1.42 -73.02,-74.21 -73.51,-76.02c0.71,-1.58 74.23,-67.86 74.55,-69.78c-0.34,-1.74 -4.72,-9.61 -5.62,-10.5l-29.02,0c0.99,0.92 6,8.96 6.5,10.83l0,0.02l0.01,0z"/>
     <path class="cls-1" d="m458.58,0.02c-0.16,0.96 -71.57,77.99 -71.65,80.23c-0.08,2.24 76.18,69.75 82.22,75.64c-2.09,7.52 -80.41,67.5 -85.26,71.63c3.56,11.3 75.3,71.83 75.39,73.61c0.09,1.78 -72.36,70.68 -72.43,73.19c-0.07,2.5 72.13,76.17 72.17,77.84c0.05,1.91 -74.4,69.23 -74.55,70.39c0.36,0.8 76.26,71.17 76.91,72.65c-24.82,24.63 -49.64,49.26 -74.47,73.89c27.65,25.36 55.31,50.71 82.96,76.07c-2.14,3.14 -57.23,48.22 -78.47,64.83c-2.36,1.85 -4.49,4.32 -6.73,6.5l28.36,0c1.01,-0.97 1.98,-2.08 3.05,-2.88c14.68,-10.95 25.62,-19.39 28.59,-21.15c8.52,-5.07 24.44,-16.58 57.04,-45.24c-28.67,-26.11 -57.33,-52.22 -86,-78.33c14.66,-13.81 29.47,-28.17 44.39,-43.08c10.31,-10.3 20.36,-20.55 30.14,-30.74c-16.17,-16.11 -33.04,-32.36 -50.63,-48.69c-9.07,-8.41 -18.09,-16.64 -27.07,-24.67c0.41,-1.17 77.39,-71.12 77.75,-71.92c1.06,-2.37 -74.55,-72.25 -75,-74.22c-0.64,-2.8 72.9,-74.12 72.74,-76.12s-68.99,-61.3 -71.47,-69.49c0.48,-0.52 85.05,-70.22 85.59,-71.81c-27.39,-26.64 -54.78,-53.28 -82.18,-79.92c22.62,-26.07 45.24,-52.15 67.85,-78.22l-29.24,0l0,0.01z"/>
     <path class="cls-1" d="m389.65,10.85c-0.35,2.21 -74.26,68.33 -74.73,69.34c0.24,1.52 71.46,73.58 72.03,74.82c-0.29,1.72 -73.77,71.67 -74.8,72.71c3.16,9.82 73.97,73.96 74.55,75.33c-9.58,9.51 -19.15,19.03 -28.71,28.55c-14.37,14.31 -28.73,28.64 -43.07,42.98c0.71,1.4 72.5,73.81 73.36,76.23c-9.06,9.77 -18.79,19.74 -29.22,29.81c-15.87,15.32 -31.49,29.07 -46.54,41.37c0.88,1.36 50.06,45.75 56.54,52.7c5.23,5.61 12.67,14.19 20.61,25.83c-24.73,22.76 -49.46,45.53 -74.19,68.29c1.52,1.95 34.43,36.13 50.27,50.76c4.02,3.71 20.68,23.51 21.21,24.87c-0.34,1.56 -50.22,49.88 -70.99,68.46c-1.12,1 -2.09,2.37 -3.13,3.57l28.36,0c0.99,-1.27 1.88,-2.8 2.99,-3.76c20.31,-17.57 72.66,-66.22 73.05,-67.57c-21.35,-17.66 -71.26,-71.06 -74.7,-75.29c25.08,-23.3 50.16,-46.59 75.24,-69.89c-13.22,-12.76 -26.48,-25.68 -39.79,-38.75c-12.74,-12.51 -25.33,-24.99 -37.78,-37.43c13.52,-11.26 27.79,-24.17 42.31,-38.9c11.88,-12.05 22.52,-23.88 32.03,-35.23c-9.72,-10.44 -19.55,-20.9 -29.46,-31.39c-14,-14.8 -27.96,-29.41 -41.88,-43.82c0.53,-1.49 71.47,-70.93 71.85,-72.13c-0.58,-1.34 -71.99,-68.14 -75.34,-73.97c1.91,-1.96 76.77,-70.73 77.02,-72.04c-0.31,-1.42 -73.02,-74.21 -73.51,-76.02c0.71,-1.58 74.23,-67.86 74.55,-69.78c-0.34,-1.74 -4.72,-9.61 -5.62,-10.5l-29.02,0c0.99,0.92 6,8.96 6.5,10.83l0,0.02l0.01,0z"/>
     <path class="cls-1" d="m605.43,0.02c-0.16,0.96 -71.57,77.99 -71.65,80.23c-0.08,2.24 76.18,69.75 82.22,75.64c-2.09,7.52 -80.41,67.5 -85.26,71.63c3.56,11.3 75.3,71.83 75.39,73.61s-72.36,70.68 -72.43,73.19c-0.07,2.5 72.13,76.17 72.17,77.84c0.05,1.91 -74.4,69.23 -74.55,70.39c0.36,0.8 76.26,71.17 76.91,72.65c-24.82,24.63 -49.64,49.26 -74.47,73.89c27.65,25.36 55.31,50.71 82.96,76.07c-2.14,3.14 -57.23,48.22 -78.47,64.83c-2.36,1.85 -4.49,4.32 -6.73,6.5l28.36,0c1.01,-0.97 1.98,-2.08 3.05,-2.88c14.68,-10.95 25.62,-19.39 28.59,-21.15c8.52,-5.07 24.44,-16.58 57.04,-45.24c-28.67,-26.11 -57.33,-52.22 -86,-78.33c14.66,-13.81 29.47,-28.17 44.39,-43.08c10.31,-10.3 20.36,-20.55 30.14,-30.74c-16.17,-16.11 -33.04,-32.36 -50.63,-48.69c-9.07,-8.41 -18.09,-16.64 -27.07,-24.67c0.41,-1.17 77.39,-71.12 77.75,-71.92c1.06,-2.37 -74.55,-72.25 -75,-74.22c-0.64,-2.8 72.9,-74.12 72.74,-76.12s-68.99,-61.3 -71.47,-69.49c0.48,-0.52 85.05,-70.22 85.59,-71.81c-27.39,-26.64 -54.78,-53.28 -82.18,-79.92c22.62,-26.07 45.24,-52.15 67.85,-78.22l-29.24,0l0,0.01z"/>
     <path class="cls-1" d="m536.5,10.85c-0.35,2.21 -74.26,68.33 -74.73,69.34c0.24,1.52 71.46,73.58 72.03,74.82c-0.29,1.72 -73.77,71.67 -74.8,72.71c3.16,9.82 73.97,73.96 74.55,75.33c-9.58,9.51 -19.15,19.03 -28.71,28.55c-14.37,14.31 -28.73,28.64 -43.07,42.98c0.71,1.4 72.5,73.81 73.36,76.23c-9.06,9.77 -18.79,19.74 -29.22,29.81c-15.87,15.32 -31.49,29.07 -46.54,41.37c0.88,1.36 50.06,45.75 56.54,52.7c5.23,5.61 12.67,14.19 20.61,25.83c-24.73,22.76 -49.46,45.53 -74.19,68.29c1.52,1.95 34.43,36.13 50.27,50.76c4.02,3.71 20.68,23.51 21.21,24.87c-0.34,1.56 -50.22,49.88 -70.99,68.46c-1.12,1 -2.09,2.37 -3.13,3.57l28.36,0c0.99,-1.27 1.88,-2.8 2.99,-3.76c20.31,-17.57 72.66,-66.22 73.05,-67.57c-21.35,-17.66 -71.26,-71.06 -74.7,-75.29c25.08,-23.3 50.16,-46.59 75.24,-69.89c-13.22,-12.76 -26.48,-25.68 -39.79,-38.75c-12.74,-12.51 -25.33,-24.99 -37.78,-37.43c13.52,-11.26 27.79,-24.17 42.31,-38.9c11.88,-12.05 22.52,-23.88 32.03,-35.23c-9.72,-10.44 -19.55,-20.9 -29.46,-31.39c-14,-14.8 -27.96,-29.41 -41.88,-43.82c0.53,-1.49 71.47,-70.93 71.85,-72.13c-0.58,-1.34 -71.99,-68.14 -75.34,-73.97c1.91,-1.96 76.77,-70.73 77.02,-72.04c-0.31,-1.42 -73.02,-74.21 -73.51,-76.02c0.71,-1.58 74.23,-67.86 74.55,-69.78c-0.34,-1.74 -4.72,-9.61 -5.62,-10.5l-29.02,0c0.99,0.92 6,8.96 6.5,10.83l0,0.02l0.01,0z"/>
     <path class="cls-1" d="m761.5,0.02c-0.16,0.96 -71.57,77.99 -71.65,80.23c-0.08,2.24 76.18,69.75 82.22,75.64c-2.09,7.52 -80.41,67.5 -85.26,71.63c3.56,11.3 75.3,71.83 75.39,73.61c0.09,1.78 -72.36,70.68 -72.43,73.19c-0.07,2.5 72.13,76.17 72.17,77.84c0.05,1.91 -74.4,69.23 -74.55,70.39c0.36,0.8 76.26,71.17 76.91,72.65c-24.82,24.63 -49.64,49.26 -74.47,73.89c27.65,25.36 55.31,50.71 82.96,76.07c-2.14,3.14 -57.23,48.22 -78.47,64.83c-2.36,1.85 -4.49,4.32 -6.73,6.5l28.36,0c1.01,-0.97 1.98,-2.08 3.05,-2.88c14.68,-10.95 25.62,-19.39 28.59,-21.15c8.52,-5.07 24.44,-16.58 57.04,-45.24c-28.67,-26.11 -57.33,-52.22 -86,-78.33c14.66,-13.81 29.47,-28.17 44.39,-43.08c10.31,-10.3 20.36,-20.55 30.14,-30.74c-16.17,-16.11 -33.04,-32.36 -50.63,-48.69c-9.07,-8.41 -18.09,-16.64 -27.07,-24.67c0.41,-1.17 77.39,-71.12 77.75,-71.92c1.06,-2.37 -74.55,-72.25 -75,-74.22c-0.64,-2.8 72.9,-74.12 72.74,-76.12s-68.99,-61.3 -71.47,-69.49c0.48,-0.52 85.05,-70.22 85.59,-71.81c-27.39,-26.64 -54.78,-53.28 -82.18,-79.92c22.62,-26.07 45.24,-52.15 67.85,-78.22l-29.24,0l0,0.01z"/>
     <path class="cls-1" d="m692.57,10.85c-0.35,2.21 -74.26,68.33 -74.73,69.34c0.24,1.52 71.46,73.58 72.03,74.82c-0.29,1.72 -73.77,71.67 -74.8,72.71c3.16,9.82 73.97,73.96 74.55,75.33c-9.58,9.51 -19.15,19.03 -28.71,28.55c-14.37,14.31 -28.73,28.64 -43.07,42.98c0.71,1.4 72.5,73.81 73.36,76.23c-9.06,9.77 -18.79,19.74 -29.22,29.81c-15.87,15.32 -31.49,29.07 -46.54,41.37c0.88,1.36 50.06,45.75 56.54,52.7c5.23,5.61 12.67,14.19 20.61,25.83c-24.73,22.76 -49.46,45.53 -74.19,68.29c1.52,1.95 34.43,36.13 50.27,50.76c4.02,3.71 20.68,23.51 21.21,24.87c-0.34,1.56 -50.22,49.88 -70.99,68.46c-1.12,1 -2.09,2.37 -3.13,3.57l28.36,0c0.99,-1.27 1.88,-2.8 2.99,-3.76c20.31,-17.57 72.66,-66.22 73.05,-67.57c-21.35,-17.66 -71.26,-71.06 -74.7,-75.29c25.08,-23.3 50.16,-46.59 75.24,-69.89c-13.22,-12.76 -26.48,-25.68 -39.79,-38.75c-12.74,-12.51 -25.33,-24.99 -37.78,-37.43c13.52,-11.26 27.79,-24.17 42.31,-38.9c11.88,-12.05 22.52,-23.88 32.03,-35.23c-9.72,-10.44 -19.55,-20.9 -29.46,-31.39c-14,-14.8 -27.96,-29.41 -41.88,-43.82c0.53,-1.49 71.47,-70.93 71.85,-72.13c-0.58,-1.34 -71.99,-68.14 -75.34,-73.97c1.91,-1.96 76.77,-70.73 77.02,-72.04c-0.31,-1.42 -73.02,-74.21 -73.51,-76.02c0.71,-1.58 74.23,-67.86 74.55,-69.78c-0.34,-1.74 -4.72,-9.61 -5.62,-10.5l-29.02,0c0.99,0.92 6,8.96 6.5,10.83l0,0.02l0.01,0z"/>
     <path class="cls-1" d="m917.58,0.02c-0.16,0.96 -71.57,77.99 -71.65,80.23c-0.08,2.24 76.18,69.75 82.22,75.64c-2.09,7.52 -80.41,67.5 -85.26,71.63c3.56,11.3 75.3,71.83 75.39,73.61c0.09,1.78 -72.36,70.68 -72.43,73.19c-0.07,2.5 72.13,76.17 72.17,77.84c0.05,1.91 -74.4,69.23 -74.55,70.39c0.36,0.8 76.26,71.17 76.91,72.65c-24.82,24.63 -49.64,49.26 -74.47,73.89c27.65,25.36 55.31,50.71 82.96,76.07c-2.14,3.14 -57.23,48.22 -78.47,64.83c-2.36,1.85 -4.49,4.32 -6.73,6.5l28.36,0c1.01,-0.97 1.98,-2.08 3.05,-2.88c14.68,-10.95 25.62,-19.39 28.59,-21.15c8.52,-5.07 24.44,-16.58 57.04,-45.24c-28.67,-26.11 -57.33,-52.22 -86,-78.33c14.66,-13.81 29.47,-28.17 44.39,-43.08c10.31,-10.3 20.36,-20.55 30.14,-30.74c-16.17,-16.11 -33.04,-32.36 -50.63,-48.69c-9.07,-8.41 -18.09,-16.64 -27.07,-24.67c0.41,-1.17 77.39,-71.12 77.75,-71.92c1.06,-2.37 -74.55,-72.25 -75,-74.22c-0.64,-2.8 72.9,-74.12 72.74,-76.12s-68.99,-61.3 -71.47,-69.49c0.48,-0.52 85.05,-70.22 85.59,-71.81c-27.39,-26.64 -54.78,-53.28 -82.18,-79.92c22.62,-26.07 45.24,-52.15 67.85,-78.22l-29.24,0l0,0.01z"/>
     <path class="cls-1" d="m848.65,10.85c-0.35,2.21 -74.26,68.33 -74.73,69.34c0.24,1.52 71.46,73.58 72.03,74.82c-0.29,1.72 -73.77,71.67 -74.8,72.71c3.16,9.82 73.97,73.96 74.55,75.33c-9.58,9.51 -19.15,19.03 -28.71,28.55c-14.37,14.31 -28.73,28.64 -43.07,42.98c0.71,1.4 72.5,73.81 73.36,76.23c-9.06,9.77 -18.79,19.74 -29.22,29.81c-15.87,15.32 -31.49,29.07 -46.54,41.37c0.88,1.36 50.06,45.75 56.54,52.7c5.23,5.61 12.67,14.19 20.61,25.83c-24.73,22.76 -49.46,45.53 -74.19,68.29c1.52,1.95 34.43,36.13 50.27,50.76c4.02,3.71 20.68,23.51 21.21,24.87c-0.34,1.56 -50.22,49.88 -70.99,68.46c-1.12,1 -2.09,2.37 -3.13,3.57l28.36,0c0.99,-1.27 1.88,-2.8 2.99,-3.76c20.31,-17.57 72.66,-66.22 73.05,-67.57c-21.35,-17.66 -71.26,-71.06 -74.7,-75.29c25.08,-23.3 50.16,-46.59 75.24,-69.89c-13.22,-12.76 -26.48,-25.68 -39.79,-38.75c-12.74,-12.51 -25.33,-24.99 -37.78,-37.43c13.52,-11.26 27.79,-24.17 42.31,-38.9c11.88,-12.05 22.52,-23.88 32.03,-35.23c-9.72,-10.44 -19.55,-20.9 -29.46,-31.39c-14,-14.8 -27.96,-29.41 -41.88,-43.82c0.53,-1.49 71.47,-70.93 71.85,-72.13c-0.58,-1.34 -71.99,-68.14 -75.34,-73.97c1.91,-1.96 76.77,-70.73 77.02,-72.04c-0.31,-1.42 -73.02,-74.21 -73.51,-76.02c0.71,-1.58 74.23,-67.86 74.55,-69.78c-0.34,-1.74 -4.72,-9.61 -5.62,-10.5l-29.02,0c0.99,0.92 6,8.96 6.5,10.83l0,0.02l0.01,0z"/>
    </g>
   </g>
  </symbol>
 </defs>
 <g class="layer">
  <title>Layer 1</title>
  <use id="svg_4" transform="translate(639.204 -14.3884) scale(0.996879 0.996879) translate(-639.204 14.3884) translate(-1.63433 -14.3581) matrix(1.13065 0 0 1.06176 -41.4054 0.969734)" xlink:href="#svg_3"/>
 </g>
</svg>